{"glyphs":{"0":{"ha":1092,"x_min":-11,"x_max":1006,"o":"m 696 1057 q 835 1028 776 1057 q 932 951 894 999 q 988 844 969 904 q 1006 719 1006 783 q 983 556 1006 642 q 916 386 960 469 q 810 228 872 303 q 667 96 747 153 q 492 5 588 39 q 286 -29 396 -29 q 166 -3 221 -29 q 72 67 111 22 q 10 175 32 113 q -11 311 -11 238 q 15 501 -11 408 q 87 678 40 594 q 199 831 133 761 q 342 950 264 900 q 510 1028 421 1000 q 696 1057 600 1057 m 369 190 q 465 217 418 190 q 556 290 513 244 q 635 392 599 335 q 699 512 672 450 q 742 634 726 574 q 757 744 757 694 q 728 848 757 819 q 649 876 699 876 q 505 824 578 876 q 372 694 432 772 q 274 524 313 615 q 236 353 236 432 q 247 272 236 303 q 276 222 258 240 q 319 197 294 204 q 369 190 343 190 z "},"1":{"ha":688,"x_min":13,"x_max":792,"o":"m 656 756 q 631 694 651 746 q 583 572 611 643 q 522 419 554 500 q 464 269 490 339 q 419 151 438 199 q 401 100 401 104 q 402 66 401 82 q 403 36 403 50 q 389 10 403 21 q 364 0 375 0 l 163 0 q 133 10 144 0 q 122 36 122 21 q 138 72 122 54 q 174 125 153 89 q 194 170 175 128 q 241 278 213 213 q 304 424 269 343 q 372 584 339 504 q 431 734 404 664 q 474 850 458 804 q 408 862 440 856 q 328 868 376 868 q 285 861 307 868 q 247 842 264 854 q 219 810 229 829 q 208 769 208 792 q 219 740 208 750 q 244 729 229 729 q 278 744 265 729 q 292 778 292 758 q 286 797 292 789 q 281 803 283 801 q 283 813 279 807 q 310 824 289 824 q 338 815 326 824 q 358 793 350 807 q 369 763 365 779 q 372 731 372 747 q 354 647 372 688 q 306 576 336 607 q 235 528 275 546 q 151 510 194 510 q 51 553 90 510 q 13 664 13 597 q 43 799 13 733 q 126 916 74 865 q 251 998 179 967 q 404 1029 322 1029 l 736 1029 q 792 992 792 1029 q 759 965 774 978 q 732 932 744 951 q 697 858 714 901 q 656 756 679 814 z "},"2":{"ha":872,"x_min":-207,"x_max":806,"o":"m 806 804 q 760 631 806 713 q 643 478 714 549 q 488 347 572 407 q 325 240 403 288 q 427 204 378 222 q 531 183 476 186 q 583 198 565 183 q 605 231 600 213 q 606 267 610 250 q 597 289 603 285 q 608 304 600 297 q 628 315 615 310 q 660 319 640 319 q 731 288 701 319 q 760 206 760 256 q 748 147 760 182 q 706 78 736 111 q 624 23 676 46 q 489 0 571 0 q 412 8 457 0 q 318 26 367 17 q 222 44 269 36 q 135 53 174 53 q 43 44 85 53 q -34 26 1 36 q -102 8 -69 17 q -165 0 -135 0 q -197 10 -187 0 q -207 36 -207 21 q -183 83 -207 56 q -122 140 -160 110 q -32 206 -93 164 q 103 301 29 249 q 257 415 178 354 q 401 538 336 475 q 508 659 467 600 q 550 769 550 718 q 507 866 550 836 q 396 896 464 896 q 283 870 328 896 q 238 797 238 844 q 248 767 238 778 q 274 757 258 757 q 307 772 294 757 q 319 806 319 786 q 314 825 319 817 q 308 831 311 829 q 311 840 307 835 q 338 851 317 851 q 366 843 354 851 q 385 821 378 835 q 397 791 393 807 q 400 758 400 775 q 382 676 400 715 q 333 606 364 636 q 263 556 303 575 q 181 538 224 538 q 81 581 119 538 q 42 692 42 625 q 71 827 42 761 q 156 944 100 893 q 294 1026 213 994 q 483 1057 376 1057 q 610 1042 551 1057 q 713 997 669 1028 q 781 918 756 965 q 806 804 806 871 z "},"3":{"ha":924,"x_min":-135,"x_max":847,"o":"m 847 813 q 833 726 847 767 q 795 651 819 686 q 739 585 771 615 q 671 529 707 554 q 753 466 719 507 q 786 353 786 425 q 756 238 786 290 q 672 142 725 185 q 549 68 619 100 q 400 15 479 36 q 237 -18 321 -7 q 74 -29 153 -29 q -15 -15 24 -29 q -80 24 -53 0 q -121 81 -107 49 q -135 150 -135 114 q -105 273 -135 217 q -28 369 -75 329 q 76 432 18 410 q 188 454 133 454 q 260 429 233 454 q 286 369 286 404 q 274 319 286 343 q 244 276 263 294 q 204 246 226 257 q 161 235 182 235 q 132 244 136 235 q 129 256 128 250 q 145 274 142 263 q 149 294 149 285 q 141 317 149 304 q 114 329 133 329 q 76 312 90 329 q 60 271 61 294 q 63 242 60 257 q 77 217 67 228 q 107 198 88 206 q 158 190 126 190 q 267 195 203 190 q 390 214 331 200 q 490 253 449 228 q 532 319 532 279 q 516 374 532 354 q 478 402 500 393 q 435 413 457 411 q 400 414 413 414 q 365 406 385 411 q 332 407 344 400 q 322 432 315 413 q 334 460 326 440 q 350 500 342 479 q 365 539 358 521 q 375 563 372 557 q 385 572 378 568 q 400 574 393 576 q 426 564 422 565 q 432 563 431 563 q 481 577 453 563 q 533 619 508 592 q 576 687 558 647 q 593 776 593 726 q 553 863 593 829 q 446 896 514 896 q 383 889 413 896 q 330 869 353 882 q 293 839 307 857 q 279 797 279 821 q 290 767 279 778 q 317 757 301 757 q 349 772 336 757 q 363 806 363 786 q 357 825 363 817 q 351 831 354 829 q 354 840 350 835 q 381 851 360 851 q 409 843 397 851 q 428 821 421 835 q 440 791 436 807 q 443 758 443 775 q 425 676 443 715 q 376 606 407 636 q 306 556 346 575 q 224 538 267 538 q 122 581 161 538 q 83 692 83 625 q 113 827 83 761 q 203 944 143 893 q 350 1026 263 994 q 554 1057 438 1057 q 658 1044 606 1057 q 752 1003 710 1032 q 821 928 794 975 q 847 813 847 882 z "},"4":{"ha":917,"x_min":-67,"x_max":994,"o":"m 994 992 q 926 917 954 975 q 858 756 899 858 l 738 453 l 747 453 q 778 459 767 456 q 797 460 790 463 q 807 435 814 453 q 794 403 803 425 q 776 356 786 381 q 758 311 767 332 q 747 285 750 290 q 738 275 744 279 q 724 274 731 271 l 694 286 q 674 289 694 286 q 624 158 643 211 q 604 100 604 104 q 605 66 604 82 q 606 36 606 50 q 592 10 606 21 q 567 0 578 0 l 364 0 q 336 10 347 0 q 325 36 325 21 q 340 72 325 54 q 376 125 356 89 l 450 290 l -28 289 q -56 299 -46 289 q -67 325 -67 310 q -40 376 -67 340 q 26 457 -14 411 q 112 556 65 503 q 198 663 158 610 q 264 765 238 717 q 290 851 290 814 q 280 881 290 871 q 254 892 269 892 q 221 877 233 892 q 208 843 208 863 q 213 824 208 829 q 218 818 215 819 q 215 807 218 813 q 189 797 208 797 q 142 819 158 797 q 126 872 126 842 q 147 944 126 911 q 201 1003 167 978 q 278 1042 235 1028 q 369 1057 322 1057 q 433 1049 403 1057 q 488 1024 464 1042 q 526 977 511 1006 q 540 906 540 949 q 511 803 540 860 q 438 685 482 746 q 345 565 394 625 q 256 454 296 504 q 393 452 321 453 q 518 451 465 451 q 580 598 549 524 q 635 735 611 672 q 675 843 660 799 q 690 903 690 888 q 690 933 690 914 q 689 963 689 951 q 696 983 689 975 q 713 994 703 990 q 738 1003 724 1000 q 832 1015 789 1010 q 900 1024 868 1019 q 939 1028 932 1028 q 994 992 994 1028 z "},"5":{"ha":908,"x_min":-126,"x_max":1031,"o":"m 497 718 q 602 707 551 718 q 693 669 653 696 q 758 594 733 642 q 782 476 782 547 q 733 287 782 378 q 592 126 683 196 q 370 13 500 56 q 81 -29 240 -29 q -7 -15 32 -29 q -72 24 -46 0 q -112 81 -99 49 q -126 150 -126 114 q -97 273 -126 217 q -20 369 -67 329 q 83 432 26 410 q 194 454 140 454 q 268 429 242 454 q 294 369 294 404 q 283 319 294 343 q 253 276 271 294 q 213 246 235 257 q 169 235 190 235 q 140 244 144 235 q 138 256 136 250 q 152 274 149 263 q 156 294 156 285 q 149 317 156 304 q 121 329 142 329 q 83 312 97 329 q 68 271 68 294 q 72 242 68 257 q 85 217 75 228 q 115 198 96 206 q 167 190 135 190 q 309 208 243 190 q 424 258 375 226 q 500 333 472 290 q 528 426 528 376 q 498 504 528 471 q 397 538 468 538 q 325 535 357 538 q 266 527 293 532 q 215 515 239 522 q 169 500 192 508 q 116 495 142 489 q 74 523 90 501 q 57 581 58 544 q 75 665 56 617 q 112 756 94 713 q 142 835 129 800 q 161 895 154 871 q 168 929 168 919 q 167 959 168 940 q 167 989 167 978 q 174 1009 167 1001 q 190 1021 181 1017 q 215 1029 201 1026 l 217 1029 q 338 1019 276 1029 q 461 997 399 1010 q 589 975 524 985 q 724 965 654 965 q 761 970 742 965 q 797 986 781 975 q 824 1014 814 997 q 835 1054 835 1031 q 824 1084 835 1074 q 799 1094 814 1094 q 766 1080 779 1094 q 753 1046 753 1065 q 758 1026 753 1035 q 764 1021 761 1022 q 761 1010 764 1015 q 735 1000 754 1000 q 688 1022 703 1000 q 672 1075 672 1044 q 691 1147 672 1113 q 740 1206 710 1181 q 810 1245 771 1231 q 890 1260 850 1260 q 994 1219 957 1260 q 1031 1119 1031 1179 q 1008 1008 1031 1067 q 938 899 985 949 q 819 816 890 849 q 650 783 747 783 q 494 797 567 783 q 353 824 422 810 l 304 704 q 393 715 344 711 q 497 718 442 718 z "},"6":{"ha":953,"x_min":-44,"x_max":908,"o":"m 724 1057 q 862 1025 815 1057 q 908 935 908 993 q 892 860 908 896 q 849 798 875 825 q 790 754 822 771 q 728 738 758 738 q 697 742 707 738 q 683 753 688 746 q 681 768 678 758 q 703 794 697 776 q 708 825 708 811 q 706 840 708 832 q 697 856 704 849 q 676 869 690 864 q 639 875 663 875 q 577 861 614 875 q 499 821 540 847 q 413 754 457 794 q 331 663 369 714 q 431 691 375 681 q 557 701 486 701 q 669 686 618 701 q 758 643 721 671 q 815 574 794 615 q 835 483 835 533 q 788 309 835 400 q 661 143 742 218 q 472 19 581 68 q 239 -29 363 -29 q 112 -7 165 -29 q 24 54 58 15 q -28 144 -11 93 q -44 254 -44 196 q -14 461 -44 360 q 69 651 17 563 q 196 815 122 740 q 354 943 269 889 q 533 1027 439 997 q 724 1057 628 1057 m 488 538 q 322 492 392 538 q 215 378 251 447 q 211 342 213 360 q 210 304 210 324 q 240 220 210 251 q 315 189 271 189 q 411 211 364 189 q 496 269 458 233 q 556 351 533 306 q 579 440 579 396 q 556 511 579 485 q 488 538 533 538 z "},"7":{"ha":910,"x_min":14,"x_max":1118,"o":"m 1106 992 q 1059 965 1082 983 q 1011 917 1036 946 q 956 847 986 888 q 888 756 925 807 q 859 717 882 749 q 801 640 836 686 q 724 536 767 593 q 639 420 682 479 q 554 305 596 361 q 481 204 513 249 q 428 131 449 160 q 407 100 408 103 l 386 36 q 363 10 381 21 q 335 0 346 0 l 96 0 q 71 10 78 0 q 69 36 64 21 q 96 72 75 54 q 149 125 117 89 q 182 166 151 128 q 258 263 213 204 q 361 394 304 321 q 474 541 418 467 q 581 683 531 615 q 665 799 632 750 q 491 831 572 814 q 329 847 410 847 q 287 840 308 847 q 248 821 265 833 q 220 790 231 808 q 210 749 210 771 q 220 719 210 729 q 246 708 231 708 q 280 723 267 708 q 293 757 293 738 q 288 776 293 768 q 282 782 285 781 q 285 792 281 786 q 311 803 290 803 q 340 794 328 803 q 359 772 351 786 q 370 742 367 758 q 374 710 374 726 q 356 626 374 667 q 307 556 338 586 q 236 507 276 525 q 153 489 196 489 q 53 533 92 489 q 14 643 14 576 q 46 781 14 713 q 133 906 78 850 q 261 995 188 961 q 417 1029 335 1029 q 529 1021 467 1029 q 648 1003 592 1013 q 747 985 704 993 q 799 976 789 976 q 834 985 808 976 q 896 1002 860 993 q 975 1019 932 1011 q 1063 1028 1018 1028 q 1106 992 1118 1028 z "},"8":{"ha":997,"x_min":-104,"x_max":925,"o":"m 925 857 q 888 739 925 804 q 776 619 851 674 q 849 540 825 586 q 874 449 874 494 q 828 280 874 365 q 694 126 782 194 q 479 14 607 57 q 188 -29 351 -29 q 53 -8 108 -29 q -37 46 -3 13 q -88 120 -72 79 q -104 201 -104 161 q -85 303 -104 251 q -29 403 -65 354 q 57 494 7 451 q 169 574 107 538 q 124 633 140 597 q 107 719 107 668 q 142 835 107 775 q 243 944 176 894 q 409 1025 310 993 q 638 1057 508 1057 q 740 1049 689 1057 q 833 1020 792 1042 q 899 960 874 999 q 925 857 925 921 m 557 896 q 491 885 525 896 q 428 856 457 875 q 380 808 399 836 q 361 743 361 779 q 372 706 361 719 q 400 685 383 693 q 436 676 417 678 q 474 674 456 674 q 540 684 506 674 q 604 714 575 694 q 652 761 633 733 q 671 825 671 789 q 644 878 671 861 q 557 896 617 896 m 272 190 q 399 204 336 190 q 510 243 461 218 q 588 302 558 268 q 619 376 618 336 q 578 435 619 413 q 467 458 536 458 q 350 444 407 458 q 249 406 293 431 q 178 348 206 382 q 150 274 151 314 q 181 213 150 236 q 272 190 213 190 z "},"9":{"ha":976,"x_min":-96,"x_max":907,"o":"m 608 1057 q 738 1033 682 1057 q 831 969 793 1010 q 888 875 868 928 q 907 764 907 822 q 876 557 907 657 q 791 369 846 457 q 660 208 736 282 q 492 82 583 135 q 299 0 401 29 q 89 -29 196 -29 q -49 3 -3 -29 q -96 94 -96 36 q -79 167 -96 132 q -36 230 -62 203 q 22 274 -10 257 q 85 290 54 290 q 114 285 104 290 q 128 275 124 281 q 132 261 133 269 q 109 246 114 254 q 104 228 104 238 q 119 201 104 214 q 182 189 133 189 q 258 199 215 189 q 344 231 300 210 q 434 286 389 253 q 519 364 479 319 q 412 337 471 347 q 279 326 353 326 q 91 385 156 326 q 26 557 26 444 q 71 729 26 640 q 193 891 115 818 q 378 1010 271 964 q 608 1057 485 1057 m 379 489 q 460 501 419 489 q 535 535 500 514 q 599 586 571 557 q 646 649 628 615 q 650 690 649 668 q 651 733 651 711 q 647 788 651 760 q 629 840 642 817 q 594 880 617 864 q 535 896 571 896 q 440 875 486 896 q 358 815 393 854 q 301 719 322 775 q 279 593 279 664 q 307 519 279 549 q 379 489 335 489 z "},"\u0000":{"ha":0,"x_min":0,"x_max":0,"o":""},"\r":{"ha":508,"x_min":0,"x_max":0,"o":""}," ":{"ha":508,"x_min":0,"x_max":0,"o":""},"e":{"ha":603,"x_min":-40,"x_max":660,"o":"m 603 396 l 660 356 q 599 256 636 317 q 506 139 563 196 q 369 41 449 82 q 182 0 290 0 q 90 16 131 0 q 19 60 49 32 q -25 126 -10 88 q -40 211 -40 165 q 4 406 -40 315 q 117 564 49 497 q 264 669 185 631 q 413 707 343 707 q 524 674 481 707 q 568 583 568 642 q 539 483 568 538 q 459 380 510 428 q 338 298 408 332 q 188 260 268 264 q 222 230 200 242 q 285 218 244 218 q 400 232 350 218 q 488 270 450 246 q 554 326 526 294 q 603 396 582 358 m 306 525 q 262 510 283 525 q 223 473 240 496 q 192 422 206 450 q 174 364 179 393 q 246 382 214 368 q 300 415 278 396 q 334 454 322 433 q 346 492 346 475 q 336 516 346 507 q 306 525 326 525 z "},"f":{"ha":440,"x_min":-665,"x_max":682,"o":"m 539 1029 q 644 992 607 1029 q 682 907 682 956 q 665 833 682 868 q 622 770 649 797 q 564 726 596 743 q 501 710 532 710 q 472 714 482 710 q 458 725 463 718 q 454 740 453 731 q 477 766 472 749 q 482 797 482 783 q 472 829 482 811 q 432 847 461 847 q 382 819 400 847 q 344 750 364 790 q 338 734 344 750 q 321 690 332 718 q 294 624 310 663 q 263 543 279 586 q 319 542 296 542 q 342 543 342 542 q 373 549 361 546 q 392 549 385 551 q 401 524 408 542 l 353 404 q 343 394 350 399 q 329 393 336 390 l 300 407 l 210 407 q 152 261 181 333 q 100 130 124 189 q 61 31 76 71 q 43 -15 46 -8 q 11 -100 29 -50 q -34 -206 -7 -150 q -99 -315 -61 -261 q -190 -413 -136 -369 q -313 -484 -243 -457 q -474 -511 -383 -511 q -549 -497 -514 -511 q -610 -458 -585 -482 q -651 -401 -636 -433 q -665 -333 -665 -369 q -635 -209 -665 -265 q -559 -112 -606 -153 q -455 -50 -512 -72 q -343 -28 -397 -28 q -270 -53 -296 -28 q -244 -112 -244 -78 q -256 -163 -244 -139 q -285 -206 -268 -187 q -325 -236 -303 -225 q -368 -247 -347 -247 q -399 -237 -394 -247 q -400 -226 -401 -232 q -385 -209 -389 -221 q -382 -187 -382 -197 q -390 -165 -382 -178 q -417 -153 -397 -153 q -456 -172 -442 -153 q -469 -217 -469 -192 q -449 -269 -469 -244 q -385 -293 -429 -293 q -276 -263 -315 -293 q -216 -195 -236 -233 q -190 -121 -196 -157 q -181 -72 -183 -85 q -153 5 -176 -57 q -96 152 -129 67 q -24 334 -62 238 q 49 515 14 431 q 109 658 83 599 q 142 729 135 718 q 222 851 174 796 q 326 947 271 907 q 438 1008 382 986 q 539 1029 493 1029 z "},"g":{"ha":663,"x_min":-307,"x_max":710,"o":"m 710 669 q 655 620 678 658 q 606 517 632 582 q 578 449 596 494 q 540 347 561 403 q 494 231 518 292 q 451 119 471 171 q 417 31 432 68 q 400 -15 403 -6 q 369 -100 386 -50 q 324 -206 351 -150 q 259 -315 297 -261 q 168 -413 221 -369 q 45 -484 115 -457 q -117 -511 -25 -511 q -192 -497 -157 -511 q -252 -458 -226 -482 q -292 -401 -278 -433 q -307 -333 -307 -369 q -277 -209 -307 -265 q -201 -112 -247 -153 q -97 -50 -154 -72 q 15 -28 -40 -28 q 88 -53 61 -28 q 114 -112 114 -78 q 102 -163 114 -139 q 72 -206 90 -187 q 32 -236 54 -225 q -11 -247 10 -247 q -42 -237 -37 -247 q -43 -226 -44 -232 q -28 -209 -32 -221 q -25 -187 -25 -197 q -32 -165 -25 -178 q -58 -153 -39 -153 q -98 -172 -83 -153 q -112 -217 -112 -192 q -92 -269 -112 -244 q -28 -293 -72 -293 q 81 -263 42 -293 q 141 -195 121 -233 q 167 -121 161 -157 q 176 -72 174 -85 q 190 -29 183 -51 q 206 17 196 -7 q 170 5 189 10 q 132 0 151 0 q 67 15 99 0 q 12 56 36 29 q -27 122 -12 83 q -42 206 -42 160 q -21 342 -42 278 q 35 463 0 407 q 115 565 69 519 q 209 641 160 610 q 308 690 258 672 q 400 707 357 707 q 463 694 433 707 q 500 665 492 682 q 525 676 510 669 q 560 690 540 683 q 605 702 581 697 q 654 707 629 707 q 710 669 710 707 m 226 218 q 280 238 258 218 q 317 288 301 258 q 389 460 358 382 q 377 504 388 483 q 336 525 367 525 q 265 502 296 525 q 212 445 233 479 q 179 372 190 411 q 168 303 168 333 q 185 242 168 265 q 226 218 201 218 z "},"h":{"ha":682,"x_min":-169,"x_max":739,"o":"m 682 396 l 739 356 q 665 229 701 293 q 587 115 628 165 q 498 32 546 64 q 390 0 450 0 q 300 35 333 0 q 267 126 267 69 q 285 220 267 169 q 327 319 304 271 q 369 410 350 368 q 389 475 389 451 q 374 512 389 499 q 340 525 360 525 q 261 492 297 525 q 210 419 225 460 q 164 303 186 360 q 125 203 142 247 q 98 131 108 160 q 88 100 88 103 q 88 65 88 81 q 89 36 89 50 q 76 10 89 21 q 51 0 63 0 l -131 0 q -158 10 -147 0 q -169 36 -169 21 q -154 71 -169 53 q -119 125 -139 89 q -103 160 -118 128 q -67 242 -89 192 q -16 358 -44 293 q 42 491 13 422 q 99 628 71 560 q 148 752 126 696 q 183 849 169 808 q 196 903 196 889 q 195 932 196 914 q 194 961 194 950 q 201 982 194 974 q 218 994 208 990 q 243 1001 229 1000 q 322 1014 286 1008 q 383 1024 354 1019 q 424 1028 413 1028 q 479 992 479 1028 q 411 916 439 975 q 342 756 383 857 q 326 713 339 747 q 292 629 313 679 q 383 685 333 663 q 492 707 433 707 q 535 700 513 707 q 578 676 558 693 q 610 632 597 660 q 622 561 622 604 q 603 475 622 521 q 562 387 585 429 q 520 308 539 344 q 501 247 501 271 q 505 228 501 238 q 519 218 508 218 q 565 233 543 218 q 606 274 586 249 q 644 331 625 299 q 682 396 663 363 z "},"i":{"ha":508,"x_min":-26,"x_max":608,"o":"m 349 218 q 390 233 369 218 q 430 274 410 249 q 469 331 450 299 q 508 396 489 363 l 565 356 q 491 229 528 293 q 413 115 454 165 q 325 32 372 64 q 219 0 278 0 q 128 35 161 0 q 96 126 96 69 q 116 222 96 168 q 160 329 136 276 q 203 427 183 382 q 224 496 224 472 q 219 515 224 504 q 203 525 215 525 q 162 505 183 525 q 118 453 140 485 q 74 385 96 422 q 31 311 51 347 l -26 351 q 40 467 6 406 q 117 583 75 529 q 208 672 158 636 q 318 707 257 707 q 413 669 376 707 q 449 571 449 631 q 430 478 449 526 q 388 386 411 431 q 347 305 365 342 q 328 247 328 268 q 332 228 328 238 q 349 218 336 218 m 521 1029 q 585 1003 561 1029 q 608 938 608 978 q 592 865 608 901 q 548 801 575 829 q 486 756 521 774 q 417 739 451 739 q 353 765 376 739 q 329 831 329 790 q 346 902 329 867 q 390 966 363 938 q 451 1012 417 994 q 521 1029 486 1029 z "},"j":{"ha":500,"x_min":-471,"x_max":610,"o":"m 319 707 q 410 672 376 707 q 443 581 444 638 q 430 506 443 553 q 397 401 417 458 q 354 283 378 344 q 308 164 331 221 q 266 60 285 107 q 238 -15 247 13 q 206 -100 224 -50 q 160 -206 188 -150 q 96 -315 133 -261 q 5 -413 58 -369 q -119 -484 -49 -457 q -279 -511 -189 -511 q -355 -497 -319 -511 q -416 -458 -390 -482 q -456 -401 -442 -433 q -471 -333 -471 -369 q -441 -209 -471 -265 q -365 -112 -411 -153 q -260 -50 -318 -72 q -149 -28 -203 -28 q -75 -53 -101 -28 q -49 -112 -49 -78 q -60 -163 -49 -139 q -90 -206 -72 -187 q -131 -236 -108 -225 q -174 -247 -153 -247 q -204 -237 -200 -247 q -206 -226 -207 -232 q -191 -209 -194 -221 q -187 -187 -187 -197 q -195 -165 -187 -178 q -222 -153 -203 -153 q -261 -172 -247 -153 q -275 -217 -275 -192 q -255 -269 -275 -244 q -190 -293 -235 -293 q -81 -263 -121 -293 q -22 -195 -42 -233 q 5 -121 -1 -157 q 14 -72 11 -85 q 38 1 21 -43 q 74 96 54 44 q 117 203 94 147 q 161 312 140 258 q 199 413 182 365 q 224 496 215 461 q 221 515 226 504 q 204 525 215 525 q 163 505 185 525 q 119 453 142 485 q 74 385 97 422 q 31 311 51 347 l -26 351 q 41 467 6 406 q 118 583 76 529 q 209 672 160 636 q 319 707 258 707 m 522 1029 q 586 1003 563 1029 q 610 938 610 978 q 593 865 610 901 q 549 801 576 829 q 488 756 522 774 q 418 739 453 739 q 354 765 378 739 q 331 831 331 790 q 347 902 331 867 q 391 966 364 938 q 453 1012 418 994 q 522 1029 488 1029 z "},"k":{"ha":640,"x_min":-169,"x_max":697,"o":"m 640 396 l 697 356 q 624 230 660 293 q 547 115 588 167 q 455 32 506 64 q 338 0 404 0 q 264 17 296 0 q 206 63 232 35 q 160 126 181 92 q 122 196 139 161 q 97 129 107 156 q 88 100 88 103 q 88 66 88 82 q 89 36 89 50 q 75 10 89 21 q 50 0 61 0 l -131 0 q -159 11 -149 0 q -169 38 -169 22 q -154 72 -169 54 q -119 125 -139 89 q -103 160 -118 128 q -67 243 -89 192 q -17 359 -44 294 q 40 492 11 424 q 97 629 69 561 q 147 753 125 697 q 181 849 168 810 q 194 903 194 889 q 194 933 194 914 q 193 963 193 951 q 201 983 193 975 q 218 994 208 990 q 243 1003 229 1000 q 322 1015 286 1010 q 383 1024 354 1019 q 424 1028 413 1028 q 479 992 479 1028 q 410 917 438 975 q 342 756 382 858 l 306 664 q 464 707 394 707 q 570 670 532 707 q 608 583 608 633 q 592 510 608 546 q 549 448 575 475 q 490 404 522 421 q 428 388 458 388 q 397 392 407 388 q 383 401 388 396 q 381 417 378 407 q 402 443 397 426 q 407 474 407 460 q 397 506 407 488 q 357 525 386 525 q 290 497 329 525 q 218 431 250 469 q 268 369 244 406 q 317 300 292 333 q 371 242 342 267 q 438 218 400 218 q 509 233 479 218 q 562 274 539 249 q 603 331 585 299 q 640 396 621 363 z "},"l":{"ha":331,"x_min":-81,"x_max":483,"o":"m 331 396 l 388 356 q 321 240 356 301 q 244 124 286 178 q 153 35 203 71 q 43 0 104 0 q -48 35 -15 0 q -81 126 -81 71 q -60 232 -81 165 q -8 376 -39 299 q 60 538 24 454 q 127 694 96 621 q 179 823 158 767 q 200 904 200 879 q 199 933 200 915 q 197 963 197 951 q 205 983 197 975 q 222 996 213 992 q 247 1003 233 1001 q 326 1015 290 1010 q 388 1025 358 1021 q 428 1029 417 1029 q 483 992 483 1029 q 414 917 442 976 q 346 756 386 858 q 324 701 340 742 q 285 608 307 661 q 240 494 264 554 q 197 383 217 435 q 165 293 178 331 q 151 247 151 256 q 156 228 151 239 q 171 218 160 218 q 213 233 193 218 q 253 272 233 247 q 292 328 272 296 q 331 396 311 360 z "},"m":{"ha":1144,"x_min":-26,"x_max":1201,"o":"m 1144 396 l 1201 356 q 1128 229 1164 293 q 1051 115 1092 165 q 962 32 1010 64 q 854 0 914 0 q 763 35 796 0 q 731 126 731 69 q 749 220 731 169 q 791 319 768 271 q 833 410 814 368 q 851 475 851 451 q 845 509 851 493 q 813 525 839 525 q 765 492 785 525 q 729 419 744 460 q 692 314 713 369 q 653 211 671 258 q 624 133 636 164 q 613 100 613 101 q 613 65 613 81 q 614 36 614 50 q 600 10 614 21 q 575 0 586 0 l 394 0 q 365 10 376 0 q 354 36 354 21 q 369 71 354 53 q 404 125 385 89 q 414 149 404 125 q 438 208 424 172 q 469 286 453 243 q 499 367 485 329 q 523 435 514 406 q 532 475 532 465 q 523 512 532 499 q 494 525 514 525 q 440 492 461 525 q 403 419 418 460 q 364 313 385 368 q 326 213 343 258 q 297 135 308 167 q 285 100 285 104 q 285 65 285 81 q 286 36 286 50 q 272 10 286 21 q 247 0 258 0 l 67 0 q 38 10 49 0 q 26 36 26 21 q 42 71 26 53 q 78 125 57 89 q 89 151 78 126 q 116 213 100 175 q 151 295 132 250 q 186 381 169 340 q 213 453 203 422 q 224 496 224 485 q 219 515 224 504 q 204 525 215 525 q 163 505 185 525 q 119 453 142 485 q 74 385 97 422 q 31 311 51 347 l -26 351 q 41 467 6 406 q 118 583 76 529 q 209 672 160 636 q 319 707 258 707 q 399 681 368 707 q 440 613 431 656 q 524 680 476 653 q 635 707 572 707 q 670 702 651 707 q 706 687 689 697 q 738 658 724 676 q 758 613 751 639 q 842 680 794 653 q 954 707 890 707 q 998 700 975 707 q 1040 676 1021 693 q 1072 632 1060 660 q 1085 561 1085 604 q 1066 475 1085 521 q 1025 387 1047 429 q 984 308 1003 344 q 965 247 965 271 q 968 228 965 238 q 982 218 971 218 q 1027 233 1006 218 q 1068 274 1049 249 q 1106 331 1088 299 q 1144 396 1125 363 z "},"n":{"ha":850,"x_min":-26,"x_max":908,"o":"m 850 396 l 908 356 q 834 229 871 293 q 756 115 797 165 q 667 32 715 64 q 560 0 619 0 q 469 35 501 0 q 436 126 436 69 q 455 220 436 169 q 497 319 474 271 q 538 410 519 368 q 557 475 557 451 q 543 512 557 499 q 508 525 529 525 q 478 516 493 525 q 449 492 463 507 q 423 458 435 478 q 403 419 411 439 q 364 313 385 368 q 325 213 343 258 q 295 135 307 167 q 283 100 283 104 q 284 65 283 81 q 285 36 285 50 q 272 10 285 21 q 247 0 258 0 l 65 0 q 38 10 49 0 q 26 36 26 21 q 42 71 26 53 q 76 125 57 89 q 88 151 76 126 q 116 213 100 175 q 151 295 132 250 q 186 381 169 340 q 213 453 203 422 q 224 496 224 485 q 219 515 224 504 q 204 525 215 525 q 162 505 183 525 q 118 453 140 485 q 74 385 96 422 q 31 311 51 347 l -26 351 q 40 467 6 406 q 117 583 75 529 q 208 672 158 636 q 318 707 257 707 q 403 678 371 707 q 442 601 435 649 q 537 676 482 646 q 661 707 592 707 q 703 700 681 707 q 746 676 726 693 q 778 632 765 660 q 790 561 790 604 q 772 475 790 521 q 731 387 753 429 q 690 308 708 344 q 671 247 671 271 q 674 228 671 238 q 688 218 676 218 q 733 233 711 218 q 774 274 754 249 q 812 331 793 299 q 850 396 831 363 z "},"o":{"ha":768,"x_min":-33,"x_max":825,"o":"m 768 396 l 825 356 q 794 299 813 333 q 754 226 776 265 q 706 146 732 186 q 649 73 679 106 q 583 20 618 40 q 511 0 549 0 q 440 17 471 0 q 389 60 410 33 q 288 16 340 32 q 179 0 235 0 q 90 17 129 0 q 23 65 50 35 q -19 136 -4 96 q -33 222 -33 176 q 1 401 -33 314 q 98 557 36 489 q 243 666 160 625 q 422 707 326 707 q 508 691 468 707 q 576 644 547 675 q 622 572 606 614 q 639 478 639 529 q 625 373 639 426 q 594 283 611 319 q 584 240 583 261 q 611 219 585 219 q 655 237 633 219 q 697 281 676 254 q 735 338 717 307 q 768 396 753 368 m 163 310 q 184 244 163 271 q 258 218 206 218 q 299 224 279 218 q 336 239 318 229 q 367 331 342 301 q 436 367 392 360 q 450 428 447 396 q 428 495 450 464 q 350 526 406 526 q 280 505 314 526 q 220 451 246 483 q 178 380 194 418 q 163 310 163 342 z "},"p":{"ha":890,"x_min":-181,"x_max":947,"o":"m 890 396 l 947 356 q 917 299 935 333 q 876 226 899 265 q 828 146 854 186 q 771 73 801 106 q 706 20 740 40 q 633 0 671 0 q 561 18 592 0 q 511 64 531 36 q 413 16 463 32 q 319 0 364 0 q 276 8 292 0 q 249 29 260 17 q 221 -41 238 0 q 185 -128 204 -82 q 146 -222 165 -175 q 111 -308 126 -269 q 86 -375 96 -347 q 76 -410 76 -403 q 77 -444 76 -429 q 78 -474 78 -460 q 64 -499 78 -489 q 39 -510 50 -510 l -142 -510 q -169 -499 -158 -510 q -181 -474 -181 -489 q -165 -438 -181 -456 q -131 -385 -150 -421 q -106 -332 -128 -382 q -51 -207 -83 -282 q -6 -94 -33 -162 q 53 49 22 -26 q 114 200 83 124 q 169 340 144 276 q 208 445 193 403 q 224 496 224 488 q 219 515 224 506 q 204 525 215 525 q 163 506 185 525 q 118 455 140 486 q 74 386 96 424 q 31 313 51 349 l -26 351 q 41 467 6 406 q 117 583 76 529 q 208 672 158 636 q 319 707 258 707 q 396 684 365 707 q 438 622 426 661 q 508 683 469 658 q 596 707 547 707 q 665 692 633 707 q 719 649 696 676 q 755 583 742 621 q 768 499 768 544 q 755 389 768 440 q 719 289 742 338 q 706 243 707 267 q 733 219 706 219 q 777 237 756 219 q 819 281 799 254 q 857 338 839 307 q 890 396 875 368 m 350 274 q 364 235 353 253 q 401 218 375 218 q 465 233 435 218 q 497 331 469 300 q 568 368 524 361 q 579 440 579 408 q 562 503 579 479 q 521 526 544 526 q 452 497 481 526 q 407 431 424 467 q 381 356 396 394 q 350 274 365 317 z "},"q":{"ha":661,"x_min":-40,"x_max":711,"o":"m 711 669 q 656 620 679 658 q 607 518 633 582 q 478 185 542 347 q 363 -106 414 24 q 281 -317 313 -235 q 250 -411 250 -400 q 251 -444 250 -429 q 251 -475 251 -460 q 238 -501 251 -490 q 213 -511 224 -511 l 32 -511 q 3 -500 14 -511 q -7 -474 -7 -489 q 8 -439 -7 -457 q 43 -386 24 -421 q 61 -347 44 -385 q 104 -249 78 -308 q 161 -118 131 -190 q 221 25 192 -46 q 179 7 201 14 q 133 0 157 0 q 68 15 100 0 q 13 56 36 29 q -26 122 -11 83 q -40 206 -40 160 q 4 406 -40 314 q 115 564 49 497 q 259 669 182 631 q 400 707 336 707 q 463 694 433 707 q 501 665 493 682 q 526 676 511 669 q 562 690 542 683 q 606 702 582 697 q 656 707 629 707 q 711 669 711 707 m 228 218 q 289 246 265 218 q 328 310 313 274 l 389 474 q 374 510 386 494 q 338 525 363 525 q 265 502 297 525 q 212 445 233 479 q 179 372 190 411 q 168 303 168 333 q 185 242 168 265 q 228 218 203 218 z "},"r":{"ha":558,"x_min":-25,"x_max":614,"o":"m 558 396 l 614 356 q 540 229 576 293 q 461 115 503 165 q 369 32 419 64 q 256 0 319 0 q 201 8 228 0 q 154 33 175 17 q 120 76 133 50 q 107 136 107 101 q 133 240 107 186 q 192 342 160 293 q 250 432 224 392 q 276 496 276 472 q 272 514 276 504 q 256 524 268 524 q 209 530 232 524 q 167 550 186 536 q 125 473 146 510 q 86 405 104 436 q 54 349 68 374 q 32 311 40 325 l -25 351 q 1 396 -15 368 q 36 460 17 424 q 76 537 56 496 q 115 621 96 578 q 101 714 101 657 q 110 781 101 746 q 133 844 118 815 q 172 891 149 872 q 226 910 196 910 q 263 894 249 910 q 276 853 276 878 q 269 799 276 829 q 249 733 261 768 q 371 707 294 707 q 469 674 429 707 q 510 581 510 642 q 485 477 510 528 q 431 382 461 426 q 377 303 401 338 q 353 247 353 268 q 369 222 353 225 q 397 218 386 218 q 440 233 419 218 q 480 274 460 249 q 519 331 500 299 q 558 396 539 363 z "},"s":{"ha":661,"x_min":-97,"x_max":544,"o":"m 292 496 q 310 459 292 476 q 357 425 329 442 q 418 390 385 408 q 479 349 451 372 q 526 298 507 326 q 544 233 544 269 q 507 135 544 179 q 408 62 469 92 q 267 16 346 32 q 104 0 188 0 q 32 8 68 0 q -33 31 -4 15 q -79 72 -61 47 q -97 132 -97 97 q -82 203 -97 169 q -41 263 -67 238 q 17 304 -15 289 q 85 319 50 319 q 114 315 104 319 q 128 304 124 310 q 131 290 132 299 q 115 273 124 285 q 106 247 106 261 q 113 231 106 236 q 131 222 121 225 q 153 219 142 219 q 172 218 165 218 q 215 218 193 218 q 255 221 238 218 q 284 230 272 224 q 296 249 296 236 q 272 274 296 260 q 214 306 247 288 q 147 351 181 325 q 93 415 113 378 q 60 364 76 390 q 29 313 44 338 l -26 351 q 37 462 4 403 q 108 574 69 521 q 169 629 135 604 q 240 672 203 654 q 315 698 276 689 q 388 707 353 707 q 490 683 454 707 q 526 604 526 658 q 515 554 526 579 q 485 508 504 529 q 440 475 465 488 q 386 463 415 463 q 358 469 365 463 q 350 485 350 476 q 359 494 356 488 q 361 508 363 501 q 352 521 360 515 q 328 526 344 526 q 303 519 314 526 q 292 496 292 511 z "},"t":{"ha":331,"x_min":-81,"x_max":535,"o":"m 518 847 q 528 821 535 840 l 479 703 q 469 693 476 697 q 456 692 463 689 q 442 698 449 694 q 426 704 435 701 q 396 706 424 706 q 326 708 368 707 q 296 632 314 676 q 258 539 278 588 q 219 442 239 490 q 185 352 200 393 q 161 283 171 311 q 151 247 151 254 q 156 228 151 239 q 171 218 160 218 q 213 233 193 218 q 253 272 233 247 q 292 328 272 296 q 331 396 311 360 l 388 356 q 321 240 356 301 q 244 124 286 178 q 153 35 203 71 q 43 0 104 0 q -48 35 -15 0 q -81 126 -81 71 q -59 235 -81 167 q -6 384 -37 304 q 63 549 26 464 q 132 707 100 633 q 124 706 125 706 q 122 706 124 706 q 92 699 103 703 q 72 700 81 696 q 63 725 56 707 q 74 752 67 735 q 88 788 81 769 q 102 822 96 807 q 111 844 108 838 q 121 852 114 849 q 135 854 128 856 q 185 861 164 851 q 220 888 207 871 q 240 927 233 906 q 247 969 247 949 q 255 990 247 982 q 272 1003 263 999 q 297 1011 283 1008 q 351 1019 326 1015 q 395 1026 374 1022 q 428 1029 417 1029 q 483 992 483 1029 q 428 941 451 979 q 379 838 406 903 q 441 840 417 839 q 468 840 465 840 q 499 847 488 843 q 518 847 511 850 z "},"u":{"ha":853,"x_min":-26,"x_max":910,"o":"m 853 396 l 910 356 q 836 229 872 293 q 759 115 800 165 q 671 32 718 64 q 565 0 624 0 q 480 29 513 0 q 442 107 447 58 q 342 31 397 63 q 221 0 286 0 q 178 7 201 0 q 136 31 156 14 q 104 75 117 47 q 92 144 92 103 q 113 235 92 182 q 158 340 133 288 q 203 435 182 392 q 224 496 224 478 q 219 515 224 504 q 204 525 215 525 q 163 505 185 525 q 119 453 142 485 q 74 385 97 422 q 31 311 51 347 l -26 351 q 41 467 6 406 q 118 583 76 529 q 209 672 160 636 q 319 707 258 707 q 410 672 378 707 q 443 581 443 638 q 427 489 443 535 q 392 401 411 443 q 356 325 372 360 q 340 268 340 290 q 354 231 340 244 q 389 218 368 218 q 451 251 425 218 q 492 324 476 283 q 519 390 503 353 q 552 465 536 428 q 579 534 568 503 q 590 582 590 565 q 590 611 590 593 q 589 640 589 629 q 596 661 589 653 q 613 674 603 669 q 638 681 624 679 q 717 693 681 688 q 778 701 749 697 q 818 706 807 706 q 874 669 874 706 q 819 619 842 657 q 769 515 796 581 q 701 345 729 415 q 674 247 674 275 q 677 228 674 238 q 693 218 681 218 q 735 233 715 218 q 776 274 756 249 q 815 331 796 299 q 853 396 833 363 z "},"v":{"ha":849,"x_min":-26,"x_max":906,"o":"m 849 396 l 906 356 q 875 299 893 333 q 835 226 857 265 q 787 146 814 186 q 730 73 760 106 q 665 20 700 40 q 593 0 631 0 q 524 16 553 0 q 474 56 494 32 q 385 15 432 29 q 282 0 338 0 q 216 12 247 0 q 162 46 185 24 q 126 101 139 68 q 113 175 113 133 q 130 269 113 219 q 168 363 147 318 q 206 442 189 407 q 224 496 224 478 q 219 515 224 506 q 203 525 215 525 q 162 506 183 525 q 118 455 140 486 q 74 386 96 424 q 31 313 51 349 l -26 351 q 40 467 6 406 q 117 583 75 529 q 208 672 158 636 q 319 707 258 707 q 410 672 376 707 q 443 581 443 638 q 427 489 443 535 q 391 401 411 443 q 355 325 371 360 q 339 269 339 290 q 347 232 339 246 q 374 218 354 218 q 417 238 393 218 q 445 328 421 299 q 511 367 469 357 q 542 427 528 396 q 566 488 556 458 q 583 541 576 517 q 589 582 589 565 q 588 611 589 593 q 588 640 588 629 q 594 661 588 653 q 611 674 601 669 q 636 681 622 679 q 715 693 679 688 q 777 703 747 699 q 818 707 807 707 q 874 669 874 707 q 820 628 842 658 q 778 533 799 597 q 744 439 768 506 q 679 293 721 372 q 669 271 674 283 q 665 247 665 258 q 672 227 665 235 q 693 219 678 219 q 735 237 714 219 q 777 281 757 254 q 815 338 797 307 q 849 396 833 368 z "},"w":{"ha":1149,"x_min":-26,"x_max":1206,"o":"m 1149 396 l 1206 356 q 1175 299 1193 333 q 1135 226 1157 265 q 1086 146 1113 186 q 1029 73 1060 106 q 964 20 999 40 q 892 0 929 0 q 825 15 854 0 q 775 53 796 29 q 696 14 738 28 q 606 0 654 0 q 528 22 563 0 q 478 81 494 44 q 384 25 442 50 q 251 0 326 0 q 195 10 222 0 q 147 40 168 19 q 113 93 125 61 q 100 169 100 125 q 119 256 100 208 q 162 351 139 304 q 204 436 185 397 q 224 496 224 475 q 219 515 224 506 q 203 525 215 525 q 162 506 183 525 q 118 455 140 486 q 74 386 96 424 q 31 313 51 349 l -26 351 q 40 467 6 406 q 117 583 75 529 q 208 672 158 636 q 318 707 257 707 q 409 672 376 707 q 442 581 442 638 q 425 487 442 535 q 388 395 408 439 q 350 315 367 351 q 333 257 333 279 q 342 226 333 233 q 368 218 351 218 q 422 247 399 218 q 460 313 444 276 q 486 378 469 338 q 519 458 503 418 q 547 533 535 499 q 558 582 558 567 q 558 611 558 593 q 557 640 557 629 q 564 661 557 653 q 581 674 571 669 q 606 681 592 679 q 685 693 649 688 q 746 703 717 699 q 786 707 775 707 q 842 669 842 707 q 788 619 810 658 q 738 515 765 581 q 708 442 725 483 q 677 361 692 400 q 653 294 663 322 q 642 260 643 265 q 675 218 643 218 q 715 235 694 218 q 746 328 721 299 q 817 367 771 358 q 846 427 832 396 q 870 488 860 458 q 886 541 881 517 q 892 582 892 565 q 890 611 892 593 q 889 640 889 629 q 897 661 889 653 q 914 674 904 669 q 939 681 925 679 q 1018 693 982 688 q 1079 703 1050 699 q 1119 707 1108 707 q 1175 669 1175 707 q 1122 628 1143 658 q 1079 533 1100 597 q 1045 438 1069 506 q 978 292 1021 371 q 969 270 974 281 q 964 247 964 260 q 970 228 964 236 q 992 219 976 219 q 1034 237 1013 219 q 1076 281 1056 254 q 1115 338 1097 307 q 1149 396 1133 368 z "},"x":{"ha":719,"x_min":-26,"x_max":776,"o":"m 719 396 l 776 356 q 703 229 739 293 q 626 115 667 165 q 536 32 585 64 q 425 0 488 0 q 356 24 383 0 q 310 88 329 47 q 232 24 278 49 q 122 0 186 0 q 30 28 68 0 q -8 108 -8 57 q 6 175 -8 143 q 44 231 21 207 q 97 268 67 254 q 156 282 126 282 q 186 273 178 282 q 194 256 194 264 q 185 247 189 253 q 181 234 181 240 q 185 223 181 228 q 204 218 190 218 q 239 228 226 218 q 257 253 251 239 q 263 285 263 268 q 263 314 264 301 q 259 359 261 325 q 251 430 257 393 q 235 496 246 467 q 204 525 224 525 q 161 505 183 525 q 117 453 139 485 q 73 385 94 422 q 31 311 51 347 l -26 351 q 40 467 6 406 q 117 583 75 529 q 208 672 158 636 q 318 707 257 707 q 381 684 356 707 q 422 624 406 661 q 499 683 454 660 q 603 707 544 707 q 694 676 665 707 q 722 603 722 644 q 710 551 722 576 q 678 506 697 526 q 633 474 658 486 q 582 463 608 463 q 554 469 561 463 q 547 483 547 476 q 556 493 553 486 q 559 507 560 500 q 551 519 558 514 q 529 525 544 525 q 501 517 514 525 q 480 499 489 510 q 466 474 471 488 q 463 449 461 461 q 474 363 468 404 q 487 289 479 321 q 507 238 494 257 q 539 218 519 218 q 594 233 569 218 q 641 274 619 249 q 681 331 663 299 q 719 396 700 363 z "},"y":{"ha":822,"x_min":-149,"x_max":869,"o":"m 814 706 q 869 669 869 706 q 809 610 833 656 q 753 485 785 564 q 742 460 747 471 q 731 430 738 449 q 712 381 724 411 q 681 300 700 351 q 631 172 661 249 q 558 -15 601 96 q 527 -100 544 -50 q 483 -206 510 -150 q 417 -315 456 -261 q 326 -413 379 -369 q 203 -484 274 -457 q 42 -511 133 -511 q -33 -497 1 -511 q -94 -458 -68 -482 q -134 -401 -119 -433 q -149 -333 -149 -369 q -119 -209 -149 -265 q -42 -112 -89 -153 q 61 -50 4 -72 q 174 -28 118 -28 q 246 -53 219 -28 q 272 -112 272 -78 q 260 -163 272 -139 q 231 -206 249 -187 q 190 -236 213 -225 q 147 -247 168 -247 q 118 -237 122 -247 q 115 -226 114 -232 q 131 -209 126 -221 q 135 -187 135 -197 q 127 -165 135 -178 q 100 -153 119 -153 q 61 -172 75 -153 q 47 -217 47 -192 q 67 -269 47 -244 q 131 -293 86 -293 q 240 -263 200 -293 q 299 -195 279 -233 q 326 -121 319 -157 q 336 -72 332 -85 q 378 53 350 -17 q 303 15 342 29 q 221 0 264 0 q 177 7 200 0 q 135 31 154 14 q 103 75 115 47 q 90 144 90 103 q 111 235 90 182 q 157 340 132 288 q 203 435 182 392 q 224 496 224 478 q 219 515 224 504 q 203 525 215 525 q 162 505 183 525 q 118 453 140 485 q 74 385 96 422 q 31 311 51 347 l -26 351 q 40 467 6 406 q 117 583 75 529 q 208 672 158 636 q 318 707 257 707 q 409 672 376 707 q 442 581 442 638 q 426 489 442 535 q 390 401 410 443 q 355 325 371 360 q 339 268 339 290 q 353 231 339 244 q 388 218 368 218 q 443 244 419 218 q 482 303 467 269 q 513 370 496 333 q 547 444 531 407 q 574 518 563 482 q 585 583 585 554 q 584 612 585 594 q 583 640 583 629 q 591 661 583 653 q 608 674 599 669 q 633 681 619 679 q 713 693 676 688 q 774 701 744 697 q 814 706 803 706 z "},"z":{"ha":672,"x_min":-61,"x_max":739,"o":"m 499 182 q 540 201 518 182 q 583 252 561 221 q 628 321 606 283 q 672 394 651 358 l 728 356 q 661 240 696 301 q 585 124 626 178 q 494 35 543 71 q 383 0 444 0 q 331 4 354 0 q 288 14 308 8 q 244 24 267 19 q 193 28 222 28 q 130 24 157 28 q 78 15 103 19 q 29 5 54 10 q -28 0 4 0 q -52 13 -43 0 q -61 39 -61 25 q -56 56 -61 46 q -40 82 -51 67 q 38 175 -11 119 q 139 291 86 231 q 242 409 192 351 q 325 508 292 467 q 270 520 297 515 q 215 525 243 525 q 165 505 189 525 q 117 453 140 485 q 72 385 94 422 q 29 311 50 347 l -26 351 q 40 467 6 406 q 117 583 75 529 q 208 672 158 636 q 318 707 257 707 q 421 693 375 707 q 510 679 467 679 q 560 683 539 679 q 601 693 582 688 q 639 703 619 699 q 685 707 658 707 q 701 706 692 707 q 718 701 710 706 q 733 690 726 697 q 739 671 739 683 q 690 633 711 656 q 647 588 669 611 q 576 511 614 554 q 497 422 538 468 q 417 330 457 376 q 343 242 378 283 q 391 226 371 236 q 428 207 411 217 q 461 190 444 197 q 499 182 478 182 z "},"d":{"ha":699,"x_min":-40,"x_max":850,"o":"m 850 992 q 782 917 810 976 q 714 756 754 858 q 692 701 708 742 q 653 608 675 661 q 608 494 632 554 q 564 383 583 435 q 531 293 544 331 q 518 247 518 256 q 522 228 518 239 q 539 218 526 218 q 580 233 560 218 q 619 272 600 247 q 658 328 639 296 q 699 396 678 360 l 756 356 q 688 240 724 301 q 612 124 653 178 q 522 35 571 71 q 411 0 472 0 q 333 23 364 0 q 292 86 303 46 q 221 24 260 49 q 133 0 182 0 q 64 15 96 0 q 9 58 32 31 q -27 124 -14 85 q -40 208 -40 163 q 5 408 -40 317 q 118 565 50 499 q 264 669 186 632 q 408 707 342 707 q 458 696 440 707 q 485 669 475 685 q 543 814 519 751 q 567 904 567 876 q 566 933 567 915 q 565 963 565 951 q 573 983 565 975 q 590 996 581 992 q 615 1003 601 1001 q 694 1015 658 1010 q 756 1025 726 1021 q 796 1029 785 1029 q 850 992 850 1029 m 226 218 q 296 251 268 218 q 339 324 324 283 q 367 396 351 360 q 397 471 382 432 q 383 508 394 492 q 346 525 372 525 q 269 503 303 525 q 214 449 236 482 q 180 376 192 415 q 168 304 168 338 q 185 242 168 265 q 226 218 203 218 z "},"":{"ha":332,"x_min":-496,"x_max":865,"o":"m 640 1214 q 727 1202 686 1214 q 799 1168 768 1190 q 847 1115 829 1146 q 865 1044 865 1083 q 840 933 865 985 q 772 842 815 881 q 667 782 728 804 q 535 760 606 760 q 450 769 493 760 q 363 796 407 779 q 317 683 343 747 q 263 550 290 618 q 223 450 243 500 q 187 357 203 400 q 161 285 171 314 q 151 247 151 256 q 156 228 151 239 q 172 218 160 218 q 213 233 193 218 q 253 271 233 247 q 292 326 272 294 q 332 394 311 358 l 388 356 q 321 240 356 301 q 244 124 286 178 q 153 35 203 71 q 43 0 104 0 q -48 35 -15 0 q -81 126 -81 71 q -58 240 -81 168 q -1 394 -35 311 q 39 494 17 442 q 81 594 61 547 q 115 674 101 640 q 133 715 129 707 q 160 785 144 744 q 199 871 175 826 q 93 924 146 897 q -11 973 40 951 q -111 1008 -62 994 q -206 1021 -160 1021 q -242 1016 -224 1021 q -274 1000 -260 1011 q -299 971 -289 989 q -308 926 -308 953 q -301 900 -308 917 q -268 883 -293 883 q -237 895 -249 883 q -226 926 -226 907 q -228 940 -226 933 q -233 949 -231 946 q -239 956 -236 953 q -235 967 -239 961 q -207 978 -226 978 q -156 956 -171 978 q -140 906 -140 935 q -157 849 -140 875 q -200 802 -174 822 q -258 770 -226 782 q -321 758 -290 758 q -448 806 -400 758 q -496 929 -496 853 q -467 1039 -496 992 q -392 1118 -437 1086 q -291 1166 -346 1150 q -185 1182 -236 1182 q -62 1168 -125 1182 q 62 1133 0 1154 q 185 1088 124 1113 q 304 1039 246 1063 q 369 1107 333 1075 q 446 1163 404 1139 q 536 1200 488 1186 q 640 1214 585 1214 m 568 972 q 628 986 610 972 q 646 1017 646 1000 q 628 1043 646 1036 q 586 1050 610 1050 q 519 1032 550 1050 q 465 986 489 1014 q 568 972 517 972 z "},"A":{"ha":1336,"x_min":42,"x_max":1488,"o":"m 1336 394 l 1393 356 q 1326 240 1361 301 q 1248 124 1290 178 q 1154 35 1206 71 q 1039 0 1103 0 q 942 35 981 0 q 903 126 903 69 q 916 206 903 158 q 950 311 929 253 q 879 313 907 313 q 833 313 851 313 q 805 313 815 313 q 786 313 794 313 q 688 158 742 232 q 567 28 635 85 q 414 -63 499 -29 q 221 -97 329 -97 q 150 -83 183 -97 q 93 -44 117 -68 q 56 13 69 -19 q 42 81 42 44 q 72 205 42 149 q 148 301 101 261 q 252 364 194 342 q 364 386 310 386 q 436 361 410 386 q 463 301 463 336 q 451 251 463 275 q 421 208 439 226 q 381 178 403 189 q 338 167 358 167 q 308 176 313 167 q 306 188 304 182 q 322 205 318 193 q 325 226 325 217 q 317 249 325 236 q 290 261 310 261 q 249 239 264 261 q 237 191 235 217 q 260 143 239 165 q 322 121 281 121 q 434 160 383 121 q 530 263 485 199 q 618 408 575 326 q 706 575 661 490 q 802 742 751 660 q 915 888 853 824 q 817 893 871 890 q 689 896 763 896 q 647 889 668 896 q 609 869 626 882 q 581 839 592 857 q 571 797 571 821 q 581 767 571 778 q 607 757 592 757 q 640 772 626 757 q 653 806 653 786 q 647 825 653 817 q 642 831 644 829 q 644 842 640 836 q 653 849 647 846 q 672 853 660 853 q 700 844 689 853 q 719 822 711 835 q 730 792 726 808 q 733 758 733 775 q 715 676 733 715 q 667 606 697 636 q 597 556 636 575 q 514 538 557 538 q 413 581 451 538 q 375 692 375 625 q 406 826 375 761 q 489 943 436 892 q 614 1025 542 994 q 768 1056 686 1056 q 884 1052 835 1056 q 981 1044 933 1049 q 1079 1036 1028 1040 q 1200 1029 1131 1032 l 1436 1029 q 1488 992 1488 1028 q 1419 917 1447 976 q 1351 756 1392 858 q 1329 701 1346 742 q 1290 608 1313 661 q 1244 494 1268 554 q 1201 383 1221 435 q 1169 293 1182 331 q 1156 247 1156 256 q 1160 228 1156 239 q 1176 218 1164 218 q 1217 233 1197 218 q 1257 271 1238 247 q 1296 326 1276 294 q 1336 394 1315 358 m 858 454 q 947 455 911 454 q 1007 456 983 456 q 1055 567 1031 511 q 1101 673 1079 622 q 1141 768 1124 724 q 1169 846 1158 813 q 1077 814 1118 846 q 999 728 1036 782 q 929 603 963 674 q 858 454 896 532 z "},"B":{"ha":1436,"x_min":40,"x_max":1318,"o":"m 1165 563 q 1275 492 1232 538 q 1318 369 1318 446 q 1278 201 1318 275 q 1167 76 1239 126 q 997 -2 1096 25 q 776 -29 897 -29 q 630 -8 685 -29 q 547 35 575 14 q 410 -60 490 -22 q 219 -97 331 -97 q 149 -83 182 -97 q 92 -44 115 -68 q 54 13 68 -19 q 40 81 40 44 q 70 205 40 149 q 147 301 100 261 q 251 364 193 342 q 363 386 308 386 q 435 361 408 386 q 461 301 461 336 q 449 251 461 275 q 420 208 438 226 q 381 178 403 189 q 338 167 358 167 q 316 169 322 167 q 307 176 310 172 q 304 188 303 182 q 320 205 317 193 q 324 226 324 217 q 316 249 324 236 q 289 261 308 261 q 248 239 263 261 q 235 191 233 217 q 258 143 238 165 q 321 121 279 121 q 427 158 383 121 q 492 244 471 196 q 508 294 503 269 q 517 342 514 319 q 523 384 521 365 q 531 414 525 403 q 538 431 531 415 q 557 473 546 447 q 581 531 568 499 q 608 597 594 564 q 632 667 624 638 q 640 711 640 696 q 640 740 640 722 q 639 769 639 758 q 647 790 639 782 q 664 803 654 799 q 689 810 675 808 q 779 822 738 817 q 847 831 815 826 q 890 835 879 835 q 946 799 946 835 q 883 733 908 783 q 822 596 857 683 q 910 613 868 599 q 984 650 951 628 q 1036 701 1017 672 q 1056 764 1056 731 q 994 853 1056 831 q 804 876 933 876 q 642 863 713 876 q 525 830 572 850 q 453 785 478 810 q 429 736 429 760 q 440 707 429 717 q 465 697 450 697 q 499 711 486 697 q 511 746 511 725 q 506 765 511 757 q 501 771 503 769 q 504 781 500 775 q 531 792 510 792 q 559 783 547 792 q 578 760 571 774 q 590 731 586 747 q 593 699 593 714 q 574 615 593 656 q 525 544 556 575 q 455 496 494 514 q 372 478 415 478 q 272 522 311 478 q 233 632 233 565 q 249 727 233 678 q 297 824 264 776 q 381 913 329 871 q 506 988 432 956 q 676 1038 579 1019 q 896 1057 774 1057 q 1050 1041 979 1057 q 1172 993 1121 1025 q 1251 913 1222 961 q 1279 800 1279 864 q 1249 671 1279 731 q 1165 563 1218 611 m 847 189 q 947 200 901 189 q 1025 231 992 211 q 1076 278 1058 251 q 1094 333 1094 304 q 1068 385 1094 367 q 1003 410 1042 403 q 921 417 965 417 q 842 418 876 418 l 803 418 q 777 416 790 417 q 751 415 764 415 q 737 380 742 393 q 731 365 732 367 q 713 313 725 351 q 678 225 701 275 q 744 199 703 210 q 847 189 785 189 z "},"C":{"ha":1064,"x_min":119,"x_max":1121,"o":"m 1064 396 l 1121 357 q 1087 297 1108 333 q 1030 217 1065 260 q 944 130 994 174 q 826 51 894 86 q 669 -6 758 17 q 467 -28 579 -28 q 323 -6 388 -28 q 213 55 258 15 q 144 150 168 94 q 119 272 119 206 q 153 479 119 379 q 242 667 186 579 q 374 826 299 754 q 535 949 450 897 q 709 1028 619 1000 q 882 1057 799 1057 q 975 1042 933 1057 q 1044 1001 1017 1026 q 1088 940 1072 975 q 1103 868 1103 906 q 1070 763 1103 810 q 990 681 1038 715 q 885 629 942 647 q 782 611 829 611 q 711 634 740 611 q 682 693 682 657 q 692 741 682 717 q 719 785 703 765 q 758 818 736 806 q 804 831 781 831 q 826 827 819 831 q 836 821 833 824 q 839 811 840 815 q 823 792 828 804 q 820 767 818 779 q 832 745 822 754 q 858 736 842 736 q 895 756 882 736 q 908 803 908 776 q 886 853 908 831 q 819 876 864 876 q 730 855 779 876 q 631 797 681 833 q 534 710 581 760 q 451 604 488 661 q 393 487 415 547 q 371 368 371 426 q 428 238 371 288 q 599 189 486 189 q 877 240 753 189 q 1064 396 1001 292 z "},"D":{"ha":1394,"x_min":40,"x_max":1325,"o":"m 851 1057 q 1071 1018 981 1057 q 1217 916 1161 979 q 1299 773 1274 853 q 1325 610 1325 693 q 1313 494 1325 560 q 1274 357 1301 428 q 1199 217 1246 286 q 1080 92 1151 147 q 910 4 1008 38 q 683 -29 813 -29 q 587 -14 622 -29 q 532 19 551 1 q 400 -64 476 -31 q 219 -97 324 -97 q 149 -83 182 -97 q 92 -44 115 -68 q 54 13 68 -19 q 40 81 40 44 q 70 205 40 149 q 147 301 100 261 q 251 364 193 342 q 363 386 308 386 q 436 361 410 386 q 463 301 463 336 q 451 251 463 275 q 421 208 439 226 q 381 178 403 189 q 338 167 358 167 q 307 176 311 167 q 306 188 304 182 q 320 205 317 193 q 324 226 324 217 q 316 249 324 236 q 289 261 308 261 q 249 239 263 261 q 237 191 235 217 q 259 143 239 165 q 321 121 279 121 q 428 158 383 121 q 493 244 472 196 q 509 294 504 269 q 517 342 514 319 q 524 384 521 365 q 532 414 526 403 q 576 519 560 482 q 599 574 592 556 l 608 597 q 633 667 624 638 q 642 711 642 696 q 641 740 642 722 q 640 769 640 758 q 647 790 640 782 q 664 803 654 799 q 689 810 675 808 q 779 822 738 817 q 848 831 815 826 q 892 835 881 835 q 947 799 947 835 q 912 773 928 790 q 881 728 896 756 q 851 665 867 701 q 817 581 835 628 q 783 483 800 526 q 748 399 765 440 q 712 314 731 358 q 672 214 693 269 q 707 196 688 203 q 750 189 726 189 q 908 228 842 189 q 1017 328 975 267 q 1081 463 1060 389 q 1101 610 1101 538 q 1085 717 1101 668 q 1034 802 1069 767 q 943 857 999 838 q 810 876 888 876 q 636 863 708 876 q 518 830 564 850 q 451 785 472 810 q 429 736 429 760 q 440 707 429 717 q 467 697 451 697 q 499 711 486 697 q 513 746 513 725 q 507 765 513 757 q 501 771 504 769 q 504 781 500 775 q 531 792 510 792 q 559 783 547 792 q 578 760 571 774 q 590 731 586 747 q 593 699 593 714 q 575 615 593 656 q 526 544 557 575 q 456 496 496 514 q 374 478 417 478 q 273 522 311 478 q 235 632 235 565 q 247 727 235 678 q 288 824 260 776 q 363 913 317 871 q 478 988 410 956 q 640 1038 547 1019 q 851 1057 732 1057 z "},"E":{"ha":1031,"x_min":86,"x_max":1088,"o":"m 569 189 q 851 240 733 189 q 1031 396 968 292 l 1088 357 q 1053 297 1075 333 q 997 217 1032 260 q 911 130 961 174 q 793 51 861 86 q 635 -6 725 17 q 433 -28 546 -28 q 290 -14 354 -28 q 180 28 225 0 q 110 102 135 57 q 86 210 86 147 q 115 315 86 265 q 186 403 144 364 q 275 472 228 443 q 358 513 322 500 q 291 581 318 536 q 264 676 264 626 q 296 786 264 735 q 378 880 328 838 q 494 955 429 922 q 623 1010 558 988 q 747 1045 688 1033 q 849 1057 807 1057 q 942 1042 900 1057 q 1011 1001 983 1026 q 1054 940 1039 975 q 1069 868 1069 906 q 1037 763 1069 810 q 956 681 1004 715 q 853 629 908 647 q 750 611 797 611 q 678 634 707 611 q 649 693 649 657 q 659 741 649 717 q 686 785 669 765 q 725 818 703 806 q 771 831 747 831 q 793 827 786 831 q 803 821 800 824 q 806 811 807 815 q 790 792 794 804 q 787 767 785 779 q 799 745 789 754 q 825 736 808 736 q 862 756 849 736 q 875 803 875 776 q 853 853 875 831 q 786 876 831 876 q 708 860 756 876 q 615 817 660 844 q 537 753 569 790 q 504 674 504 717 q 528 617 504 636 q 588 596 551 599 q 611 597 603 597 q 621 597 619 597 q 653 603 642 600 q 672 604 664 607 q 681 579 688 596 q 669 550 676 569 q 653 510 661 531 q 638 471 644 489 q 628 447 631 453 q 618 438 625 442 q 604 436 611 433 l 575 449 q 553 450 574 450 q 489 438 524 450 q 424 403 454 425 q 374 353 394 382 q 354 294 354 325 q 369 242 354 263 q 413 210 385 222 q 481 194 440 199 q 569 189 521 189 z "},"F":{"ha":1061,"x_min":33,"x_max":1499,"o":"m 1111 774 q 1001 780 1056 774 q 894 796 947 786 l 794 540 q 852 541 825 540 q 900 542 879 542 q 933 544 921 543 q 947 544 946 544 q 978 550 967 547 q 997 550 989 553 q 1007 525 1014 543 q 994 496 1003 515 q 978 456 986 476 q 963 417 969 435 q 954 393 956 399 q 944 385 951 389 q 929 383 936 381 q 900 396 917 388 q 858 398 897 397 q 763 400 818 399 l 738 400 q 724 365 724 365 q 706 312 718 351 q 669 221 693 272 q 607 113 644 169 q 515 10 569 57 q 385 -67 460 -36 q 213 -97 311 -97 q 142 -83 175 -97 q 85 -44 108 -68 q 47 13 61 -19 q 33 81 33 44 q 63 205 33 149 q 140 301 93 261 q 244 364 186 342 q 356 386 301 386 q 428 361 403 386 q 454 301 454 336 q 442 251 454 275 q 413 208 431 226 q 374 178 396 189 q 331 167 351 167 q 309 169 315 167 q 300 176 303 172 q 297 188 296 182 q 313 205 310 193 q 317 226 317 217 q 309 249 317 236 q 282 261 301 261 q 241 239 256 261 q 228 191 226 217 q 251 143 231 165 q 314 121 272 121 q 420 158 376 121 q 485 244 464 196 q 501 294 496 269 q 510 342 507 319 q 516 384 514 365 q 524 414 518 403 q 542 458 525 415 q 585 564 560 501 q 640 699 611 626 q 694 833 669 771 q 617 844 656 840 q 543 847 579 847 q 501 840 522 847 q 462 821 479 833 q 434 790 444 808 q 424 749 424 771 q 435 719 424 729 q 461 708 446 708 q 494 723 481 708 q 507 757 507 738 q 501 776 507 768 q 496 782 499 781 q 499 792 494 786 q 525 803 504 803 q 553 794 542 803 q 573 772 565 785 q 584 742 581 758 q 588 710 588 725 q 569 626 588 667 q 521 556 551 586 q 451 507 490 525 q 368 489 411 489 q 267 533 306 489 q 229 643 229 576 q 260 781 229 713 q 347 906 292 850 q 475 995 401 961 q 631 1029 549 1029 q 762 1017 689 1029 q 910 992 835 1006 q 1056 967 985 979 q 1185 956 1128 956 q 1227 963 1206 956 q 1265 982 1249 969 q 1293 1013 1282 994 q 1304 1054 1304 1031 q 1293 1084 1304 1074 q 1267 1094 1282 1094 q 1234 1080 1247 1094 q 1221 1046 1221 1065 q 1226 1026 1221 1035 q 1232 1021 1229 1022 q 1229 1010 1232 1015 q 1203 1000 1222 1000 q 1156 1022 1171 1000 q 1140 1075 1140 1044 q 1159 1147 1140 1113 q 1208 1206 1178 1181 q 1278 1245 1239 1231 q 1358 1260 1318 1260 q 1462 1219 1425 1260 q 1499 1119 1499 1179 q 1472 1006 1499 1067 q 1396 893 1446 944 q 1274 808 1346 842 q 1111 774 1203 774 z "},"G":{"ha":1181,"x_min":126,"x_max":1153,"o":"m 889 811 q 873 792 878 804 q 870 767 868 779 q 882 745 872 754 q 908 736 892 736 q 945 756 932 736 q 958 803 958 776 q 936 853 958 831 q 869 876 914 876 q 772 856 825 876 q 665 799 719 835 q 560 713 611 763 q 469 608 508 664 q 405 493 429 553 q 381 375 381 433 q 428 259 381 300 q 560 218 476 218 q 662 235 614 218 q 746 277 710 251 q 804 333 782 303 q 826 390 826 363 q 824 417 825 403 q 824 442 824 432 q 831 463 824 454 q 849 475 839 471 q 874 482 860 481 q 964 494 922 489 q 1033 504 1000 500 q 1076 508 1065 508 q 1131 471 1131 508 q 1076 419 1099 458 q 1025 313 1053 379 q 918 41 953 128 q 882 -49 883 -46 q 864 -102 876 -62 q 827 -193 851 -142 q 765 -301 803 -244 q 673 -403 728 -357 q 543 -481 618 -450 q 369 -511 468 -511 q 299 -497 332 -511 q 242 -458 267 -482 q 205 -401 218 -433 q 192 -332 192 -368 q 222 -209 192 -265 q 298 -112 251 -153 q 402 -50 344 -72 q 514 -28 460 -28 q 586 -53 560 -28 q 613 -112 613 -78 q 601 -163 613 -139 q 571 -206 589 -187 q 531 -236 553 -225 q 488 -247 508 -247 q 458 -237 463 -247 q 456 -228 454 -233 q 471 -209 467 -221 q 475 -187 475 -197 q 467 -165 475 -178 q 440 -153 460 -153 q 399 -175 414 -153 q 387 -223 385 -197 q 409 -271 389 -249 q 471 -293 429 -293 q 578 -256 535 -293 q 643 -169 622 -218 q 659 -119 654 -144 q 667 -72 664 -94 q 674 -30 671 -49 q 682 0 676 -11 l 722 94 q 590 27 667 54 q 414 0 514 0 q 294 22 347 0 q 203 83 240 43 q 146 178 165 122 q 126 300 126 233 q 163 505 126 407 q 260 687 199 603 q 403 840 322 771 q 573 956 483 908 q 755 1031 663 1004 q 932 1057 847 1057 q 1024 1042 983 1057 q 1094 1001 1065 1026 q 1138 940 1122 975 q 1153 868 1153 906 q 1120 763 1153 810 q 1040 681 1088 715 q 935 629 992 647 q 832 611 879 611 q 760 634 789 611 q 732 693 732 657 q 742 741 732 717 q 769 785 753 765 q 808 818 786 806 q 854 831 831 831 q 876 827 869 831 q 886 821 883 824 q 889 811 890 815 z "},"H":{"ha":1308,"x_min":40,"x_max":1460,"o":"m 1460 992 q 1391 917 1418 976 q 1322 756 1364 858 q 1300 701 1317 742 q 1262 608 1283 661 q 1217 494 1240 554 q 1174 383 1193 435 q 1141 293 1154 331 q 1128 247 1128 256 q 1132 228 1128 239 q 1149 218 1136 218 q 1190 233 1169 218 q 1229 271 1210 247 q 1268 326 1249 294 q 1308 394 1288 358 l 1364 356 q 1297 240 1332 301 q 1219 124 1261 178 q 1126 35 1176 71 q 1011 0 1075 0 q 913 35 953 0 q 874 126 874 69 q 882 185 874 150 q 903 260 890 219 q 935 348 917 301 q 974 443 953 394 q 928 443 960 443 q 863 443 897 443 q 800 443 829 443 q 761 443 771 443 q 739 387 747 407 q 731 365 731 367 q 713 312 725 351 q 676 221 700 272 q 614 113 651 169 q 522 10 576 57 q 392 -67 467 -36 q 218 -97 317 -97 q 148 -83 181 -97 q 91 -44 115 -68 q 53 13 67 -19 q 40 81 40 44 q 70 205 40 149 q 147 301 100 261 q 250 364 193 342 q 363 386 307 386 q 435 361 408 386 q 461 301 461 336 q 449 251 461 275 q 419 208 438 226 q 379 178 401 189 q 336 167 357 167 q 307 176 311 167 q 304 188 303 182 q 319 205 315 193 q 324 226 324 217 q 316 249 324 236 q 289 261 308 261 q 248 239 263 261 q 235 191 233 217 q 258 143 238 165 q 319 121 278 121 q 427 158 383 121 q 492 244 471 196 q 508 294 503 269 q 516 342 513 319 q 522 384 519 365 q 531 414 525 403 q 540 437 531 415 q 563 493 549 458 q 596 572 578 528 q 633 665 614 617 q 672 760 653 713 q 707 849 690 808 q 638 862 671 856 q 556 868 604 868 q 513 861 535 868 q 475 842 492 854 q 447 810 458 829 q 436 769 436 792 q 447 740 436 750 q 474 729 458 729 q 506 744 493 729 q 519 778 519 758 q 514 797 519 789 q 508 803 511 801 q 511 813 507 807 q 538 824 517 824 q 566 815 554 824 q 585 793 578 807 q 597 763 593 779 q 600 731 600 747 q 582 647 600 688 q 533 576 564 607 q 463 528 503 546 q 381 510 424 510 q 280 553 318 510 q 242 664 242 597 q 272 799 242 733 q 354 916 301 865 q 478 998 407 967 q 632 1029 550 1029 q 738 1015 692 1029 q 824 1001 785 1001 q 867 1006 849 1001 q 901 1015 885 1010 q 932 1025 917 1021 q 965 1029 947 1029 q 1021 992 1021 1029 q 969 943 993 981 q 929 868 944 906 l 818 588 q 910 585 860 586 q 1035 585 960 585 q 1080 690 1058 639 q 1118 782 1101 740 q 1144 856 1135 824 q 1154 904 1154 888 q 1153 933 1154 915 q 1153 963 1153 951 q 1160 983 1153 975 q 1178 996 1168 992 q 1203 1003 1189 1001 q 1292 1015 1250 1010 q 1360 1025 1326 1021 q 1404 1029 1393 1029 q 1460 992 1460 1029 z "},"I":{"ha":854,"x_min":40,"x_max":1021,"o":"m 929 868 q 889 766 911 821 q 845 656 867 711 q 803 549 824 601 q 766 457 782 497 q 740 392 750 417 q 731 365 731 367 q 713 312 725 351 q 676 221 700 272 q 614 113 651 169 q 521 10 576 57 q 391 -67 465 -36 q 218 -97 317 -97 q 148 -83 181 -97 q 91 -44 115 -68 q 53 13 67 -19 q 40 81 40 44 q 70 205 40 149 q 147 301 100 261 q 250 364 193 342 q 361 386 307 386 q 435 361 408 386 q 461 301 461 336 q 449 251 461 275 q 419 208 438 226 q 379 178 401 189 q 336 167 357 167 q 307 176 311 167 q 304 188 303 182 q 319 205 315 193 q 324 226 324 217 q 315 249 324 236 q 288 261 307 261 q 247 239 261 261 q 235 191 233 217 q 258 143 238 165 q 319 121 278 121 q 426 158 382 121 q 492 244 471 196 q 508 294 503 269 q 516 342 513 319 q 522 384 519 365 q 531 414 525 403 q 540 437 531 415 q 563 493 549 458 q 596 572 578 528 q 633 665 614 617 q 672 760 653 713 q 707 849 690 808 q 638 862 671 856 q 556 868 604 868 q 513 861 535 868 q 474 842 492 854 q 447 810 457 829 q 436 769 436 792 q 447 740 436 750 q 474 729 458 729 q 506 744 493 729 q 519 778 519 758 q 514 797 519 789 q 508 803 511 801 q 511 813 507 807 q 538 824 517 824 q 566 815 554 824 q 585 793 578 807 q 597 763 593 779 q 600 731 600 747 q 582 647 600 688 q 533 576 564 607 q 463 528 503 546 q 381 510 424 510 q 280 553 318 510 q 242 664 242 597 q 272 799 242 733 q 354 916 301 865 q 478 998 407 967 q 632 1029 550 1029 q 738 1015 692 1029 q 824 1001 785 1001 q 867 1006 849 1001 q 900 1015 885 1010 q 931 1025 915 1021 q 965 1029 946 1029 q 1021 992 1021 1029 q 969 943 993 981 q 929 868 944 906 z "},"J":{"ha":769,"x_min":-208,"x_max":936,"o":"m 844 868 q 781 707 818 800 q 704 513 744 614 q 624 312 664 411 q 553 133 585 213 q 502 3 522 53 q 482 -47 482 -46 q 464 -101 476 -61 q 428 -192 451 -140 q 366 -299 404 -243 q 273 -402 328 -356 q 144 -479 218 -449 q -29 -510 69 -510 q -100 -495 -67 -510 q -157 -456 -133 -481 q -194 -400 -181 -432 q -208 -332 -208 -368 q -178 -208 -208 -264 q -102 -111 -149 -151 q 2 -49 -56 -71 q 114 -26 60 -26 q 188 -51 161 -26 q 214 -111 214 -76 q 202 -162 214 -137 q 172 -205 190 -186 q 132 -235 154 -224 q 89 -247 110 -247 q 58 -237 63 -247 q 57 -226 56 -232 q 72 -208 68 -219 q 75 -187 75 -196 q 67 -165 75 -178 q 40 -151 60 -151 q 0 -174 14 -151 q -12 -222 -14 -196 q 10 -269 -10 -247 q 72 -292 31 -292 q 179 -254 135 -292 q 244 -169 224 -217 q 260 -119 256 -144 q 269 -70 265 -93 q 275 -29 272 -47 q 283 1 278 -11 q 302 48 283 3 q 350 166 321 93 q 416 331 379 239 q 490 516 453 422 q 563 697 528 610 q 622 849 597 783 q 553 862 586 856 q 471 868 519 868 q 428 861 450 868 q 390 842 407 854 q 363 810 374 829 q 351 769 351 792 q 363 740 351 750 q 389 729 374 729 q 422 744 408 729 q 435 778 435 758 q 429 797 435 789 q 424 803 426 801 q 426 813 422 807 q 453 824 432 824 q 481 815 469 824 q 501 793 493 807 q 512 763 508 779 q 515 731 515 747 q 497 647 515 688 q 449 576 479 607 q 378 528 418 546 q 296 510 339 510 q 195 553 233 510 q 157 664 157 597 q 187 799 157 733 q 269 916 217 865 q 394 998 322 967 q 547 1029 465 1029 q 653 1015 607 1029 q 739 1001 700 1001 q 782 1006 764 1001 q 815 1015 800 1010 q 846 1025 831 1021 q 881 1029 861 1029 q 936 992 936 1029 q 884 943 908 981 q 844 868 860 906 z "},"K":{"ha":1403,"x_min":40,"x_max":1464,"o":"m 1236 739 q 1259 766 1254 749 q 1264 796 1264 783 q 1253 828 1264 810 q 1214 847 1242 847 q 1181 829 1194 847 q 1153 783 1167 811 q 1122 722 1139 756 q 1078 656 1104 688 q 1008 567 1040 608 q 939 492 976 525 q 1003 416 972 463 q 1065 326 1033 369 q 1129 250 1096 282 q 1199 218 1163 218 q 1268 233 1239 218 q 1321 273 1297 249 q 1364 329 1344 297 q 1403 394 1383 361 l 1458 356 q 1385 229 1421 293 q 1309 115 1350 165 q 1217 32 1268 64 q 1100 0 1167 0 q 1019 23 1057 0 q 947 81 981 46 q 883 160 913 117 q 828 245 854 204 q 778 321 801 286 q 733 372 754 356 q 731 365 731 365 q 713 312 725 351 q 676 221 700 272 q 614 113 651 169 q 522 10 576 57 q 392 -67 467 -36 q 219 -97 318 -97 q 149 -83 182 -97 q 92 -44 115 -68 q 54 13 68 -19 q 40 81 40 44 q 70 205 40 149 q 147 301 100 261 q 251 364 193 342 q 363 386 308 386 q 436 361 410 386 q 463 301 463 336 q 451 251 463 275 q 421 208 439 226 q 381 178 403 189 q 338 167 358 167 q 307 176 311 167 q 306 188 304 182 q 320 205 317 193 q 324 226 324 217 q 316 249 324 236 q 289 261 308 261 q 249 239 263 261 q 237 191 235 217 q 259 143 239 165 q 321 121 279 121 q 428 158 383 121 q 493 244 472 196 q 509 294 504 269 q 517 342 514 319 q 524 384 521 365 q 532 414 526 403 q 541 437 532 415 q 564 493 550 458 q 596 572 578 528 q 633 665 614 617 q 672 760 653 713 q 707 849 690 808 q 639 862 672 856 q 557 868 606 868 q 515 861 536 868 q 476 842 493 854 q 448 810 458 829 q 438 769 438 792 q 448 740 438 750 q 474 729 458 729 q 508 744 494 729 q 521 778 521 758 q 515 797 521 789 q 510 803 513 801 q 513 813 508 807 q 539 824 518 824 q 567 815 556 824 q 587 793 579 807 q 598 763 594 779 q 601 731 601 747 q 583 647 601 688 q 535 576 565 607 q 464 528 504 546 q 381 510 424 510 q 281 553 319 510 q 242 664 242 597 q 272 799 242 733 q 356 916 303 865 q 480 998 408 967 q 633 1029 551 1029 q 740 1015 693 1029 q 825 1001 786 1001 q 868 1006 850 1001 q 901 1015 886 1010 q 932 1025 917 1021 q 965 1029 947 1029 q 1021 992 1021 1029 q 969 943 993 981 q 929 868 944 906 l 828 610 q 885 682 856 639 q 947 772 914 725 q 1019 864 981 818 q 1104 947 1058 910 q 1203 1006 1150 983 q 1321 1029 1257 1029 q 1426 992 1388 1029 q 1464 906 1464 956 q 1447 833 1464 868 q 1404 770 1431 797 q 1346 726 1378 743 q 1283 710 1314 710 q 1253 714 1263 710 q 1239 724 1243 718 q 1236 739 1233 729 z "},"L":{"ha":1413,"x_min":54,"x_max":1301,"o":"m 1163 364 q 1265 323 1229 364 q 1301 228 1301 282 q 1274 103 1301 163 q 1196 -2 1246 43 q 1076 -74 1146 -47 q 925 -101 1007 -101 q 817 -81 871 -101 q 712 -27 763 -60 q 613 46 661 6 q 522 125 565 86 q 395 16 469 60 q 219 -28 321 -28 q 98 14 142 -28 q 54 118 54 56 q 79 241 54 183 q 148 341 104 299 q 250 408 192 383 q 376 432 308 432 q 453 417 411 432 q 501 533 476 472 q 547 643 526 593 q 582 725 568 693 q 596 757 596 757 q 678 879 626 824 q 789 974 731 935 q 906 1035 847 1014 q 1011 1057 965 1057 q 1116 1020 1078 1057 q 1154 935 1154 983 q 1138 860 1154 896 q 1094 798 1121 825 q 1036 754 1068 771 q 974 738 1004 738 q 943 742 953 738 q 929 753 933 746 q 926 768 924 758 q 949 794 944 776 q 954 825 954 811 q 943 857 954 839 q 904 875 932 875 q 853 846 871 875 q 817 776 835 817 q 808 753 817 776 q 785 695 799 731 q 754 618 771 660 q 723 538 738 576 q 697 472 708 500 q 683 435 686 443 q 660 378 672 410 q 632 310 649 346 q 738 225 686 269 q 838 144 790 181 q 926 83 885 107 q 1001 60 968 60 q 1074 85 1043 60 q 1106 158 1106 111 q 1095 188 1106 178 q 1069 199 1085 199 q 1035 184 1049 199 q 1022 150 1022 169 q 1028 131 1022 139 q 1033 125 1031 126 q 1031 114 1033 119 q 1004 104 1024 104 q 956 126 971 104 q 942 179 942 149 q 960 253 942 219 q 1008 312 978 288 q 1079 350 1039 336 q 1163 364 1119 364 m 293 190 q 340 206 319 190 q 376 246 361 222 q 342 264 358 257 q 311 271 326 271 q 268 256 282 271 q 254 222 254 242 q 266 197 254 203 q 293 190 278 190 z "},"M":{"ha":1478,"x_min":54,"x_max":1629,"o":"m 1317 218 q 1359 233 1339 218 q 1399 272 1379 247 q 1438 328 1418 296 q 1478 396 1457 360 l 1533 356 q 1466 240 1501 301 q 1388 124 1431 178 q 1295 35 1346 71 q 1181 0 1244 0 q 1083 35 1122 0 q 1043 126 1043 69 q 1055 200 1043 156 q 1086 297 1067 244 q 1130 410 1106 350 q 1181 531 1154 469 q 1122 432 1156 489 q 1050 324 1089 375 q 967 236 1011 272 q 876 200 924 200 q 832 218 850 200 q 801 267 814 236 q 782 340 789 299 q 771 428 775 382 q 753 383 760 400 q 744 365 746 367 q 726 312 739 351 q 690 221 714 272 q 628 113 665 169 q 535 10 590 57 q 406 -67 481 -36 q 233 -97 332 -97 q 163 -83 196 -97 q 106 -44 129 -68 q 68 13 82 -19 q 54 82 54 46 q 84 205 54 149 q 160 301 114 261 q 265 364 207 342 q 376 386 322 386 q 449 361 424 386 q 475 301 475 336 q 463 251 475 275 q 434 208 451 226 q 394 178 417 189 q 351 167 372 167 q 321 176 325 167 q 319 186 318 181 q 334 205 331 193 q 338 226 338 217 q 330 249 338 236 q 303 261 322 261 q 262 239 276 261 q 249 191 247 217 q 272 143 251 165 q 335 121 293 121 q 442 158 397 121 q 507 244 486 196 q 523 294 518 269 q 531 342 528 319 q 538 384 535 365 q 546 414 540 403 q 564 456 547 417 q 603 550 581 496 q 649 663 626 604 q 688 760 672 721 q 653 837 679 806 q 571 868 626 868 q 528 861 550 868 q 490 842 507 854 q 462 810 472 829 q 451 769 451 792 q 462 740 451 750 q 488 729 472 729 q 522 744 508 729 q 535 778 535 758 q 529 797 535 789 q 524 803 526 801 q 526 813 522 807 q 553 824 532 824 q 581 815 569 824 q 601 792 593 806 q 612 763 608 779 q 615 731 615 746 q 597 647 615 688 q 549 576 579 607 q 478 528 518 546 q 394 510 438 510 q 294 553 333 510 q 256 664 256 597 q 286 799 256 733 q 370 916 317 865 q 497 998 424 967 q 653 1029 569 1029 q 826 983 761 1029 q 925 868 890 938 q 972 717 960 799 q 989 564 985 635 q 1080 722 1028 639 q 1202 872 1132 804 q 1363 985 1272 940 q 1574 1029 1454 1029 q 1629 992 1629 1029 q 1560 917 1588 976 q 1492 756 1532 858 q 1469 701 1486 742 q 1431 608 1453 661 q 1386 494 1410 554 q 1343 383 1363 435 q 1310 293 1324 331 q 1297 247 1297 256 q 1301 228 1297 239 q 1317 218 1306 218 z "},"N":{"ha":1308,"x_min":40,"x_max":1460,"o":"m 1460 992 q 1392 917 1419 976 q 1324 756 1364 858 q 1301 701 1318 742 q 1263 608 1285 661 q 1217 494 1240 554 q 1174 383 1193 435 q 1141 294 1154 332 q 1128 247 1128 257 q 1132 228 1128 239 q 1149 218 1136 218 q 1190 233 1169 218 q 1229 272 1210 247 q 1268 328 1249 296 q 1308 396 1288 360 l 1365 356 q 1298 240 1333 301 q 1219 124 1263 178 q 1126 35 1176 71 q 1011 0 1075 0 q 989 1 1000 0 q 968 6 978 3 q 885 63 918 19 q 830 167 851 106 q 794 302 808 228 q 767 453 779 376 q 742 392 751 415 q 731 365 732 368 q 713 312 725 351 q 676 221 700 272 q 614 113 651 169 q 522 10 576 57 q 392 -67 467 -36 q 219 -97 318 -97 q 149 -83 182 -97 q 92 -44 115 -68 q 54 13 68 -19 q 40 81 40 44 q 70 205 40 149 q 147 301 100 261 q 251 364 193 342 q 363 386 308 386 q 435 361 408 386 q 461 301 461 336 q 449 251 461 275 q 419 208 438 226 q 379 178 401 189 q 336 167 357 167 q 307 176 311 167 q 304 186 303 181 q 320 205 317 193 q 324 226 324 217 q 316 249 324 236 q 289 261 308 261 q 248 239 263 261 q 235 191 233 217 q 258 143 238 165 q 321 121 279 121 q 427 158 383 121 q 492 244 471 196 q 508 294 503 269 q 517 342 514 319 q 523 384 521 365 q 531 414 525 403 q 549 456 532 417 q 588 551 565 496 q 635 663 611 606 q 674 761 658 721 q 631 838 660 807 q 554 868 603 868 q 472 842 506 868 q 438 769 438 815 q 448 740 438 750 q 474 729 458 729 q 507 744 494 729 q 519 778 519 758 q 514 797 519 789 q 510 803 511 801 q 513 813 508 807 q 539 824 518 824 q 567 815 556 824 q 587 792 579 806 q 598 763 594 779 q 601 731 601 746 q 583 647 601 688 q 533 576 564 607 q 463 528 503 546 q 381 510 424 510 q 281 553 319 510 q 242 664 242 597 q 269 798 242 732 q 349 915 297 864 q 474 998 401 967 q 635 1029 546 1029 q 751 1007 701 1029 q 839 945 801 985 q 902 853 876 906 q 946 742 928 801 q 975 619 964 683 q 996 494 986 556 q 1053 626 1025 561 q 1103 746 1081 690 q 1140 843 1126 801 q 1154 904 1154 885 q 1153 933 1154 915 q 1153 963 1153 951 q 1160 983 1153 975 q 1178 996 1168 992 q 1203 1003 1189 1001 q 1293 1015 1251 1010 q 1361 1025 1329 1021 q 1404 1029 1393 1029 q 1460 992 1460 1029 z "},"O":{"ha":1182,"x_min":114,"x_max":1168,"o":"m 882 1057 q 1005 1032 951 1057 q 1094 964 1058 1007 q 1149 864 1131 921 q 1168 743 1168 807 q 1140 570 1168 660 q 1063 394 1113 481 q 945 231 1014 308 q 794 97 876 154 q 618 5 711 39 q 426 -29 525 -29 q 304 -3 361 -29 q 205 67 247 22 q 138 175 163 113 q 114 311 114 238 q 147 506 114 411 q 235 683 179 600 q 367 835 292 767 q 526 953 442 904 q 703 1030 611 1003 q 882 1057 794 1057 m 503 190 q 601 217 551 190 q 697 290 651 244 q 784 392 743 335 q 855 512 825 450 q 902 634 885 574 q 919 744 919 694 q 890 858 919 819 q 813 896 861 896 q 728 870 764 896 q 692 797 692 844 q 702 768 692 778 q 728 758 713 758 q 760 772 747 758 q 774 806 774 786 q 768 825 774 817 q 764 831 765 829 q 767 840 763 835 q 793 851 772 851 q 821 843 810 851 q 840 821 832 835 q 851 791 847 807 q 854 758 854 775 q 836 676 854 715 q 788 606 818 636 q 717 556 757 575 q 635 538 678 538 q 535 581 574 538 q 496 690 497 624 q 398 524 436 613 q 360 353 360 435 q 372 272 360 303 q 405 222 385 240 q 451 197 425 204 q 503 190 476 190 z "},"P":{"ha":1293,"x_min":40,"x_max":1321,"o":"m 897 1057 q 1085 1031 1006 1057 q 1217 963 1164 1006 q 1295 863 1269 919 q 1321 744 1321 807 q 1283 572 1321 657 q 1167 417 1244 486 q 971 306 1089 349 q 693 260 853 263 q 635 145 672 207 q 542 29 599 83 q 407 -61 486 -25 q 219 -97 328 -97 q 149 -83 182 -97 q 92 -44 115 -68 q 54 13 68 -19 q 40 82 40 46 q 70 205 40 149 q 147 301 100 261 q 251 364 193 342 q 363 386 308 386 q 435 361 408 386 q 461 301 461 336 q 449 251 461 275 q 420 208 438 226 q 381 178 403 189 q 338 167 358 167 q 316 169 322 167 q 307 176 310 172 q 304 188 303 182 q 320 205 317 193 q 324 226 324 217 q 316 249 324 236 q 289 261 308 261 q 248 239 263 261 q 235 191 233 217 q 258 143 238 165 q 321 121 279 121 q 427 158 383 121 q 492 244 471 196 q 508 294 503 269 q 517 342 514 319 q 523 384 521 365 q 531 414 525 403 q 538 431 531 415 q 556 473 544 447 q 581 531 567 499 q 608 597 594 564 q 632 667 624 638 q 640 711 640 696 q 640 740 640 722 q 639 769 639 758 q 647 790 639 782 q 664 803 654 799 q 689 810 675 808 q 779 822 738 817 q 847 832 815 828 q 890 836 879 836 q 946 799 946 836 q 910 774 926 792 q 880 729 894 757 q 850 665 865 701 q 817 581 835 628 l 771 465 q 917 494 856 469 q 1018 555 978 519 q 1078 631 1058 590 q 1097 704 1097 671 q 1082 778 1097 746 q 1033 832 1067 810 q 942 865 999 854 q 804 876 886 876 q 642 863 713 876 q 525 830 572 850 q 453 785 478 810 q 429 738 429 761 q 440 708 429 718 q 465 697 450 697 q 499 712 486 697 q 511 746 511 726 q 506 765 511 757 q 501 771 503 769 q 504 781 500 775 q 531 792 510 792 q 559 783 547 792 q 578 760 571 774 q 590 731 586 747 q 593 699 593 714 q 574 615 593 656 q 525 544 556 575 q 455 496 494 514 q 372 478 415 478 q 272 522 311 478 q 233 632 233 565 q 249 727 233 678 q 297 824 264 776 q 381 913 329 871 q 507 988 433 956 q 677 1038 581 1019 q 897 1057 774 1057 z "},"Q":{"ha":1182,"x_min":114,"x_max":1272,"o":"m 1133 -29 q 1236 -70 1200 -29 q 1272 -165 1272 -111 q 1244 -290 1272 -231 q 1167 -395 1217 -350 q 1048 -467 1117 -440 q 897 -494 979 -494 q 775 -460 833 -494 q 663 -373 717 -425 q 560 -260 610 -321 q 463 -148 510 -200 q 369 -61 415 -96 q 279 -26 324 -26 q 211 -42 231 -26 q 182 -83 192 -58 q 142 -58 156 -78 q 126 -12 128 -39 q 138 44 125 15 q 179 99 151 74 q 131 195 147 142 q 114 311 114 249 q 147 507 114 413 q 235 684 179 601 q 367 835 292 767 q 527 953 442 904 q 703 1030 613 1003 q 883 1057 794 1057 q 1005 1032 951 1057 q 1094 964 1058 1007 q 1149 864 1131 921 q 1168 743 1168 807 q 1148 597 1168 672 q 1091 447 1128 521 q 1002 302 1054 372 q 887 173 950 232 q 751 69 824 114 q 599 -1 678 24 q 706 -112 653 -54 q 807 -219 758 -171 q 898 -300 856 -268 q 974 -332 940 -332 q 1046 -306 1015 -332 q 1076 -233 1076 -281 q 1066 -204 1076 -214 q 1040 -194 1056 -194 q 1008 -209 1021 -194 q 994 -243 994 -224 q 1000 -262 994 -254 q 1006 -268 1003 -267 q 1001 -279 1006 -274 q 976 -289 994 -289 q 928 -266 943 -289 q 914 -212 914 -243 q 932 -140 914 -174 q 981 -81 950 -106 q 1051 -43 1011 -57 q 1133 -29 1090 -29 m 496 690 q 398 524 436 613 q 360 353 360 435 q 372 272 360 303 q 405 222 385 240 q 451 197 425 204 q 503 190 476 190 q 601 217 551 190 q 697 290 651 244 q 784 392 743 335 q 855 512 825 450 q 902 634 885 574 q 919 744 919 694 q 890 858 919 819 q 813 896 861 896 q 728 870 764 896 q 692 797 692 844 q 702 768 692 778 q 728 758 713 758 q 760 772 747 758 q 774 806 774 786 q 768 825 774 817 q 764 831 765 829 q 767 840 763 835 q 793 851 772 851 q 822 843 810 851 q 841 821 833 835 q 852 791 849 807 q 856 758 856 775 q 837 676 856 715 q 788 606 818 636 q 717 556 757 575 q 635 538 678 538 q 535 581 574 538 q 496 690 497 624 z "},"R":{"ha":1365,"x_min":40,"x_max":1422,"o":"m 1161 218 q 1231 233 1201 218 q 1284 274 1261 249 q 1326 331 1307 299 q 1365 396 1346 363 l 1422 356 q 1349 230 1385 293 q 1272 115 1313 167 q 1180 32 1231 64 q 1063 0 1129 0 q 984 22 1019 0 q 918 80 949 44 q 863 159 888 115 q 815 244 838 203 q 773 319 793 285 q 733 372 753 354 q 667 194 710 279 q 562 44 625 108 q 414 -59 499 -21 q 219 -97 329 -97 q 149 -83 182 -97 q 92 -44 115 -68 q 54 13 68 -19 q 40 82 40 46 q 70 205 40 149 q 147 301 100 261 q 251 364 193 342 q 363 386 308 386 q 436 361 410 386 q 463 301 463 336 q 451 251 463 275 q 421 208 439 226 q 381 178 403 189 q 338 167 358 167 q 307 176 311 167 q 306 188 304 182 q 320 205 317 193 q 324 226 324 217 q 316 249 324 236 q 289 261 308 261 q 249 239 263 261 q 237 191 235 217 q 259 143 239 165 q 321 121 279 121 q 428 158 383 121 q 493 244 472 196 q 509 294 504 269 q 517 342 514 319 q 524 384 521 365 q 532 414 526 403 l 608 597 q 633 667 624 638 q 642 711 642 696 q 640 740 642 722 q 639 769 639 758 q 647 790 639 782 q 664 803 654 799 q 689 810 675 808 q 779 822 738 817 q 848 832 815 828 q 892 836 881 836 q 946 799 946 836 q 881 729 907 783 q 817 581 854 675 l 808 560 q 913 576 861 560 q 1004 620 964 593 q 1069 681 1044 647 q 1094 751 1094 715 q 1026 851 1094 826 q 806 876 957 876 q 643 863 714 876 q 525 830 572 850 q 453 785 478 810 q 429 738 429 761 q 440 708 429 718 q 465 697 450 697 q 499 712 486 697 q 513 746 513 726 q 507 765 513 757 q 501 771 504 769 q 504 781 500 775 q 531 792 510 792 q 559 783 547 792 q 578 760 571 774 q 590 731 586 747 q 593 699 593 714 q 575 615 593 656 q 526 544 557 575 q 456 496 496 514 q 372 478 415 478 q 272 522 311 478 q 233 632 233 565 q 249 727 233 678 q 297 824 264 776 q 381 913 329 871 q 507 988 433 956 q 677 1038 581 1019 q 897 1057 774 1057 q 1069 1040 992 1057 q 1203 991 1147 1024 q 1289 909 1258 958 q 1319 796 1319 860 q 1294 672 1319 731 q 1224 565 1268 614 q 1118 477 1179 515 q 985 415 1057 439 q 1022 347 1003 382 q 1063 284 1042 313 q 1108 237 1085 256 q 1161 218 1132 218 z "},"S":{"ha":1083,"x_min":40,"x_max":986,"o":"m 722 811 q 706 792 711 804 q 703 767 701 779 q 715 747 706 756 q 742 738 725 738 q 778 757 765 738 q 792 803 792 776 q 769 853 792 831 q 703 876 747 876 q 604 856 651 876 q 522 807 557 836 q 465 744 486 778 q 444 685 444 711 q 484 626 444 651 q 583 576 524 600 q 711 530 642 553 q 840 478 781 507 q 938 411 899 449 q 978 324 978 374 q 919 173 978 239 q 760 63 861 107 q 523 -6 660 18 q 228 -29 386 -29 q 171 -23 203 -29 q 110 -2 139 -17 q 60 38 81 13 q 40 100 40 63 q 58 181 40 146 q 102 241 75 217 q 162 278 129 265 q 224 290 194 290 q 251 285 243 290 q 264 275 260 281 q 268 261 268 269 q 250 243 257 254 q 243 219 243 232 q 257 197 243 206 q 315 189 271 189 q 446 194 376 189 q 574 209 515 199 q 671 238 632 219 q 710 283 710 256 q 671 322 710 304 q 574 359 632 339 q 448 403 515 379 q 322 463 381 428 q 225 544 264 497 q 186 656 186 592 q 212 753 186 704 q 281 847 238 803 q 382 930 324 892 q 504 997 440 968 q 635 1041 568 1025 q 765 1057 703 1057 q 858 1042 817 1057 q 928 1001 900 1026 q 971 940 956 975 q 986 868 986 906 q 953 763 986 810 q 873 681 921 715 q 769 629 825 647 q 665 611 713 611 q 594 634 622 611 q 565 693 565 657 q 576 741 565 717 q 603 785 586 765 q 642 818 619 806 q 688 831 664 831 q 710 827 703 831 q 719 821 717 824 q 722 811 724 815 z "},"T":{"ha":890,"x_min":40,"x_max":1439,"o":"m 1297 1260 q 1401 1219 1364 1260 q 1439 1119 1439 1179 q 1413 1006 1439 1067 q 1336 893 1386 944 q 1214 808 1286 842 q 1050 774 1142 774 q 897 786 972 774 l 731 365 q 713 312 725 351 q 676 221 700 272 q 614 113 651 169 q 522 10 576 57 q 392 -67 467 -36 q 218 -97 317 -97 q 148 -83 181 -97 q 92 -44 115 -68 q 54 13 68 -19 q 40 81 40 44 q 70 205 40 149 q 147 301 100 261 q 250 364 193 342 q 363 386 307 386 q 435 361 408 386 q 461 301 461 336 q 449 251 461 275 q 419 208 438 226 q 379 178 401 189 q 336 167 357 167 q 307 176 311 167 q 304 186 303 181 q 319 205 315 193 q 324 226 324 217 q 316 249 324 236 q 289 261 308 261 q 248 239 263 261 q 235 191 233 217 q 258 143 238 165 q 319 121 278 121 q 427 158 383 121 q 492 244 471 196 q 508 294 503 269 q 516 342 513 319 q 522 384 519 365 q 531 414 525 403 q 539 435 531 415 q 560 485 547 454 q 590 558 574 517 q 625 644 607 599 q 661 735 643 689 q 696 822 679 781 q 588 840 640 833 q 482 847 535 847 q 440 840 461 847 q 402 821 419 833 q 374 790 385 808 q 364 749 364 771 q 374 719 364 729 q 400 708 385 708 q 433 723 421 708 q 446 757 446 738 q 440 776 446 768 q 436 782 438 781 q 439 792 435 786 q 465 803 444 803 q 494 794 482 803 q 513 772 506 785 q 524 742 521 758 q 528 710 528 725 q 509 626 528 667 q 460 556 490 586 q 390 507 429 525 q 307 489 350 489 q 207 533 246 489 q 168 643 168 576 q 200 781 168 711 q 287 905 232 850 q 415 994 342 960 q 571 1029 489 1029 q 702 1017 629 1029 q 850 992 775 1006 q 997 967 925 979 q 1125 956 1068 956 q 1167 963 1146 956 q 1205 982 1188 969 q 1233 1013 1222 994 q 1243 1054 1243 1031 q 1233 1083 1243 1074 q 1207 1093 1222 1093 q 1174 1079 1186 1093 q 1161 1046 1161 1065 q 1165 1026 1161 1032 q 1171 1021 1168 1022 q 1168 1010 1171 1015 q 1142 1000 1161 1000 q 1095 1022 1111 1000 q 1079 1075 1079 1044 q 1098 1147 1079 1113 q 1148 1206 1117 1181 q 1218 1245 1179 1231 q 1297 1260 1257 1260 z "},"U":{"ha":1140,"x_min":82,"x_max":1292,"o":"m 1238 1029 q 1292 992 1292 1029 q 1224 917 1251 976 q 1156 756 1196 858 q 1133 701 1150 742 q 1094 608 1117 661 q 1049 494 1072 554 q 1006 383 1025 435 q 973 294 986 332 q 960 247 960 257 q 965 228 960 239 q 981 218 969 218 q 1023 233 1003 218 q 1063 272 1043 247 q 1101 328 1082 296 q 1140 396 1119 360 l 1197 356 q 1130 240 1165 301 q 1052 124 1094 178 q 958 35 1010 71 q 843 0 907 0 q 747 36 786 0 q 707 132 707 72 q 589 39 658 78 q 429 0 519 0 q 382 9 410 0 q 328 39 354 18 q 285 94 303 60 q 267 179 267 128 q 284 278 267 228 q 328 378 301 328 q 384 477 354 428 q 440 572 414 526 q 484 660 467 618 q 501 739 501 703 q 496 782 501 760 q 477 824 490 804 q 444 856 464 843 q 394 868 424 868 q 312 842 346 868 q 278 769 278 817 q 288 740 278 750 q 314 729 299 729 q 347 744 335 729 q 360 778 360 758 q 354 797 360 789 q 349 803 351 801 q 351 813 347 807 q 378 824 357 824 q 406 815 394 824 q 426 793 418 807 q 437 763 433 779 q 440 731 440 747 q 422 647 440 688 q 374 576 404 607 q 303 528 343 546 q 221 510 264 510 q 120 553 158 510 q 82 664 82 597 q 110 799 82 733 q 190 916 138 865 q 314 998 242 967 q 475 1029 386 1029 q 594 1007 544 1029 q 674 949 643 985 q 720 869 706 914 q 735 776 735 824 q 719 686 735 732 q 682 594 704 640 q 633 503 660 549 q 585 417 607 458 q 547 338 563 375 q 532 269 532 300 q 546 232 532 246 q 581 218 560 218 q 660 233 626 218 q 716 271 693 249 q 752 318 739 293 q 774 363 765 343 q 842 526 804 442 q 911 687 879 611 q 965 821 943 763 q 988 904 988 879 q 987 933 988 915 q 986 963 986 951 q 993 983 986 975 q 1010 996 1000 992 q 1035 1003 1021 1001 q 1125 1015 1083 1010 q 1194 1025 1161 1021 q 1238 1029 1226 1029 z "},"V":{"ha":1171,"x_min":75,"x_max":1307,"o":"m 1307 992 q 1240 917 1267 976 q 1189 754 1213 858 q 1165 658 1182 725 q 1115 507 1147 590 q 1032 333 1082 424 q 911 169 982 243 q 746 48 840 96 q 529 0 651 0 q 442 15 482 0 q 374 58 403 29 q 328 126 344 86 q 313 218 313 167 q 341 362 313 292 q 403 498 369 432 q 466 624 438 564 q 494 739 494 685 q 489 782 494 760 q 470 824 483 804 q 437 856 457 843 q 388 868 417 868 q 304 842 339 868 q 269 769 269 817 q 281 740 269 750 q 307 729 292 729 q 340 744 326 729 q 353 778 353 758 q 347 797 353 789 q 342 803 344 801 q 344 813 340 807 q 371 824 350 824 q 399 815 388 824 q 419 793 411 807 q 430 763 426 779 q 433 731 433 747 q 415 647 433 688 q 367 576 397 607 q 297 528 336 546 q 214 510 257 510 q 113 553 151 510 q 75 664 75 597 q 103 799 75 733 q 182 916 131 865 q 306 998 233 967 q 468 1029 379 1029 q 585 1007 536 1029 q 667 949 635 985 q 713 869 699 914 q 728 776 728 824 q 702 635 728 706 q 645 498 676 564 q 588 374 614 432 q 563 272 563 315 q 576 230 563 242 q 611 218 590 218 q 696 251 651 218 q 783 340 740 285 q 865 466 826 394 q 931 613 903 538 q 977 765 960 689 q 994 904 994 840 q 994 933 994 915 q 993 963 993 951 q 1001 983 993 975 q 1018 996 1008 992 q 1043 1003 1029 1001 q 1136 1015 1093 1010 q 1206 1025 1172 1021 q 1251 1029 1240 1029 q 1307 992 1307 1029 z "},"W":{"ha":1542,"x_min":74,"x_max":1675,"o":"m 1619 1029 q 1675 992 1675 1029 q 1607 917 1633 976 q 1556 753 1581 857 q 1531 656 1549 724 q 1483 506 1514 589 q 1406 333 1451 422 q 1294 169 1360 243 q 1144 48 1229 96 q 951 0 1060 0 q 847 28 890 0 q 785 97 804 56 q 668 26 739 53 q 529 0 597 0 q 442 15 482 0 q 374 58 403 29 q 328 126 344 86 q 313 218 313 167 q 341 362 313 292 q 403 498 369 432 q 466 624 438 564 q 494 739 494 685 q 488 782 494 760 q 469 824 482 804 q 437 856 457 843 q 388 868 417 868 q 304 842 339 868 q 269 769 269 815 q 280 740 269 750 q 306 729 290 729 q 340 744 326 729 q 353 778 353 758 q 347 797 353 789 q 342 803 344 801 q 344 813 340 807 q 371 824 350 824 q 399 815 388 824 q 419 792 411 806 q 430 763 426 779 q 433 731 433 746 q 415 647 433 688 q 367 576 397 607 q 296 528 336 546 q 213 510 256 510 q 113 553 151 510 q 74 664 74 597 q 102 798 74 732 q 182 915 131 864 q 306 998 233 967 q 467 1029 378 1029 q 585 1007 536 1029 q 667 949 635 985 q 713 869 699 914 q 728 776 728 824 q 702 635 728 706 q 645 498 676 564 q 588 374 614 432 q 563 272 563 315 q 574 230 563 242 q 606 218 585 218 q 694 253 653 218 q 767 357 736 288 q 817 484 792 413 q 865 630 843 556 q 901 776 888 704 q 915 904 915 847 q 915 933 915 915 q 914 963 914 951 q 922 983 914 975 q 939 996 929 992 q 964 1003 950 1001 q 1057 1015 1014 1010 q 1127 1025 1093 1021 q 1172 1029 1161 1029 q 1228 992 1228 1029 q 1192 965 1207 983 q 1164 915 1176 946 q 1138 844 1151 885 q 1108 753 1125 804 q 1093 706 1106 744 q 1064 614 1081 667 q 1029 501 1047 561 q 997 390 1011 442 q 985 340 992 369 q 978 283 979 310 q 983 237 976 256 q 1008 218 989 218 q 1088 251 1047 218 q 1169 340 1129 285 q 1243 465 1208 394 q 1305 613 1278 536 q 1347 765 1332 689 q 1363 904 1363 840 q 1362 933 1363 915 q 1361 963 1361 951 q 1369 983 1361 975 q 1386 996 1376 992 q 1411 1003 1397 1001 q 1504 1015 1461 1010 q 1574 1025 1540 1021 q 1619 1029 1608 1029 z "},"X":{"ha":1257,"x_min":40,"x_max":1315,"o":"m 1089 739 q 1110 766 1106 749 q 1115 797 1115 783 q 1105 828 1115 810 q 1065 847 1094 847 q 1009 825 1033 847 q 965 766 985 803 q 932 684 946 729 q 910 592 918 639 q 897 503 901 546 q 893 429 893 460 q 901 349 893 388 q 926 282 908 311 q 969 235 943 253 q 1033 218 996 218 q 1099 233 1068 218 q 1159 272 1131 247 q 1211 328 1188 296 q 1256 396 1235 360 l 1313 356 q 1242 240 1281 301 q 1158 124 1204 178 q 1052 35 1111 71 q 919 0 993 0 q 844 12 878 0 q 783 43 810 24 q 737 90 757 63 q 703 146 717 117 q 607 49 658 93 q 498 -28 556 4 q 377 -79 440 -61 q 247 -97 314 -97 q 160 -83 199 -97 q 96 -44 122 -68 q 55 13 69 -19 q 40 81 40 44 q 70 205 40 149 q 147 301 100 261 q 251 364 193 342 q 363 386 308 386 q 435 361 408 386 q 461 301 461 336 q 449 251 461 275 q 419 208 438 226 q 379 178 401 189 q 336 167 357 167 q 307 176 311 167 q 304 186 303 181 q 320 205 317 193 q 324 226 324 217 q 316 249 324 236 q 289 261 308 261 q 248 239 263 261 q 235 191 233 217 q 258 143 238 165 q 319 121 278 121 q 443 162 379 121 q 559 272 507 203 q 644 435 611 342 q 678 633 678 529 q 674 712 678 671 q 656 788 669 753 q 619 845 643 822 q 556 868 594 868 q 513 861 533 868 q 475 842 492 854 q 448 810 458 829 q 438 769 438 792 q 448 740 438 750 q 474 729 458 729 q 508 744 494 729 q 521 778 521 758 q 515 797 521 789 q 510 803 513 801 q 513 813 508 807 q 539 824 518 824 q 567 815 556 824 q 587 792 579 806 q 598 763 594 779 q 601 731 601 746 q 583 647 601 688 q 535 576 565 607 q 464 528 504 546 q 381 510 424 510 q 281 553 319 510 q 242 664 242 597 q 273 798 242 732 q 355 915 304 864 q 472 998 406 967 q 608 1029 538 1029 q 753 983 694 1029 q 847 868 813 938 q 988 984 908 939 q 1172 1029 1068 1029 q 1278 992 1240 1029 q 1315 906 1315 956 q 1299 833 1315 868 q 1256 770 1282 797 q 1197 726 1229 743 q 1135 710 1165 710 q 1105 714 1115 710 q 1092 724 1094 718 q 1089 739 1086 729 z "},"Y":{"ha":1103,"x_min":68,"x_max":1269,"o":"m 1269 992 q 1201 917 1229 976 q 1133 756 1174 858 l 814 -49 q 796 -102 808 -62 q 759 -193 783 -142 q 697 -301 735 -244 q 605 -403 660 -357 q 476 -481 550 -450 q 303 -511 401 -511 q 232 -497 265 -511 q 175 -458 199 -482 q 138 -401 151 -433 q 124 -332 124 -368 q 153 -209 124 -265 q 230 -112 183 -153 q 334 -50 276 -72 q 446 -28 392 -28 q 518 -53 492 -28 q 544 -112 544 -78 q 533 -163 544 -139 q 503 -206 521 -187 q 464 -236 486 -225 q 421 -247 442 -247 q 399 -244 406 -247 q 390 -237 393 -242 q 388 -228 386 -233 q 403 -209 400 -221 q 407 -187 407 -197 q 399 -165 407 -178 q 372 -153 392 -153 q 331 -175 346 -153 q 319 -223 317 -197 q 342 -271 321 -249 q 404 -293 363 -293 q 510 -256 467 -293 q 575 -169 554 -218 q 592 -119 586 -144 q 600 -72 597 -94 q 606 -30 603 -49 q 614 0 608 -11 q 625 26 615 1 q 651 90 635 50 q 547 25 606 50 q 417 0 488 0 q 368 9 396 0 q 315 39 340 18 q 271 94 289 60 q 253 178 253 128 q 270 276 253 226 q 314 377 288 326 q 370 476 340 428 q 426 572 400 525 q 470 660 453 618 q 488 739 488 703 q 482 782 488 760 q 463 824 476 804 q 430 856 450 843 q 381 868 410 868 q 298 842 332 868 q 264 769 264 815 q 274 740 264 750 q 300 729 285 729 q 333 744 321 729 q 346 778 346 758 q 340 797 346 789 q 336 803 338 801 q 339 813 335 807 q 365 824 344 824 q 394 815 382 824 q 413 792 406 806 q 424 763 421 779 q 428 731 428 746 q 409 647 428 688 q 360 576 390 607 q 290 528 329 546 q 207 510 250 510 q 107 553 146 510 q 68 664 68 597 q 97 798 68 732 q 176 915 125 864 q 300 998 228 967 q 461 1029 372 1029 q 580 1007 531 1029 q 661 949 629 985 q 708 869 693 914 q 722 776 722 824 q 690 641 722 711 q 620 503 658 571 q 550 376 582 436 q 518 269 518 315 q 532 232 518 246 q 567 218 546 218 q 646 233 613 218 q 702 271 679 249 q 739 318 725 293 q 760 363 753 343 q 858 602 818 504 q 921 763 897 700 q 955 859 944 826 q 965 904 965 892 q 964 933 965 915 q 963 963 963 951 q 970 983 963 975 q 988 996 978 992 q 1013 1003 999 1001 q 1103 1015 1061 1010 q 1172 1025 1139 1021 q 1215 1029 1204 1029 q 1269 992 1269 1029 z "},"Z":{"ha":1060,"x_min":0,"x_max":1175,"o":"m 1175 992 q 1140 968 1156 986 q 1067 890 1111 939 q 968 782 1022 842 q 853 654 914 722 q 731 518 793 586 q 610 385 669 450 q 497 267 550 321 q 597 245 544 258 q 701 218 650 232 q 801 194 753 204 q 888 185 849 185 q 928 204 907 185 q 972 255 950 224 q 1017 324 994 286 q 1060 397 1039 361 l 1117 358 q 1049 242 1085 304 q 973 127 1014 181 q 882 38 932 74 q 771 3 832 3 q 638 11 704 3 q 512 28 572 19 q 399 46 451 38 q 307 54 346 54 q 240 46 272 54 q 177 28 208 38 q 114 11 146 19 q 49 3 82 3 q 35 4 43 3 q 19 10 26 6 q 6 21 11 14 q 0 39 0 28 q 29 57 15 43 q 50 78 43 71 q 51 79 50 79 q 87 117 53 81 q 176 213 121 154 q 301 348 231 272 q 444 503 371 424 q 589 659 518 582 q 717 797 660 736 q 640 810 679 801 q 560 826 600 818 q 483 841 521 835 q 407 847 444 847 q 365 840 386 847 q 327 821 344 833 q 299 790 310 808 q 289 749 289 772 q 299 719 289 729 q 325 708 310 708 q 358 723 346 708 q 371 757 371 738 q 365 776 371 768 q 361 782 363 781 q 364 792 360 786 q 390 803 369 803 q 419 794 407 803 q 438 772 431 786 q 449 742 446 758 q 453 710 453 726 q 434 627 453 667 q 385 557 415 588 q 315 508 354 526 q 232 489 275 489 q 132 533 171 489 q 93 644 93 576 q 125 781 93 713 q 212 906 157 850 q 340 995 267 961 q 496 1029 414 1029 q 592 1021 542 1029 q 690 1003 642 1013 q 781 985 738 993 q 860 976 825 976 q 936 985 901 976 q 1001 1003 971 993 q 1060 1021 1032 1013 q 1119 1029 1089 1029 q 1175 992 1175 1029 z "},"":{"ha":1293,"x_min":39,"x_max":1746,"o":"m 1579 -28 q 1656 -44 1624 -28 q 1708 -83 1688 -60 q 1737 -134 1728 -107 q 1746 -185 1746 -161 q 1718 -306 1746 -247 q 1641 -410 1690 -365 q 1525 -481 1592 -454 q 1379 -508 1458 -508 q 1227 -465 1296 -508 q 1101 -347 1158 -421 q 996 -174 1043 -272 q 908 32 949 -76 q 834 252 868 140 q 769 465 800 364 q 741 396 753 424 q 729 367 729 368 q 711 313 724 353 q 674 221 699 272 q 613 114 650 169 q 519 12 575 58 q 390 -65 464 -35 q 217 -96 315 -96 q 147 -81 179 -96 q 90 -42 114 -67 q 52 14 65 -18 q 39 82 39 46 q 69 206 39 150 q 145 303 99 263 q 249 365 192 343 q 360 388 306 388 q 433 362 407 388 q 460 303 460 336 q 448 251 460 276 q 418 208 436 226 q 378 178 400 189 q 335 167 356 167 q 306 176 310 167 q 303 188 301 182 q 318 206 314 194 q 322 226 322 217 q 315 249 322 236 q 288 261 307 261 q 247 240 261 261 q 234 192 232 218 q 256 144 236 165 q 318 122 276 122 q 425 160 381 122 q 490 244 469 197 q 506 295 501 269 q 515 344 511 321 q 521 385 518 367 q 529 415 524 403 q 538 435 529 417 q 558 484 546 454 q 586 551 571 514 q 617 625 601 588 q 647 698 633 663 q 671 760 661 733 q 618 841 646 814 q 553 868 590 868 q 469 842 504 868 q 435 769 435 817 q 446 740 435 750 q 472 731 457 731 q 505 744 492 731 q 518 779 518 758 q 513 797 518 789 q 507 803 510 801 q 510 813 506 807 q 536 824 515 824 q 565 815 553 824 q 584 793 576 807 q 595 763 592 779 q 599 731 599 747 q 581 648 599 688 q 532 578 563 608 q 462 529 501 547 q 379 511 422 511 q 278 554 317 511 q 240 664 240 597 q 268 799 240 733 q 347 916 296 865 q 471 998 399 967 q 632 1029 543 1029 q 747 1005 697 1029 q 837 935 797 981 q 909 822 876 889 q 971 671 942 756 q 993 602 982 638 q 1015 531 1004 567 q 1067 656 1042 594 q 1112 769 1093 718 q 1142 856 1131 819 q 1154 904 1154 892 q 1153 933 1154 915 q 1153 963 1153 951 q 1160 983 1153 975 q 1178 996 1168 992 q 1203 1003 1189 1001 q 1292 1015 1250 1010 q 1360 1025 1326 1021 q 1404 1029 1393 1029 q 1458 992 1458 1029 q 1390 917 1418 976 q 1322 756 1363 858 q 1308 719 1319 749 q 1278 644 1296 689 q 1238 544 1260 600 q 1193 431 1215 489 q 1149 318 1171 374 q 1110 218 1126 263 q 1176 24 1142 115 q 1253 -137 1211 -68 q 1343 -248 1294 -207 q 1451 -289 1392 -289 q 1488 -282 1469 -289 q 1523 -262 1507 -275 q 1549 -233 1539 -250 q 1558 -194 1558 -215 q 1546 -163 1558 -175 q 1517 -151 1533 -151 q 1486 -165 1496 -151 q 1476 -197 1476 -179 q 1482 -217 1476 -208 q 1489 -224 1485 -221 q 1483 -235 1488 -229 q 1456 -244 1476 -244 q 1409 -229 1428 -244 q 1390 -182 1390 -214 q 1404 -123 1390 -151 q 1443 -74 1418 -94 q 1503 -40 1468 -53 q 1579 -28 1538 -28 z "},"ª":{"ha":994,"x_min":72,"x_max":994,"o":"m 961 1039 q 994 1015 994 1036 q 951 967 968 1004 q 907 865 933 931 q 892 830 903 856 q 868 770 882 804 q 839 698 854 736 q 811 627 824 660 q 790 570 799 594 q 782 540 782 546 q 785 528 782 535 q 796 522 788 522 q 847 556 824 522 q 897 635 871 589 l 933 610 q 890 535 913 575 q 841 462 868 496 q 781 406 814 428 q 708 383 749 383 q 647 406 672 383 q 621 464 621 428 q 629 514 621 483 q 651 582 638 544 l 546 582 q 484 483 518 531 q 407 400 450 436 q 309 342 364 364 q 186 321 254 321 q 105 355 138 321 q 72 435 72 389 q 91 514 72 478 q 140 576 110 550 q 206 615 169 601 q 278 629 242 629 q 324 613 307 629 q 340 575 340 597 q 333 543 340 558 q 314 515 325 528 q 289 496 303 503 q 261 489 275 489 q 248 490 251 489 q 242 494 244 492 q 240 501 239 497 q 250 513 247 506 q 253 528 253 521 q 248 541 253 533 q 231 549 243 549 q 205 535 214 549 q 197 504 196 521 q 210 474 197 488 q 250 460 224 460 q 322 485 289 460 q 383 551 354 510 q 440 644 413 592 q 496 750 467 696 q 558 856 525 804 q 629 949 590 908 q 565 953 600 951 q 485 954 531 954 q 433 938 457 954 q 408 892 408 921 q 415 873 408 879 q 432 867 422 867 q 461 897 461 867 q 458 908 461 903 q 456 913 457 911 q 457 919 454 915 q 474 926 460 926 q 504 907 494 926 q 514 867 514 888 q 502 814 514 839 q 471 769 490 789 q 426 738 451 750 q 374 726 400 726 q 309 754 333 726 q 285 824 285 782 q 304 910 285 868 q 358 984 324 951 q 437 1036 392 1017 q 535 1056 482 1056 q 609 1053 578 1056 q 670 1049 640 1051 q 733 1043 700 1046 q 810 1039 765 1040 l 961 1039 m 688 674 q 748 813 718 744 q 792 922 778 881 q 732 901 758 922 q 683 847 706 881 q 638 767 660 813 q 593 672 617 722 q 649 673 626 672 q 688 674 672 674 z "},"º":{"ha":746,"x_min":122,"x_max":771,"o":"m 574 1057 q 663 1038 625 1057 q 724 990 700 1019 q 760 921 749 960 q 771 842 771 882 q 738 683 771 767 q 646 529 706 600 q 501 412 586 458 q 313 365 417 365 q 236 381 271 365 q 176 426 201 397 q 136 495 150 456 q 122 582 122 535 q 158 761 122 675 q 256 913 194 847 q 400 1017 318 978 q 574 1057 482 1057 m 365 504 q 456 542 411 504 q 535 633 500 579 q 591 749 569 688 q 613 857 613 810 q 594 924 613 906 q 544 942 576 942 q 453 908 500 942 q 367 825 406 875 q 305 717 329 775 q 281 608 281 658 q 288 556 281 576 q 306 524 294 536 q 333 508 318 513 q 365 504 349 504 z "},"¹":{"ha":601,"x_min":196,"x_max":693,"o":"m 606 864 q 590 826 603 858 q 560 747 578 793 q 521 650 542 701 q 483 554 500 599 q 454 480 465 510 q 443 447 443 450 q 444 425 443 435 q 444 406 444 415 q 435 390 444 396 q 419 383 426 383 l 290 383 q 272 390 279 383 q 265 407 265 396 q 275 429 265 418 q 297 463 285 440 q 311 491 299 464 q 342 560 324 518 q 382 654 360 603 q 425 756 404 706 q 463 851 446 807 q 490 925 481 896 q 447 932 468 928 q 396 936 426 936 q 344 919 368 936 q 321 874 321 903 q 343 849 321 849 q 365 858 357 849 q 374 879 374 867 q 372 885 374 883 q 369 890 371 888 q 367 894 368 893 q 368 901 365 897 q 385 908 371 908 q 415 889 406 908 q 425 849 425 869 q 413 796 425 821 q 382 751 401 771 q 337 720 363 732 q 285 708 311 708 q 220 736 244 708 q 196 807 196 764 q 215 892 196 850 q 268 967 235 935 q 347 1019 301 999 q 446 1039 393 1039 l 657 1039 q 693 1015 693 1039 q 669 997 678 1006 q 654 978 661 989 q 632 930 643 958 q 606 864 621 901 z "},"²":{"ha":758,"x_min":64,"x_max":708,"o":"m 708 896 q 679 785 708 838 q 606 688 650 733 q 507 605 561 643 q 403 536 453 567 q 469 513 438 525 q 533 500 500 501 q 567 510 556 500 q 581 531 578 519 q 583 553 585 543 q 576 567 581 564 q 583 576 578 571 q 595 583 588 579 q 617 586 603 586 q 663 566 644 586 q 681 514 681 546 q 673 476 681 499 q 647 433 665 454 q 594 398 628 413 q 508 383 560 383 q 459 388 488 383 q 399 399 431 393 q 338 411 368 406 q 282 417 307 417 q 223 411 250 417 q 173 399 196 406 q 130 388 150 393 q 90 383 110 383 q 64 407 64 383 q 79 435 64 418 q 118 472 94 453 q 175 514 136 488 q 261 574 214 540 q 359 647 308 608 q 451 726 410 686 q 519 803 493 765 q 546 874 546 842 q 519 935 546 915 q 449 954 492 954 q 376 938 404 954 q 347 892 347 921 q 369 867 347 867 q 400 897 400 867 q 399 903 400 901 q 396 908 397 906 q 393 913 394 911 q 394 919 392 915 q 411 926 397 926 q 442 907 433 926 q 451 867 451 888 q 440 814 451 839 q 408 769 428 789 q 363 738 389 750 q 311 726 338 726 q 247 754 272 726 q 222 824 222 782 q 241 910 222 868 q 296 984 260 951 q 384 1037 332 1017 q 504 1057 436 1057 q 585 1048 547 1057 q 650 1019 622 1039 q 693 968 678 999 q 708 896 708 938 z "},"³":{"ha":715,"x_min":79,"x_max":706,"o":"m 706 901 q 672 797 706 843 q 593 719 639 751 q 646 681 625 707 q 667 608 667 654 q 624 503 667 549 q 516 426 582 457 q 369 381 450 396 q 213 365 289 365 q 114 399 149 365 q 79 478 79 433 q 98 557 79 521 q 147 619 117 593 q 213 658 176 644 q 285 672 250 672 q 331 656 314 672 q 347 619 347 640 q 322 559 347 585 q 268 533 296 533 q 255 535 258 533 q 249 539 251 536 q 247 546 246 542 q 258 557 256 550 q 260 571 260 564 q 255 585 260 578 q 238 593 250 593 q 213 582 222 593 q 203 556 204 571 q 215 521 203 538 q 267 504 226 504 q 335 508 294 504 q 414 520 376 511 q 478 545 451 529 q 504 586 504 561 q 494 621 504 608 q 470 639 483 633 q 442 646 457 644 q 419 647 428 647 q 397 642 411 644 q 376 642 383 639 q 371 658 367 647 q 378 676 374 664 q 388 702 383 689 q 398 726 393 715 q 404 742 403 738 q 410 748 406 744 q 419 749 415 751 q 428 746 424 747 q 438 742 432 744 q 470 751 451 742 q 505 778 489 760 q 532 821 521 796 q 543 878 543 846 q 518 933 543 913 q 449 954 493 954 q 375 938 407 954 q 343 892 343 921 q 350 873 343 879 q 367 867 357 867 q 396 897 396 867 q 394 903 396 901 q 392 908 393 906 q 389 913 390 911 q 392 919 389 915 q 398 924 394 922 q 408 926 401 926 q 439 907 429 926 q 449 867 449 888 q 437 814 449 839 q 406 769 425 789 q 360 738 386 750 q 307 726 335 726 q 243 754 268 726 q 218 824 218 782 q 238 910 218 868 q 294 984 257 951 q 388 1037 332 1017 q 518 1057 444 1057 q 585 1049 551 1057 q 645 1024 618 1042 q 689 976 672 1006 q 706 901 706 946 z "},"%":{"ha":1438,"x_min":147,"x_max":1274,"o":"m 315 490 q 203 540 247 490 q 160 668 160 590 q 190 815 160 744 q 269 939 219 885 q 387 1025 319 993 q 529 1057 454 1057 q 603 1042 572 1057 q 653 1002 633 1026 q 681 946 672 978 q 690 881 690 914 q 664 751 690 819 q 589 624 638 682 q 471 528 540 567 q 315 490 401 490 m 1097 538 q 1169 522 1139 538 q 1220 483 1200 507 q 1249 426 1240 458 q 1258 361 1258 394 q 1232 231 1258 300 q 1156 105 1206 163 q 1038 9 1107 47 q 883 -29 968 -29 q 771 21 814 -29 q 728 149 728 71 q 758 295 728 225 q 838 419 788 365 q 955 506 888 474 q 1097 538 1022 538 m 1246 1028 q 1269 1017 1264 1028 q 1267 992 1274 1007 q 1234 957 1258 975 q 1172 903 1210 939 q 1139 867 1171 901 q 1055 776 1107 832 q 938 648 1003 719 q 804 502 872 576 q 671 356 736 428 q 554 228 606 285 q 472 137 503 172 q 439 100 440 101 q 422 66 429 82 q 408 36 415 50 q 381 10 400 21 q 351 0 363 0 l 175 0 q 153 11 158 0 q 154 38 147 22 q 187 72 163 54 q 250 125 211 89 q 283 161 251 126 q 367 252 315 196 q 485 380 419 308 q 618 526 550 451 q 751 672 686 600 q 868 799 817 743 q 951 891 919 856 q 983 928 982 926 l 1014 993 q 1040 1018 1021 1008 q 1071 1028 1060 1028 l 1246 1028 m 944 136 q 999 158 972 136 q 1045 213 1025 181 q 1078 281 1065 244 q 1090 344 1090 317 q 1080 383 1090 372 q 1050 393 1069 393 q 996 374 1024 393 q 946 325 968 354 q 909 261 924 296 q 894 197 894 226 q 910 148 894 160 q 944 136 925 136 m 483 911 q 429 892 457 911 q 379 843 401 872 q 342 780 357 814 q 328 715 328 746 q 343 667 328 679 q 378 654 358 654 q 431 676 404 654 q 478 731 457 699 q 511 799 499 763 q 524 863 524 835 q 513 901 524 890 q 483 911 501 911 z "},"€":{"ha":1163,"x_min":11,"x_max":1144,"o":"m 879 811 q 863 792 868 804 q 861 767 858 779 q 873 745 864 754 q 899 736 882 736 q 936 756 924 736 q 949 803 949 776 q 926 853 949 829 q 860 876 904 876 q 782 860 825 876 q 694 814 739 843 q 603 744 649 785 q 519 658 558 704 q 558 660 543 660 q 574 660 572 660 q 605 666 593 663 q 624 667 617 669 q 633 642 640 660 l 581 510 q 571 501 578 506 q 557 499 564 496 l 528 513 q 494 513 525 513 q 424 515 464 514 q 413 493 418 504 q 404 471 408 482 q 471 473 444 472 q 500 474 497 474 q 531 480 519 476 q 550 481 543 483 q 560 456 567 474 q 548 426 556 446 q 532 386 540 407 q 517 347 524 365 q 507 324 510 329 q 497 314 504 318 q 483 313 490 310 q 469 319 476 315 q 454 325 463 322 q 433 326 453 326 q 385 328 414 326 q 438 225 393 261 q 554 189 483 189 q 640 195 600 189 q 711 214 681 201 q 760 245 742 226 q 778 289 778 264 q 767 319 778 308 q 742 329 757 329 q 708 315 721 329 q 696 281 696 300 q 700 261 696 267 q 706 256 703 257 q 703 244 706 250 q 676 235 696 235 q 628 257 643 235 q 614 310 614 279 q 633 384 614 350 q 682 442 651 418 q 752 481 713 467 q 835 494 792 494 q 938 453 901 494 q 974 358 974 413 q 932 210 974 281 q 819 87 890 140 q 656 2 749 33 q 458 -29 563 -29 q 322 -6 382 -29 q 219 58 261 17 q 153 157 176 100 q 131 281 131 214 q 131 305 131 293 q 133 329 132 317 q 78 326 79 326 q 47 321 58 324 q 28 321 35 318 q 18 346 11 326 l 71 478 q 81 487 74 482 q 94 489 88 492 q 108 482 101 486 q 124 475 115 478 q 136 474 125 475 q 165 474 147 474 q 172 494 168 485 q 181 515 176 504 q 160 514 167 514 q 151 514 153 514 q 120 508 132 511 q 101 507 108 504 q 92 533 85 514 q 103 561 96 542 q 119 601 111 581 q 135 640 128 622 q 144 664 142 658 q 154 674 147 669 q 168 675 161 678 l 197 663 q 216 661 199 661 q 261 660 233 661 q 400 819 321 746 q 567 944 479 892 q 747 1027 656 997 q 922 1057 838 1057 q 1015 1042 974 1057 q 1085 1001 1057 1026 q 1129 940 1114 975 q 1144 868 1144 906 q 1112 763 1144 810 q 1031 681 1079 715 q 926 629 982 647 q 822 611 869 611 q 752 634 781 611 q 724 693 724 657 q 734 741 724 717 q 761 785 744 765 q 799 818 778 806 q 844 831 821 831 q 867 827 860 831 q 876 821 874 824 q 879 811 881 815 z "},"¢":{"ha":894,"x_min":58,"x_max":858,"o":"m 649 749 q 637 733 640 743 q 635 714 633 724 q 645 697 638 704 q 665 690 653 690 q 694 706 685 690 q 704 743 704 722 q 687 782 704 764 q 633 800 669 800 q 561 782 601 800 q 479 733 521 764 q 397 663 438 703 q 326 576 357 622 q 276 483 294 531 q 257 390 257 436 q 294 292 257 326 q 393 257 331 257 q 460 262 428 257 q 517 276 493 267 q 555 301 540 286 q 569 336 569 317 q 561 360 569 351 q 540 368 553 368 q 515 356 525 368 q 504 329 504 344 q 508 314 504 318 q 513 310 510 311 q 510 301 513 306 q 489 293 504 293 q 451 311 463 293 q 440 353 440 329 q 455 411 440 385 q 493 457 469 438 q 549 488 517 476 q 614 499 581 499 q 695 467 667 499 q 724 390 724 435 q 697 284 724 335 q 623 193 669 233 q 513 125 576 153 q 379 89 450 97 q 380 60 379 74 q 381 36 381 47 q 367 10 381 21 q 342 0 353 0 l 213 0 q 183 11 194 0 q 172 38 172 22 q 183 65 172 51 q 210 103 194 79 q 98 190 138 129 q 58 329 58 250 q 102 524 58 429 q 215 699 146 619 q 373 836 285 778 q 551 922 461 894 q 554 929 554 931 q 553 963 554 947 q 553 993 553 979 q 566 1019 553 1008 q 590 1029 579 1029 l 721 1029 q 749 1018 738 1029 q 760 992 760 1007 q 751 969 760 981 q 732 939 743 957 q 825 886 792 926 q 858 794 858 846 q 833 710 858 749 q 769 646 807 672 q 687 605 731 619 q 606 590 643 590 q 549 609 571 590 q 526 656 526 628 q 534 694 526 675 q 556 729 542 714 q 586 754 569 744 q 622 764 603 764 q 647 756 642 764 q 649 749 650 751 z "},"$":{"ha":942,"x_min":-14,"x_max":776,"o":"m 567 749 q 554 733 558 743 q 552 714 550 724 q 562 697 554 704 q 582 690 569 690 q 612 706 601 690 q 622 743 622 722 q 604 782 622 764 q 551 800 586 800 q 474 784 511 800 q 408 745 436 768 q 364 696 381 722 q 347 649 347 669 q 378 601 347 622 q 457 563 410 581 q 558 526 504 544 q 660 485 613 508 q 738 433 707 463 q 769 364 769 404 q 740 267 769 311 q 656 190 710 224 q 527 134 601 157 q 365 99 453 111 q 366 65 365 81 q 367 36 367 50 q 353 10 367 21 q 328 0 339 0 l 199 0 q 169 11 181 0 q 158 38 158 22 q 165 59 158 49 q 183 85 172 69 l 164 85 q 89 97 122 85 q 33 129 56 108 q -2 177 10 150 q -14 235 -14 204 q 12 318 -14 281 q 76 382 38 356 q 158 423 114 408 q 240 438 203 438 q 297 419 274 438 q 319 372 319 400 q 311 334 319 353 q 290 299 303 315 q 258 274 276 283 q 222 264 240 264 q 197 271 201 264 q 196 279 194 275 q 208 295 204 285 q 210 315 213 306 q 201 332 208 325 q 179 339 193 339 q 150 325 160 339 q 140 296 140 311 q 170 259 140 267 q 235 251 200 251 q 333 256 278 251 q 439 270 389 261 q 523 294 489 279 q 557 331 557 310 q 526 361 557 347 q 450 391 496 375 q 350 426 404 407 q 250 474 296 446 q 174 538 204 501 q 143 626 143 575 q 176 725 143 676 q 260 815 208 774 q 378 888 313 857 q 511 933 444 919 q 510 965 511 950 q 510 993 510 981 q 523 1019 510 1008 q 547 1029 536 1029 l 678 1029 q 706 1018 694 1029 q 717 992 717 1007 q 707 965 717 978 q 682 928 697 951 q 751 874 726 910 q 776 794 776 838 q 751 710 776 749 q 687 646 725 672 q 604 605 649 619 q 522 590 560 590 q 466 609 489 590 q 443 656 443 628 q 451 694 443 675 q 473 729 460 714 q 503 754 486 744 q 539 764 521 764 q 565 756 560 764 q 567 749 568 751 z "},"£":{"ha":1106,"x_min":-35,"x_max":969,"o":"m 729 1057 q 825 1042 781 1057 q 901 1001 869 1026 q 951 940 933 975 q 969 868 969 906 q 937 763 969 810 q 856 681 904 715 q 752 629 808 647 q 649 611 696 611 q 577 634 606 611 q 549 693 549 657 q 559 741 549 717 q 586 785 569 765 q 625 818 603 806 q 671 831 647 831 q 693 827 686 831 q 703 821 700 824 q 706 811 707 815 q 690 792 694 804 q 687 767 685 779 q 699 745 689 754 q 725 736 708 736 q 762 756 749 736 q 775 803 775 776 q 753 853 775 829 q 686 876 731 876 q 608 856 654 876 q 519 798 561 836 q 446 706 476 760 q 415 585 415 651 q 417 550 415 565 q 422 521 419 535 q 503 522 471 521 q 539 524 536 522 q 571 529 560 526 q 590 529 582 532 q 600 519 597 526 q 599 504 603 513 q 587 475 594 494 q 571 435 579 456 q 556 396 563 414 q 547 372 549 378 q 537 363 544 368 q 522 361 529 358 l 493 375 q 465 376 492 375 q 400 376 438 376 q 359 324 383 351 q 310 269 335 296 q 401 252 360 265 q 481 224 443 239 q 556 197 518 210 q 636 183 593 185 q 688 199 671 183 q 711 233 706 214 q 713 269 717 251 q 704 290 710 286 q 715 304 708 299 q 734 315 722 310 q 767 319 746 319 q 837 288 808 319 q 865 206 865 256 q 854 147 865 182 q 813 78 843 111 q 731 23 783 46 q 596 0 678 0 q 520 8 563 0 q 432 26 478 17 q 340 44 386 36 q 256 53 294 53 q 192 45 218 53 q 144 28 165 38 q 101 11 122 19 q 51 1 79 3 q 42 0 47 0 q -12 18 10 -1 q -35 81 -35 38 q -10 149 -35 113 q 50 223 15 185 q 121 300 85 261 q 179 378 157 339 q 135 377 151 378 q 117 376 119 376 q 85 370 97 374 q 67 369 74 367 q 57 396 50 376 q 69 424 61 404 q 85 464 76 443 q 100 503 93 485 q 110 526 107 521 q 119 536 113 532 q 133 538 126 540 l 163 525 q 189 524 164 524 q 172 578 181 550 q 164 640 164 607 q 193 756 164 701 q 269 857 222 811 q 377 940 317 903 q 500 1003 438 978 q 622 1043 563 1029 q 729 1057 682 1057 z "},"¥":{"ha":1306,"x_min":136,"x_max":1408,"o":"m 1263 753 q 1224 653 1250 715 q 1150 526 1197 592 q 1031 403 1103 461 q 856 315 958 344 q 854 313 854 314 q 897 314 881 314 q 914 315 913 314 q 946 321 935 318 q 965 321 957 324 q 975 311 972 318 q 974 296 978 304 q 962 267 969 286 q 946 226 954 247 q 931 188 938 206 q 922 164 924 169 q 912 155 919 160 q 897 153 904 150 l 868 167 q 847 167 867 167 q 799 168 828 168 q 775 100 775 108 q 776 66 775 82 q 776 36 776 50 q 763 10 776 21 q 738 0 749 0 l 536 0 q 507 11 518 0 q 496 38 496 22 q 511 72 496 54 q 547 125 526 89 q 553 138 547 126 q 568 171 558 150 q 513 169 532 169 q 492 168 494 168 q 461 162 472 165 q 442 161 450 158 q 432 186 425 168 q 444 215 436 196 q 460 256 451 235 q 475 294 468 276 q 485 318 482 311 q 494 328 488 324 q 508 329 501 332 l 539 317 q 556 315 540 315 q 594 314 571 315 q 515 392 542 340 q 494 511 488 444 q 508 572 497 543 q 531 628 518 600 q 553 683 543 656 q 567 739 564 710 q 565 782 568 760 q 551 824 561 804 q 522 856 540 843 q 474 868 503 868 q 388 842 425 868 q 346 769 350 815 q 353 740 343 750 q 378 729 363 729 q 413 744 399 729 q 429 778 426 758 q 425 797 429 790 q 421 803 422 801 q 425 813 421 807 q 453 824 433 824 q 480 815 469 824 q 497 793 490 807 q 505 763 503 779 q 506 731 507 747 q 478 647 501 688 q 422 576 456 607 q 347 528 389 546 q 263 510 306 510 q 208 522 232 510 q 167 553 183 533 q 144 602 151 574 q 139 664 136 631 q 181 798 146 732 q 272 915 215 864 q 405 998 329 967 q 569 1029 481 1029 q 686 1007 639 1029 q 761 949 733 985 q 799 869 789 914 q 804 776 808 824 q 793 715 801 742 q 776 663 785 688 q 760 615 768 639 q 750 565 753 592 q 760 524 747 536 q 792 511 772 511 q 886 543 838 511 q 976 629 935 575 q 1047 754 1018 683 q 1085 904 1076 825 l 1089 963 q 1099 983 1090 975 q 1117 996 1107 992 q 1142 1003 1128 1001 q 1236 1015 1193 1010 q 1307 1025 1272 1021 q 1353 1029 1342 1029 q 1406 992 1408 1029 q 1329 917 1361 976 q 1263 753 1297 857 z "},"ß":{"ha":1190,"x_min":-92,"x_max":1000,"o":"m 1000 868 q 976 765 1000 811 q 917 682 953 719 q 841 615 882 644 q 765 559 800 585 q 706 511 729 533 q 682 467 682 489 q 701 430 682 447 q 747 396 719 413 q 808 361 775 379 q 869 320 842 343 q 916 269 897 297 q 935 204 935 240 q 897 106 935 150 q 799 33 860 63 q 658 -13 738 3 q 496 -29 579 -29 q 424 -22 460 -29 q 359 2 388 -14 q 313 43 331 18 q 294 103 294 68 q 310 174 294 140 q 350 234 325 208 q 408 275 375 260 q 475 290 440 290 q 504 285 494 290 q 518 275 514 281 q 522 261 524 269 q 505 244 514 256 q 496 218 496 232 q 503 201 496 207 q 522 193 511 196 q 544 190 532 190 q 563 189 556 189 q 606 189 583 189 q 645 192 628 189 q 674 201 663 194 q 686 219 686 207 q 670 240 686 229 q 630 263 654 250 q 577 294 606 276 q 524 334 549 311 q 484 387 500 357 q 468 456 468 417 q 489 521 468 490 q 542 578 510 551 q 610 631 574 606 q 679 684 647 657 q 732 740 711 711 q 753 803 753 768 q 730 853 753 829 q 663 876 707 876 q 594 863 631 876 q 523 822 558 849 q 457 758 488 796 q 408 675 426 721 q 407 674 407 674 q 366 571 389 629 q 319 450 343 513 q 271 326 294 388 q 228 216 247 265 q 198 135 210 167 q 186 100 186 103 q 187 66 186 82 q 188 36 188 50 q 174 10 188 21 q 149 0 160 0 l -53 0 q -81 11 -71 0 q -92 38 -92 22 q -77 72 -92 54 q -42 125 -62 89 q -26 158 -40 128 q 8 238 -12 189 q 57 349 29 286 q 113 479 85 413 q 168 613 140 546 q 218 736 196 679 l 218 738 q 303 867 246 808 q 431 969 361 926 q 575 1034 501 1011 q 707 1057 649 1057 q 842 1042 786 1057 q 933 1001 897 1026 q 984 940 968 975 q 1000 868 1000 906 z "},".":{"ha":638,"x_min":71,"x_max":368,"o":"m 278 292 q 347 260 326 292 q 368 192 368 229 q 353 119 368 157 q 311 48 339 81 q 244 -6 283 15 q 158 -28 206 -28 q 95 0 119 -28 q 71 72 71 28 q 88 155 71 115 q 132 225 104 194 q 198 274 160 256 q 278 292 236 292 z "},",":{"ha":638,"x_min":-18,"x_max":361,"o":"m 269 292 q 340 260 318 292 q 361 192 361 229 q 344 110 361 151 q 300 43 326 69 q 246 -19 279 19 q 181 -94 213 -58 q 127 -158 150 -131 q 104 -186 104 -185 l 96 -207 q 88 -215 93 -211 q 79 -218 82 -218 l -6 -218 q -12 -206 -18 -218 q -3 -194 -10 -200 q 15 -178 4 -189 l 144 -28 q 85 3 108 -25 q 63 72 63 31 q 79 155 63 115 q 124 225 96 194 q 190 274 153 256 q 269 292 228 292 z "},":":{"ha":660,"x_min":76,"x_max":553,"o":"m 283 292 q 353 260 332 292 q 374 192 374 229 q 359 119 374 157 q 317 48 344 81 q 250 -6 289 15 q 164 -28 211 -28 q 101 0 125 -28 q 76 72 76 28 q 93 155 76 115 q 138 225 110 194 q 203 274 165 256 q 283 292 242 292 m 343 414 q 280 442 304 414 q 256 514 256 469 q 272 596 256 557 q 317 665 289 635 q 383 714 344 696 q 463 732 421 732 q 532 701 511 732 q 553 633 553 671 q 538 560 553 599 q 496 490 524 522 q 429 435 468 457 q 343 414 390 414 z "},";":{"ha":667,"x_min":-1,"x_max":554,"o":"m 285 292 q 354 260 333 292 q 375 192 375 229 q 357 109 375 147 q 311 40 339 71 q 258 -23 290 15 q 194 -97 225 -61 q 142 -159 164 -133 q 119 -186 119 -185 l 111 -207 q 103 -215 108 -211 q 94 -218 97 -218 l 10 -218 q 1 -206 -1 -218 q 12 -194 4 -200 q 31 -178 19 -189 l 160 -28 q 101 3 124 -25 q 78 72 78 31 q 94 155 78 115 q 139 225 111 194 q 205 274 167 256 q 285 292 243 292 m 464 732 q 533 701 513 732 q 554 633 554 671 q 540 560 554 599 q 497 490 525 522 q 431 435 469 457 q 344 414 392 414 q 281 442 306 414 q 257 514 257 469 q 274 596 257 557 q 318 665 290 635 q 384 714 346 696 q 464 732 422 732 z "},"…":{"ha":1389,"x_min":64,"x_max":1103,"o":"m 271 292 q 340 260 319 292 q 361 192 361 229 q 347 119 361 157 q 304 48 332 81 q 238 -6 276 15 q 151 -28 199 -28 q 88 0 113 -28 q 64 72 64 28 q 81 155 64 115 q 125 225 97 194 q 191 274 153 256 q 271 292 229 292 m 642 292 q 711 260 690 292 q 732 192 732 229 q 717 119 732 157 q 675 48 703 81 q 608 -6 647 15 q 522 -28 569 -28 q 459 0 483 -28 q 435 72 435 28 q 451 155 435 115 q 496 225 468 194 q 562 274 524 256 q 642 292 600 292 m 1013 292 q 1082 260 1061 292 q 1103 192 1103 229 q 1088 119 1103 157 q 1046 48 1074 81 q 979 -6 1018 15 q 893 -28 940 -28 q 830 0 854 -28 q 806 72 806 28 q 822 155 806 115 q 867 225 839 194 q 933 274 894 256 q 1013 292 971 292 z "},"‚":{"ha":624,"x_min":-18,"x_max":361,"o":"m 271 292 q 340 260 319 292 q 361 192 361 229 q 347 122 361 160 q 300 43 332 85 q 247 -19 279 19 q 183 -94 214 -58 q 128 -158 151 -131 q 106 -186 106 -185 l 97 -207 q 89 -215 94 -211 q 79 -218 83 -218 l -6 -218 q -12 -206 -18 -218 q -2 -194 -10 -200 q 17 -178 6 -189 l 146 -28 q 87 3 110 -25 q 64 72 64 31 q 81 155 64 115 q 125 225 97 194 q 191 274 153 256 q 271 292 229 292 z "},"„":{"ha":978,"x_min":-18,"x_max":707,"o":"m 301 43 q 247 -19 281 19 q 183 -94 214 -58 q 128 -158 151 -131 q 106 -186 106 -185 l 97 -207 q 89 -215 94 -211 q 81 -218 83 -218 l -4 -218 q -11 -206 -18 -218 q -1 -194 -8 -200 q 17 -178 6 -189 l 146 -28 q 87 3 110 -25 q 64 72 64 31 q 81 155 64 115 q 125 225 97 194 q 191 274 153 256 q 271 292 229 292 q 340 260 319 292 q 361 192 361 229 q 343 111 361 147 q 301 43 325 75 m 617 292 q 686 260 665 292 q 707 192 707 229 q 689 111 707 147 q 647 43 671 75 q 593 -19 626 19 q 528 -94 560 -58 q 474 -158 497 -131 q 451 -186 451 -185 l 443 -207 q 435 -215 440 -211 q 426 -218 429 -218 l 342 -218 q 335 -206 328 -218 q 344 -194 338 -200 q 363 -178 351 -189 l 492 -28 q 433 3 456 -25 q 410 72 410 31 q 426 155 410 115 q 471 225 443 194 q 537 274 499 256 q 617 292 575 292 z "},"'":{"ha":346,"x_min":49,"x_max":428,"o":"m 139 547 q 69 578 90 547 q 49 647 49 610 q 65 725 49 685 q 110 794 81 765 q 163 858 131 819 q 227 933 196 896 q 281 997 258 969 q 304 1025 304 1024 l 313 1044 q 321 1053 315 1050 q 331 1057 326 1057 l 415 1057 q 422 1044 428 1057 q 412 1033 419 1039 q 393 1017 404 1028 q 381 1003 393 1017 q 351 967 369 989 q 310 919 332 946 q 265 865 288 892 q 324 835 301 863 q 346 767 346 808 q 329 684 346 724 q 285 614 313 644 q 219 565 257 583 q 139 547 181 547 z "},"\"":{"ha":686,"x_min":56,"x_max":781,"o":"m 461 794 q 515 858 482 819 q 580 933 549 896 q 634 997 611 969 q 657 1025 657 1024 l 665 1044 q 674 1053 668 1050 q 682 1057 679 1057 l 767 1057 q 775 1044 781 1057 q 765 1033 772 1039 q 746 1017 757 1028 l 617 865 q 676 835 653 863 q 699 767 699 808 q 682 684 699 724 q 638 614 665 644 q 572 565 610 583 q 492 547 533 547 q 422 578 443 547 q 401 647 401 610 q 417 725 401 685 q 461 794 433 765 m 353 767 q 336 684 353 724 q 292 614 319 644 q 226 565 264 583 q 146 547 188 547 q 76 578 97 547 q 56 647 56 610 q 69 717 56 679 q 115 794 83 754 q 169 858 136 819 q 234 933 203 896 q 288 997 265 969 q 311 1025 311 1024 l 319 1044 q 328 1053 322 1050 q 336 1057 333 1057 l 421 1057 q 428 1044 435 1057 q 418 1033 425 1039 q 400 1017 411 1028 l 271 865 q 330 835 307 863 q 353 767 353 808 z "},"‘":{"ha":339,"x_min":49,"x_max":428,"o":"m 139 547 q 69 578 90 547 q 49 647 49 610 q 66 727 49 685 q 110 794 83 769 q 163 858 131 819 q 227 933 196 896 q 281 997 258 969 q 304 1025 304 1024 l 313 1044 q 321 1053 315 1050 q 331 1057 326 1057 l 415 1057 q 422 1044 428 1057 q 412 1033 419 1039 q 393 1017 404 1028 q 381 1003 393 1017 q 351 967 369 989 q 310 919 332 946 q 265 865 288 892 q 324 835 301 863 q 346 767 346 808 q 329 684 346 724 q 285 614 313 644 q 219 565 257 583 q 139 547 181 547 z "},"’":{"ha":347,"x_min":46,"x_max":425,"o":"m 51 560 q 61 571 54 565 q 79 588 68 576 l 208 739 q 149 769 172 742 q 126 838 126 796 q 143 920 126 881 q 188 990 160 960 q 254 1039 217 1021 q 333 1057 292 1057 q 403 1026 382 1057 q 425 957 425 994 q 408 876 425 917 q 364 810 390 836 q 310 747 343 785 q 245 672 276 708 q 191 608 214 635 q 168 579 168 581 l 160 560 q 151 551 157 554 q 143 547 146 547 l 58 547 q 51 560 46 547 z "},"“":{"ha":701,"x_min":57,"x_max":781,"o":"m 768 1057 q 775 1044 781 1057 q 765 1033 772 1039 q 747 1017 758 1028 l 618 865 q 677 835 654 863 q 700 767 700 808 q 683 684 700 724 q 639 614 667 644 q 573 565 611 583 q 493 547 535 547 q 424 578 444 547 q 403 647 403 610 q 417 716 403 679 q 458 789 431 753 q 513 852 479 813 q 578 930 546 892 q 634 996 610 968 q 658 1025 658 1024 l 667 1044 q 675 1053 669 1050 q 683 1057 681 1057 l 768 1057 m 429 1044 q 419 1033 426 1039 q 401 1017 413 1028 l 272 865 q 331 835 308 863 q 354 767 354 808 q 338 684 354 724 q 293 614 321 644 q 227 565 265 583 q 147 547 189 547 q 78 578 99 547 q 57 647 57 610 q 71 716 57 679 q 113 789 85 753 q 167 852 133 813 q 232 930 200 892 q 288 996 264 968 q 313 1025 313 1024 l 321 1044 q 329 1053 324 1050 q 338 1057 335 1057 l 422 1057 q 429 1044 435 1057 z "},"”":{"ha":693,"x_min":44,"x_max":769,"o":"m 708 810 q 655 747 688 785 q 591 672 622 708 q 537 608 560 635 q 514 579 514 581 l 504 560 q 497 551 503 554 q 488 547 490 547 l 403 547 q 396 560 390 547 q 406 571 399 565 q 424 588 413 576 l 553 739 q 494 769 517 742 q 471 838 471 796 q 488 920 471 881 q 533 990 504 960 q 599 1039 561 1021 q 679 1057 638 1057 q 748 1026 726 1057 q 769 957 769 994 q 753 877 769 917 q 708 810 736 838 m 363 810 q 309 747 342 785 q 245 672 276 708 q 191 608 214 635 q 168 579 168 581 l 158 560 q 151 551 157 554 q 142 547 144 547 l 57 547 q 50 560 44 547 q 60 571 53 565 q 78 588 67 576 l 207 739 q 148 769 171 742 q 125 838 125 796 q 142 920 125 881 q 187 990 158 960 q 253 1039 215 1021 q 333 1057 292 1057 q 402 1026 381 1057 q 424 957 424 994 q 409 888 424 925 q 363 810 394 850 z "},"·":{"ha":503,"x_min":135,"x_max":432,"o":"m 342 674 q 411 642 390 674 q 432 574 432 611 q 417 501 432 539 q 375 430 403 463 q 308 376 347 397 q 222 356 269 356 q 159 383 183 356 q 135 454 135 410 q 151 537 135 497 q 196 607 168 576 q 262 656 224 638 q 342 674 300 674 z "},"•":{"ha":758,"x_min":171,"x_max":671,"o":"m 519 782 q 588 767 560 782 q 635 730 617 753 q 663 676 654 707 q 671 615 671 646 q 646 492 671 557 q 575 373 621 428 q 463 282 529 318 q 317 246 397 246 q 211 293 251 246 q 171 414 171 340 q 199 553 171 486 q 274 670 226 619 q 385 751 322 721 q 519 782 449 782 z "},"-":{"ha":914,"x_min":165,"x_max":821,"o":"m 804 593 q 814 568 821 588 q 802 540 810 560 q 786 500 794 521 q 771 461 778 479 q 761 438 764 443 q 751 428 758 432 q 738 426 744 424 q 724 433 731 429 q 708 439 717 436 q 665 441 706 440 q 571 444 625 442 q 481 444 538 444 q 369 442 424 443 q 274 441 314 442 q 232 440 233 440 q 201 435 213 438 q 182 435 190 432 q 172 460 165 442 q 184 488 176 468 q 200 528 192 507 q 215 567 208 549 q 225 592 222 585 q 235 600 228 596 q 249 601 242 604 q 263 595 256 599 q 279 589 269 592 q 318 588 281 589 q 406 587 356 588 q 506 585 456 586 q 583 585 556 585 q 647 585 617 585 q 701 586 678 586 q 738 587 724 586 q 754 588 753 588 q 785 594 774 590 q 804 593 797 597 z "},"–":{"ha":1049,"x_min":182,"x_max":956,"o":"m 939 593 q 949 568 956 588 q 937 540 944 560 q 921 500 929 521 q 906 461 913 479 q 896 438 899 443 q 886 428 893 432 q 872 426 879 424 q 858 433 865 429 q 843 439 851 436 q 800 441 840 440 q 704 444 760 442 q 640 444 682 444 q 547 443 597 443 q 443 442 496 443 q 347 442 390 442 q 274 441 303 442 q 246 440 246 440 q 214 435 225 438 q 194 435 203 432 q 185 444 188 438 q 186 460 182 451 l 238 592 q 248 600 240 596 q 263 601 256 604 q 276 595 269 599 q 292 589 283 592 q 319 588 292 589 q 388 588 346 588 q 479 587 429 588 q 576 586 529 586 q 662 585 624 586 q 718 585 700 585 q 782 585 751 585 q 835 586 813 586 q 873 587 858 586 q 889 588 888 588 q 920 594 908 590 q 939 593 932 597 z "},"—":{"ha":1508,"x_min":165,"x_max":1417,"o":"m 1403 593 q 1413 583 1410 590 q 1413 568 1417 576 q 1401 540 1408 560 q 1385 500 1393 521 q 1369 461 1376 479 q 1360 438 1363 443 q 1350 428 1357 432 q 1336 426 1343 424 q 1322 433 1329 429 q 1307 439 1315 436 q 1264 441 1304 440 q 1169 444 1224 442 q 1069 444 1147 444 q 888 443 992 443 q 669 442 783 443 q 457 442 554 442 q 297 441 360 442 q 232 440 233 440 q 201 435 213 438 q 182 435 189 432 q 172 460 165 442 l 225 592 q 235 600 228 596 q 249 601 242 604 q 263 595 256 599 q 278 589 269 592 q 315 588 279 589 q 411 588 351 588 q 547 588 471 588 q 705 587 624 588 q 866 586 786 586 q 1012 586 946 586 q 1124 585 1078 586 q 1183 585 1169 585 q 1247 585 1217 585 q 1299 586 1276 586 q 1337 587 1322 586 q 1353 588 1351 588 q 1385 594 1374 590 q 1403 593 1396 597 z "},"<":{"ha":978,"x_min":154,"x_max":1022,"o":"m 919 714 q 901 708 918 714 q 828 678 885 701 q 666 612 772 656 q 379 494 560 568 q 571 378 500 421 q 679 313 642 336 q 728 284 717 290 q 742 278 740 278 q 756 278 749 278 q 768 276 763 278 q 777 270 775 276 q 776 260 779 264 q 766 238 774 254 q 749 202 758 221 q 732 165 740 183 q 719 139 724 147 q 696 124 713 124 q 685 131 689 125 q 669 147 681 138 q 583 200 632 169 q 481 263 533 231 q 376 325 428 294 q 284 380 325 356 q 218 419 243 404 q 192 435 193 435 q 178 436 185 436 q 165 436 171 436 q 156 442 158 436 q 157 453 154 449 q 166 474 158 456 q 182 515 174 493 q 198 554 190 536 q 206 575 206 572 q 215 587 208 581 q 228 593 221 593 l 256 593 q 527 703 414 657 q 718 782 640 750 q 844 833 796 814 q 917 863 892 853 q 951 878 943 874 q 961 882 960 882 q 990 898 979 892 q 1007 906 1000 904 q 1017 890 1022 906 q 1006 858 1014 882 q 991 808 999 833 q 976 760 983 782 q 968 732 969 738 q 960 722 967 728 q 947 715 954 715 q 934 715 940 715 q 919 714 928 715 z "},">":{"ha":1049,"x_min":103,"x_max":969,"o":"m 960 593 q 967 587 965 593 q 967 575 969 581 q 958 554 965 572 q 942 514 950 536 q 926 474 933 492 q 918 453 919 456 q 910 442 917 449 q 897 436 904 436 q 883 436 890 436 q 869 435 876 436 l 164 147 q 135 131 144 138 q 118 124 125 125 q 107 139 103 124 q 117 171 110 147 q 133 221 125 194 q 147 269 140 247 q 156 297 154 292 q 164 307 158 301 q 176 314 169 313 q 190 314 183 314 q 204 315 197 314 l 746 533 q 553 650 625 607 q 444 715 482 693 q 395 744 407 738 q 382 751 383 751 l 356 751 q 347 759 349 753 q 349 769 346 765 q 359 792 351 775 q 376 827 367 808 q 392 864 385 846 q 404 890 400 882 q 428 906 414 906 q 439 898 435 904 q 454 882 443 892 l 932 593 l 960 593 z "},"‹":{"ha":900,"x_min":147,"x_max":850,"o":"m 629 151 q 636 146 635 151 q 636 136 638 140 l 578 14 q 569 3 575 7 q 558 0 564 -1 q 547 6 551 0 q 533 21 543 13 q 507 40 533 21 q 442 89 481 60 q 358 151 403 118 q 273 213 313 185 q 207 261 233 242 q 181 281 181 281 q 167 282 174 282 q 156 282 161 282 q 149 288 150 282 q 150 297 147 293 q 158 317 151 300 q 172 353 164 333 q 186 390 179 374 q 193 408 193 406 q 199 421 194 413 q 211 429 203 429 q 228 427 222 429 q 238 425 235 425 q 279 444 238 425 q 383 492 321 464 q 517 554 444 521 q 651 617 589 588 q 754 665 713 646 q 797 685 796 685 q 822 699 813 693 q 838 706 831 706 q 847 703 844 707 q 847 692 850 699 q 838 660 844 683 q 822 611 831 638 q 807 563 814 585 q 799 536 800 542 q 792 526 797 532 q 781 521 786 521 q 769 521 775 521 q 756 519 763 521 q 714 499 754 519 q 615 449 674 478 q 490 388 556 419 q 372 335 424 356 q 443 278 403 310 q 519 218 483 246 q 578 172 554 190 q 604 153 603 153 q 617 151 611 151 q 629 151 624 151 z "},"›":{"ha":886,"x_min":50,"x_max":751,"o":"m 743 424 q 750 417 749 422 q 750 408 751 413 q 742 389 749 406 q 727 352 735 372 q 713 315 719 332 q 706 297 707 299 q 700 285 704 293 q 689 276 696 276 q 672 278 678 276 q 663 281 665 281 q 637 269 661 281 q 574 240 613 258 q 485 199 535 222 q 383 151 435 175 q 281 103 331 126 q 191 62 231 81 q 127 32 151 43 q 103 21 103 21 q 77 6 86 13 q 61 0 68 0 q 53 3 56 -1 q 53 14 50 7 q 62 45 54 22 q 77 94 69 68 q 92 142 85 121 q 100 169 99 164 q 107 179 101 174 q 119 185 113 185 q 131 185 125 185 q 144 186 138 185 q 164 196 144 186 q 215 221 183 206 q 285 256 246 236 q 367 297 325 276 q 451 338 410 318 q 528 371 493 357 q 456 428 496 396 q 381 488 417 460 q 321 534 346 515 q 294 553 296 553 q 282 554 288 554 q 271 554 276 554 q 263 560 264 554 q 264 569 261 565 q 274 592 265 575 q 291 628 282 608 q 308 665 300 647 q 321 692 317 683 q 329 703 324 699 q 342 706 335 707 q 352 699 349 706 q 365 685 356 693 q 392 665 365 685 q 457 617 418 646 q 542 554 496 588 q 626 492 588 521 q 691 444 665 464 q 718 425 717 425 q 731 424 725 424 q 743 424 738 424 z "},"«":{"ha":1361,"x_min":133,"x_max":1319,"o":"m 615 151 q 622 146 621 151 q 622 136 624 140 q 612 114 619 131 q 594 78 604 97 q 576 40 585 58 q 565 14 568 22 q 556 3 561 7 q 544 0 550 -1 q 534 6 538 0 q 519 21 531 13 q 493 40 519 21 q 428 89 467 60 q 344 151 389 118 q 259 213 299 185 q 193 261 219 242 q 167 281 167 281 q 153 282 160 282 q 143 282 147 282 q 135 288 136 282 q 136 297 133 293 q 144 317 138 300 q 158 353 150 333 q 172 390 165 374 q 179 408 179 406 q 185 421 182 413 q 197 429 189 429 q 215 427 208 429 q 224 425 221 425 q 265 444 224 425 q 369 492 307 464 q 503 554 431 521 q 637 617 575 588 q 740 665 699 646 q 783 685 782 685 q 808 699 799 693 q 824 706 817 706 q 833 703 831 707 q 833 692 836 699 q 824 660 831 683 q 808 611 817 638 q 793 563 800 585 q 785 536 786 542 q 778 526 783 532 q 767 521 774 521 q 755 521 761 521 q 742 519 749 521 q 700 499 740 519 q 601 449 660 478 q 476 388 542 419 q 358 335 410 356 q 429 278 389 310 q 505 218 469 246 q 565 172 540 190 q 590 153 589 153 q 603 151 597 151 q 615 151 610 151 m 1250 521 q 1238 521 1244 521 q 1225 519 1232 521 q 1183 499 1224 519 q 1084 449 1143 478 q 959 388 1025 419 q 842 335 893 356 q 913 278 872 310 q 988 218 953 246 q 1048 172 1024 190 q 1074 153 1072 153 q 1087 151 1081 151 q 1099 151 1093 151 q 1106 146 1104 151 q 1106 136 1107 140 q 1095 114 1103 131 q 1078 78 1088 97 q 1060 40 1068 58 q 1049 14 1051 22 q 1039 3 1044 7 q 1028 0 1033 -1 q 1017 6 1021 0 q 1003 21 1014 13 q 976 40 1003 21 q 911 89 950 60 q 827 151 872 118 q 742 213 782 185 q 676 261 703 242 q 650 281 650 281 q 637 282 643 282 q 626 282 631 282 q 618 288 619 282 q 619 297 617 293 q 627 317 621 300 q 641 353 633 333 q 656 390 649 374 q 663 408 663 406 q 669 421 665 413 q 681 429 672 429 q 698 427 692 429 q 707 425 704 425 q 749 444 707 425 q 852 492 790 464 q 986 554 914 521 q 1120 617 1058 588 q 1224 665 1182 646 q 1267 685 1265 685 q 1291 699 1282 693 q 1307 706 1300 706 q 1317 703 1314 707 q 1317 692 1319 699 q 1307 660 1314 683 q 1292 611 1300 638 q 1276 563 1283 585 q 1268 536 1269 542 q 1262 526 1267 532 q 1250 521 1257 521 z "},"»":{"ha":1354,"x_min":26,"x_max":1214,"o":"m 1204 424 q 1212 417 1210 422 q 1211 408 1214 413 q 1203 389 1210 406 q 1188 352 1196 372 q 1174 315 1181 332 q 1167 297 1168 299 q 1161 285 1165 293 q 1149 276 1157 276 q 1132 278 1139 276 q 1122 281 1125 281 q 1080 261 1121 281 q 977 213 1039 242 q 843 151 915 185 q 709 89 771 118 q 606 40 647 60 q 564 21 565 21 q 538 6 547 13 q 522 0 529 0 q 513 3 517 -1 q 513 14 510 7 q 522 45 515 22 q 538 94 529 68 q 552 142 546 121 q 561 169 558 164 q 568 179 563 174 q 581 185 574 185 q 592 185 586 185 q 606 186 599 185 q 625 196 606 186 q 676 221 644 206 q 747 256 707 236 q 828 297 786 276 q 913 338 871 318 q 989 371 954 357 q 917 428 957 396 q 842 488 878 460 q 782 534 807 515 q 756 553 757 553 q 743 554 749 554 q 732 554 738 554 q 724 560 725 554 q 725 569 722 565 q 735 592 726 575 q 752 628 743 608 q 769 665 761 647 q 782 692 778 683 q 790 703 785 699 q 803 706 796 707 q 813 699 810 706 q 826 685 817 693 q 853 665 826 685 q 918 617 879 646 q 1003 554 957 588 q 1088 492 1049 521 q 1152 444 1126 464 q 1179 425 1178 425 q 1192 424 1186 424 q 1204 424 1199 424 m 665 276 q 649 278 656 276 q 639 281 642 281 q 615 269 639 281 q 551 240 590 258 q 461 199 511 222 q 359 151 411 175 q 258 103 307 126 q 169 62 208 81 q 105 32 129 43 q 81 21 81 21 q 55 6 64 13 q 39 0 46 0 q 30 3 33 -1 q 29 14 26 7 q 39 45 32 22 q 54 94 46 68 q 69 142 63 121 q 78 169 75 164 q 85 179 79 174 q 97 185 90 185 q 109 185 103 185 q 122 186 115 185 q 142 196 122 186 q 192 221 161 206 q 263 256 224 236 q 345 297 303 276 q 429 338 388 318 q 506 371 471 357 q 434 428 474 396 q 359 488 394 460 q 299 534 324 515 q 272 553 274 553 q 260 554 265 554 q 249 554 254 554 q 240 560 242 554 q 242 569 239 565 q 251 592 243 575 q 269 628 260 608 q 286 665 278 647 q 299 692 294 683 q 307 703 301 699 q 319 706 313 707 q 330 699 326 706 q 343 685 333 693 q 369 665 343 685 q 435 617 396 646 q 519 554 474 588 q 604 492 565 521 q 669 444 643 464 q 696 425 696 425 q 709 424 703 424 q 721 424 715 424 q 728 417 726 422 q 728 408 731 413 q 719 389 726 406 q 705 352 713 372 q 691 315 697 332 q 683 297 685 299 q 678 285 682 293 q 665 276 674 276 z "},"/":{"ha":971,"x_min":-3,"x_max":1092,"o":"m 1060 1083 q 1085 1072 1078 1083 q 1085 1046 1092 1061 q 1056 1012 1078 1029 q 1001 958 1035 994 q 970 919 1000 957 q 893 822 940 882 q 785 686 846 763 q 663 530 725 610 q 540 374 600 450 q 432 237 479 297 q 356 139 385 176 q 326 100 326 101 q 315 66 319 82 q 303 36 310 50 q 280 10 297 21 q 251 0 263 0 l 29 0 q 4 11 11 0 q 4 38 -3 22 q 33 72 11 54 q 86 125 54 89 q 117 164 88 126 q 194 261 147 201 q 302 397 242 321 q 426 553 363 474 q 549 710 489 633 q 656 847 608 786 q 732 944 703 907 q 763 983 761 982 q 774 1017 769 1001 q 785 1047 779 1033 q 809 1073 792 1063 q 838 1083 826 1083 l 1060 1083 z "},"\\":{"ha":822,"x_min":-57,"x_max":539,"o":"m 494 125 q 525 72 511 89 q 538 38 539 54 q 524 11 536 22 q 496 0 513 0 l 301 0 q 277 10 290 0 q 265 36 264 21 q 269 66 267 50 q 272 100 271 82 q 260 139 272 101 q 228 237 249 176 q 183 374 208 297 q 132 530 158 450 q 80 686 106 610 q 34 822 54 763 q 1 919 14 882 q -11 958 -11 957 q -43 1012 -29 994 q -56 1046 -57 1029 q -42 1072 -53 1061 q -12 1083 -31 1083 l 181 1083 q 205 1073 192 1083 q 217 1047 218 1063 l 210 983 q 222 944 210 982 q 253 847 233 907 q 299 710 274 786 q 350 553 324 633 q 402 397 376 474 q 448 261 428 321 q 481 164 468 201 q 494 125 493 126 z "},"?":{"ha":921,"x_min":106,"x_max":933,"o":"m 933 804 q 900 665 933 724 q 816 561 867 606 q 706 486 765 517 q 597 433 647 456 q 513 392 546 410 q 479 357 479 374 l 479 356 q 465 331 478 340 q 442 322 451 322 l 239 322 q 211 333 222 322 q 200 358 200 343 q 215 380 200 367 q 251 407 229 393 q 304 442 267 421 q 389 492 342 464 q 487 551 436 519 q 580 619 538 583 q 650 692 622 654 q 678 769 678 731 q 664 826 678 803 q 626 865 650 850 q 572 888 603 881 q 507 896 542 896 q 438 889 474 896 q 375 869 403 882 q 329 839 347 857 q 311 797 311 821 q 322 768 311 778 q 347 758 332 758 q 381 772 368 758 q 394 806 394 786 q 389 825 394 817 q 383 831 386 829 q 386 840 382 835 q 413 851 392 851 q 441 843 429 851 q 460 821 453 835 q 472 791 468 807 q 475 758 475 775 q 457 676 475 715 q 408 606 439 636 q 338 556 378 575 q 256 538 299 538 q 154 581 193 538 q 115 692 115 625 q 149 827 115 761 q 244 944 183 893 q 392 1026 306 994 q 585 1057 479 1057 q 716 1042 653 1057 q 827 997 779 1028 q 904 918 875 965 q 933 804 933 871 m 314 292 q 383 260 363 292 q 404 192 404 229 q 390 119 404 157 q 347 48 375 81 q 281 -6 319 15 q 193 -28 242 -28 q 131 0 156 -28 q 106 72 106 28 q 122 155 106 115 q 167 225 139 194 q 234 274 196 256 q 314 292 272 292 z "},"!":{"ha":617,"x_min":56,"x_max":685,"o":"m 236 321 q 208 332 219 321 q 197 358 197 343 q 213 393 197 375 q 247 446 228 411 q 256 482 247 447 q 276 563 265 517 q 301 653 288 608 q 322 721 314 699 q 386 874 365 825 q 407 929 407 924 q 406 963 407 947 q 406 993 406 979 q 419 1019 406 1008 q 444 1029 433 1029 l 646 1029 q 674 1018 664 1029 q 685 992 685 1007 q 669 957 685 975 q 635 904 654 939 q 629 893 633 901 q 616 864 625 885 q 592 808 607 843 q 557 721 578 774 q 536 674 550 703 q 506 613 522 646 q 471 546 489 579 q 438 485 453 513 q 415 440 424 458 q 406 422 406 422 q 406 388 406 403 q 407 357 407 372 q 393 331 407 342 q 368 321 379 321 l 236 321 m 353 192 q 338 119 353 157 q 296 48 324 81 q 229 -6 268 15 q 143 -28 190 -28 q 80 0 104 -28 q 56 72 56 28 q 72 155 56 115 q 117 225 89 194 q 183 274 144 256 q 263 292 221 292 q 332 260 311 292 q 353 192 353 229 z "},"¡":{"ha":567,"x_min":-186,"x_max":444,"o":"m 264 196 q 292 185 281 196 q 303 160 303 175 q 288 124 303 142 q 253 71 272 107 q 244 35 253 69 q 224 -45 235 0 q 199 -135 213 -90 q 178 -203 186 -181 q 113 -357 133 -308 q 93 -411 93 -406 q 94 -446 93 -431 q 94 -475 94 -461 q 81 -501 94 -490 q 56 -511 67 -511 l -146 -511 q -175 -501 -164 -511 q -186 -475 -186 -490 q -171 -440 -186 -457 q -135 -386 -156 -422 q -129 -376 -133 -385 q -116 -346 -125 -367 q -92 -290 -107 -325 q -57 -203 -78 -256 q -36 -157 -50 -186 q -6 -95 -22 -128 q 29 -28 11 -62 q 62 33 47 6 q 85 77 76 60 q 94 96 94 94 q 94 131 94 115 q 93 160 93 146 q 107 185 93 175 q 132 196 121 196 l 264 196 m 146 325 q 161 398 146 360 q 203 469 176 436 q 269 523 231 501 q 357 544 308 544 q 420 517 396 544 q 444 444 444 489 q 428 362 444 401 q 383 292 411 322 q 317 244 354 263 q 238 226 279 226 q 167 258 189 226 q 146 325 146 289 z "},"¿":{"ha":736,"x_min":-228,"x_max":599,"o":"m 450 -21 q 551 -65 513 -21 q 589 -175 589 -108 q 556 -310 589 -244 q 461 -426 522 -375 q 313 -508 400 -476 q 119 -539 225 -539 q -12 -524 51 -539 q -123 -478 -75 -510 q -199 -400 -171 -447 q -228 -286 -228 -353 q -194 -147 -228 -207 q -110 -44 -161 -87 q -1 31 -60 0 q 108 85 57 63 q 192 126 158 108 q 225 161 225 143 l 225 163 q 240 186 228 176 q 264 196 253 196 l 465 196 q 494 185 483 196 q 504 158 504 174 q 490 138 504 150 q 454 110 476 125 q 401 74 439 96 q 317 26 364 53 q 218 -34 269 -1 q 124 -102 167 -67 q 54 -175 82 -137 q 26 -251 26 -212 q 40 -308 26 -285 q 78 -348 54 -332 q 133 -372 101 -364 q 197 -379 164 -379 q 267 -372 232 -379 q 329 -353 301 -365 q 375 -322 357 -340 q 393 -281 393 -304 q 383 -251 393 -261 q 357 -240 372 -240 q 324 -255 336 -240 q 311 -289 311 -269 q 315 -308 311 -303 q 321 -314 318 -312 q 318 -325 321 -319 q 292 -335 313 -335 q 263 -326 275 -335 q 244 -304 251 -318 q 233 -274 236 -290 q 229 -242 229 -257 q 248 -158 229 -199 q 297 -87 267 -118 q 367 -39 328 -57 q 450 -21 407 -21 m 511 544 q 574 517 550 544 q 599 444 599 489 q 582 362 599 401 q 538 292 565 322 q 472 244 510 263 q 392 226 433 226 q 322 258 343 226 q 301 325 301 289 q 316 398 301 360 q 358 469 331 436 q 424 523 386 501 q 511 544 463 544 z "},"(":{"ha":1092,"x_min":78,"x_max":1164,"o":"m 894 875 q 749 827 819 875 q 617 699 679 779 q 501 516 554 619 q 410 302 449 413 q 351 83 372 192 q 331 -118 331 -26 q 332 -201 331 -158 q 341 -278 333 -243 q 365 -335 349 -312 q 414 -358 382 -358 q 466 -342 449 -358 q 488 -306 483 -326 q 490 -268 493 -286 q 481 -246 486 -250 q 492 -231 483 -237 q 511 -220 499 -225 q 543 -215 524 -215 q 614 -247 585 -215 q 643 -329 643 -279 q 628 -389 643 -353 q 578 -458 614 -425 q 485 -515 543 -492 q 339 -539 426 -539 q 245 -518 292 -539 q 161 -453 199 -497 q 101 -342 124 -410 q 78 -179 78 -274 q 106 92 78 -50 q 187 371 133 233 q 318 633 240 508 q 496 851 396 757 q 717 1001 596 946 q 979 1057 839 1057 q 1117 1025 1071 1057 q 1164 935 1164 993 q 1147 860 1164 896 q 1104 798 1131 825 q 1046 754 1078 771 q 983 738 1014 738 q 940 753 947 738 q 938 768 935 758 q 959 794 954 776 q 964 825 964 811 q 962 840 964 832 q 953 856 960 849 q 932 869 946 864 q 894 875 918 875 z "},")":{"ha":681,"x_min":-568,"x_max":518,"o":"m 257 1057 q 351 1036 304 1057 q 435 972 397 1015 q 495 860 472 928 q 518 697 518 792 q 490 426 518 568 q 409 147 463 285 q 278 -115 356 10 q 100 -333 200 -239 q -122 -483 0 -428 q -383 -539 -243 -539 q -522 -507 -475 -539 q -568 -417 -568 -475 q -551 -342 -568 -378 q -508 -280 -535 -307 q -450 -236 -482 -253 q -387 -219 -418 -219 q -358 -224 -368 -219 q -343 -235 -347 -229 q -340 -250 -337 -242 q -363 -276 -358 -258 q -368 -307 -368 -293 q -366 -322 -368 -314 q -357 -338 -364 -331 q -336 -351 -350 -346 q -299 -357 -322 -357 q -154 -309 -225 -357 q -21 -181 -83 -261 q 94 2 42 -101 q 185 216 147 106 q 244 435 224 326 q 265 636 265 544 q 264 718 265 675 q 255 796 263 761 q 231 853 247 831 q 183 876 214 876 q 131 860 149 876 q 108 824 114 844 q 106 786 103 804 q 115 764 108 768 q 104 749 111 754 q 85 738 97 742 q 53 733 72 733 q -17 765 11 733 q -46 847 -46 797 q -31 907 -46 871 q 18 976 -17 943 q 111 1033 53 1010 q 257 1057 169 1057 z "},"[":{"ha":815,"x_min":-178,"x_max":911,"o":"m 340 -340 q 350 -350 347 -343 q 349 -365 353 -357 l 289 -518 q 278 -526 286 -522 q 264 -528 271 -531 q 251 -522 257 -525 q 235 -515 244 -518 l -139 -511 q -167 -500 -156 -511 q -178 -474 -178 -489 q -162 -440 -178 -457 q -128 -386 -147 -422 q -103 -328 -126 -385 q -42 -178 -79 -271 q 44 31 -4 -86 q 142 271 92 149 q 240 510 192 393 q 324 720 288 628 q 384 870 361 813 q 407 929 407 928 q 406 963 407 947 q 406 993 406 979 q 419 1019 406 1008 q 443 1029 432 1029 q 751 1029 653 1026 q 849 1032 850 1032 q 879 1038 868 1035 q 899 1038 890 1040 q 908 1028 906 1035 q 908 1013 911 1021 q 895 981 904 1003 q 876 933 886 958 q 858 887 867 908 q 847 860 850 865 q 838 851 844 856 q 824 850 831 847 q 810 856 817 853 q 793 863 803 858 l 618 867 q 579 771 604 832 q 522 631 554 710 q 453 462 490 553 q 377 276 415 371 q 301 88 339 182 q 229 -88 263 -6 q 168 -239 196 -171 q 124 -350 140 -307 q 238 -348 190 -349 q 289 -346 286 -347 q 321 -340 310 -343 q 340 -340 332 -337 z "},"]":{"ha":610,"x_min":-408,"x_max":685,"o":"m 635 904 q 610 846 633 903 q 549 697 588 789 q 463 487 511 604 q 365 247 415 369 q 268 8 315 125 q 183 -202 221 -110 q 123 -352 146 -294 q 100 -411 100 -410 q 101 -445 100 -429 q 103 -475 103 -461 q 89 -501 103 -490 q 64 -511 75 -511 q -245 -512 -146 -511 q -342 -514 -344 -512 q -372 -519 -361 -517 q -392 -519 -383 -522 q -401 -494 -408 -512 q -388 -462 -397 -485 q -369 -415 -379 -440 q -351 -369 -360 -390 q -340 -342 -343 -349 q -331 -333 -337 -337 q -317 -332 -324 -329 l -286 -344 l -111 -349 q -72 -253 -97 -314 q -15 -113 -47 -192 q 54 56 17 -35 q 130 242 92 147 q 206 430 168 336 q 278 606 244 524 q 339 757 311 689 q 383 868 367 825 q 269 866 317 867 q 218 864 221 865 q 187 858 199 861 q 167 858 175 856 q 157 868 160 861 q 158 883 154 875 q 172 915 163 893 q 190 963 181 938 q 208 1008 200 988 q 218 1036 215 1029 q 228 1044 221 1040 q 243 1046 236 1049 q 257 1040 250 1043 q 272 1033 264 1036 l 646 1029 q 674 1018 663 1029 q 685 992 685 1007 q 669 958 685 975 q 635 904 654 940 z "},"{":{"ha":1176,"x_min":101,"x_max":1251,"o":"m 632 596 q 586 501 608 556 q 539 393 564 447 q 485 292 514 339 q 419 221 457 246 q 438 139 436 182 q 435 52 439 96 q 424 -35 431 8 q 417 -118 417 -79 q 417 -185 417 -144 q 424 -265 417 -226 q 449 -331 432 -303 q 500 -358 467 -358 q 552 -342 535 -358 q 575 -306 569 -326 q 577 -268 581 -286 q 567 -246 574 -250 q 578 -231 569 -237 q 597 -220 585 -225 q 631 -215 610 -215 q 701 -247 672 -215 q 729 -329 729 -279 q 717 -389 729 -353 q 674 -458 706 -425 q 588 -515 643 -492 q 446 -539 533 -539 q 338 -510 388 -539 q 253 -429 289 -482 q 196 -301 217 -376 q 175 -131 175 -225 q 177 -40 175 -89 q 182 53 179 10 q 190 153 186 103 q 148 149 171 153 q 118 147 125 144 q 108 172 101 153 q 122 204 113 182 q 140 251 131 226 q 158 297 150 276 q 169 324 167 318 q 182 336 172 331 q 203 336 192 342 q 220 328 210 333 q 238 322 231 322 q 265 382 244 338 q 311 481 285 426 q 367 590 338 535 q 424 683 397 646 q 552 835 482 767 q 703 953 622 904 q 876 1030 785 1003 q 1067 1057 967 1057 q 1205 1025 1158 1057 q 1251 935 1251 993 q 1235 860 1251 896 q 1192 798 1218 825 q 1133 754 1165 771 q 1069 738 1100 738 q 1026 753 1033 738 q 1024 768 1021 758 q 1045 794 1040 776 q 1050 825 1050 811 q 1048 840 1050 832 q 1039 856 1046 849 q 1019 869 1032 864 q 982 875 1006 875 q 887 854 933 875 q 796 797 840 833 q 710 708 751 760 q 632 596 669 657 z "},"}":{"ha":772,"x_min":-539,"x_max":610,"o":"m 593 371 q 603 346 610 365 l 542 193 q 529 181 539 186 q 508 181 519 176 q 492 190 501 183 q 475 196 482 196 q 448 136 468 181 q 401 38 428 92 q 344 -72 374 -17 q 288 -165 314 -128 q 160 -318 231 -249 q 8 -436 89 -387 q -165 -512 -74 -485 q -354 -539 -256 -539 q -492 -507 -446 -539 q -539 -417 -539 -475 q -522 -342 -539 -378 q -479 -280 -506 -307 q -421 -236 -453 -253 q -358 -219 -389 -219 q -328 -224 -339 -219 q -314 -235 -318 -229 q -311 -250 -308 -242 q -334 -276 -329 -258 q -339 -307 -339 -293 q -337 -322 -339 -314 q -328 -338 -335 -331 q -307 -351 -321 -346 q -269 -357 -293 -357 q -175 -336 -222 -357 q -83 -278 -128 -315 q 2 -190 -39 -242 q 79 -78 43 -139 q 126 15 104 -39 q 173 124 149 69 q 226 225 197 178 q 292 297 254 272 q 274 379 275 336 q 276 466 272 422 q 288 553 281 510 q 294 636 294 597 q 294 703 294 663 q 288 782 294 743 q 263 849 281 821 q 213 876 246 876 q 160 860 178 876 q 138 824 143 844 q 135 786 132 804 q 144 764 138 768 q 133 749 140 754 q 114 738 126 742 q 82 733 101 733 q 12 765 40 733 q -17 847 -17 797 q -6 907 -17 871 q 37 976 6 943 q 124 1033 68 1010 q 267 1057 179 1057 q 374 1028 325 1057 q 460 947 424 1000 q 517 819 496 894 q 538 649 538 743 q 535 557 538 606 q 529 465 532 508 q 521 365 525 415 q 563 369 540 365 q 593 371 586 374 z "},"†":{"ha":913,"x_min":60,"x_max":913,"o":"m 900 744 q 910 734 907 742 q 910 719 913 726 q 897 690 906 710 q 881 650 889 671 q 865 611 872 629 q 856 588 858 593 q 847 578 854 582 q 832 576 839 574 l 803 589 q 776 590 801 589 q 716 592 751 590 q 642 594 681 593 q 575 594 603 594 l 572 594 q 502 423 538 510 q 438 265 467 336 q 390 148 408 194 q 372 100 372 101 q 373 66 372 82 q 374 36 374 50 q 360 10 374 21 q 335 0 346 0 l 133 0 q 105 11 115 0 q 94 38 94 22 q 110 72 94 54 q 144 125 125 89 q 163 169 146 126 q 208 278 181 211 q 270 428 236 344 q 338 593 304 511 q 259 592 297 593 q 192 592 221 592 q 145 591 163 592 q 126 590 128 590 q 95 585 107 588 q 76 585 83 582 q 67 610 60 592 l 119 742 q 129 751 122 746 q 143 753 136 756 l 172 739 q 193 739 174 739 q 244 738 213 739 q 316 737 276 738 q 397 736 356 736 q 451 872 429 818 q 474 929 474 926 q 473 963 474 947 q 472 993 472 979 q 485 1019 472 1008 q 510 1029 499 1029 l 713 1029 q 740 1018 729 1029 q 751 992 751 1007 q 736 957 751 975 q 701 904 721 939 l 631 735 q 703 735 665 735 q 773 737 740 736 q 827 738 806 738 q 850 738 849 738 q 881 744 869 740 q 900 744 892 747 z "},"*":{"ha":525,"x_min":46,"x_max":579,"o":"m 422 621 q 430 613 426 617 q 436 607 433 610 q 440 599 440 604 q 436 592 439 594 q 426 584 433 589 q 408 575 418 579 q 389 567 399 571 q 374 561 379 563 q 364 559 369 560 q 356 561 358 558 q 351 572 351 564 q 349 592 351 579 q 342 608 349 592 q 327 646 336 624 q 307 693 318 668 q 288 739 296 718 q 245 701 271 724 q 196 656 219 678 q 154 619 172 635 q 136 603 136 604 q 132 593 133 597 q 129 585 131 589 q 113 581 121 575 q 101 587 108 582 q 86 598 94 592 q 69 610 78 604 q 56 619 61 615 q 50 636 46 626 q 59 644 53 640 q 76 654 65 647 q 103 676 78 654 q 158 726 128 699 q 213 775 188 753 q 238 799 238 797 l 238 800 q 201 835 219 817 q 167 867 183 853 q 142 892 151 882 q 131 901 132 901 q 121 906 125 904 q 113 908 117 907 q 106 916 107 911 q 106 924 104 921 q 113 935 107 928 q 125 950 118 942 q 138 966 132 958 q 147 979 144 974 q 163 986 156 990 q 172 977 168 983 q 183 961 175 971 l 289 858 q 311 910 299 881 q 334 964 324 939 q 351 1007 344 989 q 358 1025 358 1025 l 358 1046 q 363 1053 358 1050 q 371 1057 367 1057 l 443 1057 q 456 1044 456 1057 q 451 1033 456 1039 q 440 1017 447 1028 q 432 998 440 1017 q 413 953 424 979 q 390 897 401 926 q 368 844 378 867 q 416 858 392 851 q 461 872 440 865 q 495 883 482 878 q 508 888 508 888 l 525 901 q 533 903 528 904 q 540 899 538 901 q 556 870 546 892 q 572 838 567 849 q 571 821 579 826 q 560 818 567 818 q 540 815 553 818 q 519 809 539 815 q 470 794 499 803 q 412 777 442 786 q 361 763 382 768 q 381 715 371 739 q 401 669 392 690 q 416 635 410 649 q 422 621 422 621 z "},"&":{"ha":1425,"x_min":133,"x_max":1158,"o":"m 707 475 q 781 383 742 429 q 861 294 821 338 q 900 352 886 321 q 914 419 914 383 q 912 438 914 426 q 903 454 910 450 q 914 468 907 463 q 932 478 921 474 q 963 483 943 483 q 1038 449 1013 483 q 1064 374 1064 415 q 1044 284 1064 338 q 979 175 1024 231 q 1040 118 1013 143 q 1083 81 1067 93 q 1097 72 1085 79 q 1122 55 1108 65 q 1147 33 1136 44 q 1158 13 1158 21 q 1151 0 1158 1 q 1140 -1 1144 -1 l 1043 -1 q 949 0 1001 -1 q 909 26 933 10 q 854 67 885 43 q 682 -5 782 24 q 447 -33 582 -33 q 324 -19 381 -33 q 224 26 267 -4 q 158 101 182 56 q 133 210 133 147 q 155 301 133 257 q 213 383 176 344 q 298 456 249 421 q 404 522 347 490 q 365 601 379 563 q 351 674 351 640 q 383 806 351 749 q 467 906 415 864 q 583 978 518 949 q 713 1024 647 1007 q 837 1049 778 1042 q 938 1057 896 1057 q 1031 1042 989 1057 q 1100 1001 1072 1026 q 1143 940 1128 975 q 1158 868 1158 906 q 1117 742 1158 799 q 1012 637 1076 685 q 867 549 947 589 q 707 475 786 510 m 594 703 q 600 667 594 686 q 615 625 606 647 q 747 683 683 656 q 858 736 810 711 q 935 784 907 761 q 964 831 964 807 q 944 867 964 857 q 888 876 924 876 q 779 867 832 876 q 685 836 726 857 q 619 783 644 815 q 594 703 594 750 m 564 185 q 692 201 629 185 q 597 289 643 243 q 508 382 550 335 q 431 331 460 356 q 401 278 401 306 q 418 227 401 246 q 459 199 435 208 q 512 188 483 190 q 564 185 540 185 z "},"©":{"ha":1354,"x_min":161,"x_max":1261,"o":"m 672 357 q 807 382 747 357 q 897 457 867 407 l 925 438 q 897 390 917 421 q 840 328 876 358 q 747 274 803 297 q 607 251 690 251 q 485 291 531 251 q 439 397 439 331 q 474 544 439 475 q 563 665 508 613 q 683 747 617 717 q 810 778 749 778 q 888 750 860 778 q 917 686 917 722 q 901 634 917 657 q 862 595 885 611 q 811 570 839 579 q 761 561 783 561 q 726 572 740 561 q 713 601 713 583 q 731 647 713 625 q 771 668 749 668 q 786 663 783 668 q 788 658 788 660 q 779 637 776 651 q 797 622 782 622 q 816 632 810 622 q 822 654 822 642 q 811 678 822 667 q 779 689 800 689 q 712 667 750 689 q 640 609 674 644 q 584 530 607 574 q 561 443 561 486 q 590 381 561 404 q 672 357 618 357 m 896 1057 q 1060 1020 992 1057 q 1174 926 1129 983 q 1240 801 1219 869 q 1261 668 1261 732 q 1240 508 1261 590 q 1178 349 1219 426 q 1076 202 1138 271 q 932 82 1014 133 q 748 1 850 31 q 524 -29 646 -29 q 386 -6 451 -29 q 271 66 321 18 q 191 188 221 114 q 161 364 161 263 q 216 637 161 510 q 368 857 271 764 q 600 1003 465 950 q 896 1057 735 1057 m 522 50 q 726 78 633 50 q 892 152 818 106 q 1020 260 965 199 q 1111 388 1075 321 q 1165 522 1147 454 q 1183 649 1183 589 q 1163 777 1183 717 q 1105 883 1143 838 q 1012 953 1067 928 q 888 979 957 979 q 693 953 782 979 q 533 883 604 928 q 407 779 461 839 q 317 651 353 719 q 262 511 281 583 q 243 369 243 439 q 261 247 243 304 q 314 145 279 189 q 401 76 349 101 q 522 50 453 50 z "},"®":{"ha":1339,"x_min":156,"x_max":1256,"o":"m 890 1057 q 1055 1020 986 1057 q 1169 926 1124 983 q 1235 801 1214 869 q 1256 668 1256 732 q 1235 508 1256 590 q 1173 349 1214 426 q 1070 203 1132 272 q 926 83 1008 135 q 742 2 844 32 q 518 -28 640 -28 q 381 -5 446 -28 q 265 67 315 18 q 185 189 215 115 q 156 365 156 263 q 210 638 156 511 q 363 857 265 764 q 594 1003 460 950 q 890 1057 729 1057 m 517 50 q 720 78 628 50 q 886 152 813 106 q 1015 260 960 199 q 1106 388 1069 321 q 1160 522 1142 454 q 1178 649 1178 589 q 1158 778 1178 718 q 1099 883 1138 839 q 1006 953 1061 928 q 882 979 951 979 q 688 953 776 979 q 527 883 599 928 q 401 779 456 839 q 310 651 346 719 q 255 511 274 583 q 236 369 236 439 q 254 247 236 304 q 308 145 272 189 q 395 76 343 101 q 517 50 447 50 m 886 393 q 942 418 922 393 q 981 475 961 443 l 1006 457 q 972 399 989 428 q 936 345 956 369 q 893 306 917 321 q 839 292 869 292 q 787 314 810 292 q 747 365 764 336 q 715 423 729 394 q 688 464 700 451 q 686 461 686 461 q 670 417 682 451 q 632 344 658 382 q 561 277 606 307 q 449 247 517 247 q 389 272 413 247 q 365 329 365 296 q 379 386 365 360 q 415 431 393 413 q 463 460 436 450 q 515 471 490 471 q 549 459 536 471 q 561 432 561 447 q 542 388 561 407 q 503 369 522 369 q 489 374 490 369 q 489 379 488 376 q 496 387 494 382 q 497 397 497 392 q 494 407 497 401 q 481 413 490 413 q 462 403 468 413 q 456 381 456 393 q 467 358 457 368 q 496 349 476 349 q 545 366 525 349 q 575 406 565 383 q 587 451 586 429 q 593 483 588 472 l 629 568 q 644 621 644 607 q 644 635 644 626 q 643 649 643 643 q 654 664 643 658 q 667 667 660 667 q 708 672 689 669 q 739 677 724 675 q 760 679 754 679 q 786 663 786 679 q 755 631 767 656 q 725 561 743 606 q 722 551 722 553 q 771 559 747 551 q 813 579 794 567 q 843 608 832 592 q 854 640 854 624 q 823 687 854 675 q 721 699 792 699 q 590 677 635 699 q 546 633 546 656 q 563 615 546 615 q 585 638 585 615 q 582 646 585 643 l 579 649 q 581 653 579 650 q 593 658 583 658 q 615 644 608 658 q 622 615 622 631 q 591 544 622 575 q 519 513 560 513 q 474 533 492 513 q 456 585 456 553 q 471 651 456 617 q 523 715 486 686 q 618 763 560 744 q 763 782 676 782 q 904 751 850 782 q 958 661 958 721 q 914 553 958 600 q 803 485 869 507 q 820 453 811 469 q 840 424 829 438 q 861 401 850 410 q 886 393 872 393 z "},"@":{"ha":1339,"x_min":169,"x_max":1269,"o":"m 904 1057 q 1069 1024 1000 1057 q 1183 940 1138 992 q 1249 824 1228 888 q 1269 696 1269 760 q 1228 484 1269 574 q 1127 336 1188 394 q 997 249 1067 278 q 868 221 926 221 q 755 248 792 221 q 706 311 718 275 q 644 247 679 272 q 564 221 608 221 q 510 233 536 221 q 463 268 483 246 q 431 322 443 290 q 419 392 419 353 q 457 557 419 481 q 549 690 494 633 q 668 777 604 746 q 786 808 732 808 q 838 799 814 808 q 869 774 863 789 q 919 794 885 781 q 997 808 954 808 q 1043 778 1043 808 q 994 729 1014 767 q 947 625 974 692 q 922 563 938 597 q 892 492 907 528 q 867 424 878 457 q 857 365 857 390 q 863 331 857 343 q 878 315 869 319 q 894 309 886 310 q 908 308 903 308 q 1008 338 957 308 q 1099 417 1058 367 q 1166 535 1140 468 q 1192 676 1192 601 q 1172 801 1192 744 q 1113 897 1151 857 q 1020 958 1075 936 q 896 979 965 979 q 617 924 738 979 q 416 780 497 868 q 294 583 335 692 q 253 369 253 475 q 272 247 253 304 q 331 145 292 189 q 427 76 369 101 q 563 50 485 50 q 697 72 644 50 q 750 132 750 94 q 744 150 750 144 q 750 157 746 153 q 758 162 753 160 q 774 164 764 164 q 806 149 793 164 q 818 111 818 135 q 797 49 818 75 q 738 6 775 22 q 651 -19 700 -11 q 549 -28 603 -28 q 406 -5 474 -28 q 285 67 338 18 q 201 189 232 115 q 169 365 169 263 q 224 638 169 511 q 376 857 279 764 q 608 1003 474 950 q 904 1057 743 1057 m 642 401 q 685 417 668 401 q 713 457 701 433 q 742 538 725 497 q 776 614 760 578 q 764 644 774 631 q 733 657 754 657 q 674 638 700 657 q 629 590 647 618 q 602 531 611 563 q 593 472 593 499 q 608 421 593 440 q 642 401 622 401 z "},"#":{"ha":1201,"x_min":140,"x_max":1206,"o":"m 1189 750 q 1199 725 1206 743 q 1184 689 1194 715 q 1162 633 1174 663 q 1140 579 1150 604 q 1128 549 1131 554 q 1118 540 1125 544 q 1104 538 1111 535 q 1090 544 1097 540 q 1075 551 1083 549 q 1047 552 1074 551 q 981 553 1021 553 l 946 475 l 1018 475 q 1049 481 1038 478 q 1068 482 1060 485 q 1078 457 1085 475 q 1063 421 1074 447 q 1041 365 1053 394 q 1019 311 1029 336 q 1007 281 1010 286 q 998 272 1006 276 q 983 269 990 267 l 954 283 q 926 284 953 283 q 861 285 900 285 q 828 210 840 239 q 815 179 815 181 l 815 114 q 800 88 814 99 q 775 78 786 78 l 599 78 q 572 89 582 78 q 561 115 561 100 q 578 150 563 132 q 615 203 593 168 l 653 288 q 583 288 629 288 q 485 286 538 288 q 451 210 464 239 q 439 179 439 181 q 438 144 438 160 q 438 114 439 129 q 423 88 438 99 q 397 78 408 78 l 222 78 q 194 89 204 78 q 183 115 183 100 q 201 150 185 132 q 238 203 217 168 l 275 285 l 204 285 q 173 278 185 282 q 153 278 161 275 q 143 288 146 281 q 144 303 140 296 l 214 479 q 224 489 217 485 q 238 490 231 493 l 267 478 q 294 476 268 476 q 361 475 321 476 l 396 554 q 344 553 364 553 q 324 553 325 553 q 293 547 304 550 q 274 546 282 543 q 264 556 267 549 q 264 572 261 564 q 278 607 268 581 q 301 663 289 633 q 322 716 313 692 q 335 747 332 740 q 344 757 338 753 q 358 758 351 761 l 388 746 q 415 744 389 744 q 481 744 440 744 q 514 819 501 790 q 526 850 526 847 q 527 884 528 868 q 528 914 526 900 q 542 940 528 929 q 567 950 556 950 l 743 950 q 771 939 760 950 q 781 913 782 928 q 765 878 781 896 q 726 825 749 861 q 716 801 726 824 q 689 742 706 778 l 857 742 q 890 818 878 789 q 903 850 903 847 q 904 884 904 868 q 904 914 904 900 q 919 940 906 929 q 944 950 933 950 l 1119 950 q 1148 939 1138 950 q 1158 913 1158 928 q 1142 878 1157 896 q 1104 825 1126 861 l 1067 743 q 1118 743 1099 743 q 1139 744 1138 743 q 1169 750 1158 747 q 1189 750 1181 753 m 738 472 q 755 514 746 493 q 774 556 764 535 q 704 556 750 556 q 606 554 658 556 l 568 474 q 644 473 607 474 q 738 472 681 472 z "},"§":{"ha":1289,"x_min":28,"x_max":1119,"o":"m 600 701 q 638 644 600 668 q 733 597 676 619 q 856 553 790 575 q 979 503 922 531 q 1074 440 1036 475 q 1113 356 1113 404 q 1060 215 1113 276 q 915 111 1007 154 q 925 67 925 92 q 869 -78 925 -15 q 717 -184 814 -142 q 488 -249 619 -226 q 206 -271 357 -271 q 151 -265 182 -271 q 93 -246 121 -260 q 47 -208 65 -232 q 28 -147 28 -183 q 44 -70 28 -104 q 87 -13 61 -36 q 144 22 113 10 q 203 33 175 33 q 229 29 221 33 q 242 19 238 25 q 246 7 246 14 q 228 -10 235 0 q 221 -33 221 -21 q 235 -55 221 -47 q 290 -62 249 -62 q 415 -58 349 -62 q 538 -44 482 -54 q 631 -16 594 -33 q 668 28 668 1 q 631 65 668 47 q 538 101 594 82 q 417 142 482 119 q 297 199 353 165 q 203 277 240 232 q 167 383 167 322 q 219 524 167 456 q 356 649 272 593 q 354 660 354 654 q 354 672 354 665 q 407 813 354 743 q 541 936 460 882 q 720 1024 622 990 q 908 1057 818 1057 q 997 1042 958 1057 q 1063 1003 1036 1028 q 1105 945 1090 978 q 1119 876 1119 913 q 1088 774 1119 819 q 1010 697 1057 729 q 910 648 964 665 q 813 631 857 631 q 744 653 772 631 q 717 708 717 675 q 726 756 717 732 q 753 798 736 779 q 790 828 769 817 q 833 840 811 840 q 854 837 847 840 q 864 831 861 833 q 867 822 868 826 q 851 803 856 815 q 849 779 847 790 q 860 760 851 768 q 885 751 869 751 q 921 770 908 751 q 933 814 933 789 q 912 862 933 839 q 847 885 890 885 q 753 865 799 885 q 674 818 708 846 q 620 758 640 790 q 600 701 600 726 m 413 413 q 440 363 413 385 q 513 322 468 342 q 612 284 557 303 q 721 244 667 265 q 817 272 779 256 q 854 317 854 289 q 813 355 854 338 q 712 393 772 372 q 583 440 651 414 q 460 503 515 465 q 425 456 438 479 q 413 413 413 432 z "},"+":{"ha":892,"x_min":39,"x_max":799,"o":"m 786 569 q 796 560 793 567 q 796 544 799 553 q 783 514 792 536 q 765 468 774 492 q 747 424 756 444 q 736 397 739 403 q 726 389 733 393 q 713 388 719 385 q 699 394 706 390 q 683 400 692 397 q 640 402 681 401 q 546 406 600 403 q 516 404 533 404 q 478 404 499 404 q 437 303 454 346 q 419 258 419 261 q 420 224 419 240 q 421 194 421 208 q 408 169 421 179 q 383 158 394 158 l 217 158 q 189 169 200 158 q 178 196 178 181 q 193 230 178 213 q 228 283 208 247 q 244 320 229 286 q 278 403 258 354 q 158 402 208 403 q 106 401 107 401 q 74 395 86 399 q 56 396 63 392 q 46 421 39 401 q 59 451 50 429 q 77 497 68 474 q 94 541 86 521 q 106 567 103 561 q 115 576 107 572 q 129 578 122 581 q 143 572 136 575 q 158 565 150 568 q 174 565 158 565 q 216 564 190 564 q 275 563 242 564 q 344 563 308 563 q 366 617 356 592 q 384 662 376 642 q 397 694 392 682 q 401 707 401 706 q 401 741 401 725 q 400 771 400 757 q 413 797 400 786 q 438 807 426 807 l 604 807 q 633 796 622 807 q 644 769 644 785 q 628 735 644 753 q 593 682 613 718 l 542 561 q 555 560 549 561 q 565 560 561 560 q 629 560 599 560 q 683 562 660 561 q 720 563 706 563 q 736 564 735 564 q 767 569 756 567 q 786 569 778 572 z "},"×":{"ha":807,"x_min":-1,"x_max":790,"o":"m 771 757 q 788 738 786 751 q 779 710 790 725 q 744 682 768 694 q 679 642 719 669 l 517 511 q 570 444 549 471 q 594 417 592 418 l 649 399 q 661 377 661 393 q 654 350 661 361 q 608 297 636 325 q 547 233 581 268 q 518 210 533 218 q 490 208 503 203 q 472 233 476 214 q 450 283 467 253 l 368 389 q 288 323 319 350 q 254 293 256 296 q 231 261 242 276 q 213 232 221 246 q 183 212 201 217 q 157 210 165 207 q 128 220 146 214 q 92 234 111 226 q 53 249 72 242 q 17 261 33 256 q 1 281 3 268 q 10 308 -1 294 q 45 338 21 325 q 110 378 69 350 q 125 389 111 378 q 161 417 139 400 q 212 458 183 435 q 272 508 240 482 q 219 574 240 547 q 194 603 197 601 l 140 621 q 127 642 126 625 q 135 668 128 658 q 182 724 153 693 q 242 785 211 754 q 271 808 256 800 q 299 811 286 817 q 317 786 313 806 q 339 736 322 767 q 363 703 339 733 q 421 631 388 672 q 501 696 469 669 q 535 725 533 722 q 557 758 547 743 q 576 786 567 774 q 606 806 588 801 q 632 808 624 811 q 697 785 656 801 q 771 757 738 769 z "},"=":{"ha":878,"x_min":-1,"x_max":878,"o":"m 135 607 q 125 632 118 613 l 185 779 q 194 788 186 783 q 208 789 201 792 q 222 783 215 786 q 238 776 229 779 q 263 776 238 776 q 328 775 289 775 q 415 774 368 775 q 508 773 463 774 q 590 772 553 772 q 644 771 626 771 q 708 772 678 771 q 762 773 739 772 q 799 774 785 774 q 815 775 814 775 q 846 781 835 778 q 865 781 857 783 q 875 771 872 778 q 875 756 878 764 q 862 724 871 746 q 844 679 853 703 q 826 635 835 656 q 815 610 818 615 q 806 600 813 604 q 792 599 799 596 q 778 605 785 601 q 763 611 771 608 q 719 613 760 613 q 625 615 679 614 q 562 615 603 615 q 472 615 521 615 q 373 615 424 615 q 281 614 322 614 q 213 613 239 614 q 185 613 186 613 q 153 607 165 610 q 135 607 142 604 m 742 479 q 751 454 758 472 q 738 423 747 444 q 720 378 729 401 q 703 333 711 354 q 692 307 694 313 q 682 298 689 303 q 668 296 675 293 l 639 310 q 596 312 636 311 q 501 314 556 313 q 438 313 479 314 q 349 313 397 313 q 249 312 300 313 q 158 311 199 311 q 90 311 117 311 q 63 311 64 311 q 31 305 42 308 q 11 304 19 301 q 1 315 4 307 q 3 329 -1 322 q 15 360 7 339 q 33 406 24 382 q 50 451 42 431 q 61 476 58 471 q 71 486 64 482 q 85 488 78 490 l 114 474 q 141 473 115 474 q 206 472 167 472 q 292 472 244 472 q 384 471 339 471 q 466 470 429 471 q 521 469 503 469 q 585 470 554 469 q 638 472 615 471 q 676 472 661 472 q 692 472 690 472 q 723 478 711 475 q 742 479 735 482 z "},"°":{"ha":588,"x_min":165,"x_max":644,"o":"m 306 546 q 204 590 243 546 q 165 706 165 635 q 192 838 165 774 q 264 950 218 901 q 370 1028 310 999 q 499 1057 431 1057 q 565 1043 538 1057 q 610 1007 592 1029 q 636 956 628 985 q 644 897 644 928 q 621 781 644 843 q 553 667 597 719 q 446 581 508 615 q 306 546 383 546 m 488 990 q 406 963 447 990 q 331 894 364 936 q 276 801 297 851 q 254 706 254 751 q 260 660 254 678 q 277 631 267 642 q 302 617 288 621 q 332 613 317 613 q 414 644 374 613 q 485 722 454 675 q 536 822 517 768 q 556 918 556 875 q 535 970 556 950 q 488 990 515 990 z "},"^":{"ha":624,"x_min":56,"x_max":569,"o":"m 467 549 q 465 560 464 551 q 464 581 465 568 q 454 620 464 582 q 431 708 444 658 q 403 807 417 758 q 385 879 390 856 q 355 844 375 868 q 309 792 335 821 q 256 732 283 764 q 205 672 229 700 q 163 622 181 643 q 140 593 146 601 q 127 572 131 581 q 117 561 124 564 q 99 567 106 554 q 90 585 96 572 q 77 611 83 597 q 65 636 71 625 q 57 651 58 647 q 57 660 56 654 q 64 669 58 667 l 86 682 q 100 697 86 682 q 134 735 114 713 q 178 786 154 758 q 226 840 203 814 q 267 888 249 867 q 296 921 286 910 q 354 990 329 961 q 381 1022 379 1019 q 394 1043 390 1036 q 406 1053 399 1050 q 425 1056 410 1056 q 443 1054 440 1057 q 447 1043 446 1050 q 450 1022 447 1036 q 465 969 456 1003 q 484 896 474 936 q 505 814 494 856 q 525 737 515 772 q 542 678 535 701 q 551 653 549 656 l 567 642 q 567 632 569 639 q 563 622 565 625 q 549 609 558 618 q 528 590 539 600 q 506 569 517 579 q 489 553 496 560 q 467 549 476 542 z "},"_":{"ha":1226,"x_min":7,"x_max":975,"o":"m 958 165 q 968 140 975 158 q 956 109 964 131 q 938 64 947 88 q 919 19 928 40 q 910 -7 911 -1 q 899 -17 907 -12 q 885 -18 892 -21 l 856 -4 q 813 -2 853 -3 q 718 0 772 -1 q 640 0 696 0 q 512 -1 583 0 q 363 -1 440 -1 q 220 -2 285 -1 q 114 -3 156 -3 q 71 -3 72 -3 q 39 -9 50 -6 q 19 -10 28 -12 q 10 1 13 -7 q 10 15 7 8 q 23 47 14 25 q 41 92 32 68 q 58 135 50 115 q 69 163 67 156 q 79 172 72 168 q 93 174 86 176 l 122 160 q 165 160 124 160 q 268 159 206 160 q 405 158 331 158 q 547 158 479 158 q 667 156 615 157 q 738 156 719 156 q 801 156 771 156 q 855 158 832 157 q 892 158 878 158 q 908 158 907 158 q 940 165 928 161 q 958 165 951 168 z "},"|":{"ha":594,"x_min":-178,"x_max":683,"o":"m 633 901 q 617 863 633 900 q 576 763 601 826 q 516 616 550 700 q 444 438 482 532 q 365 245 406 344 q 287 51 325 146 q 215 -126 249 -43 q 155 -273 181 -210 q 115 -374 129 -336 q 100 -412 100 -411 q 101 -448 100 -432 q 101 -478 101 -464 q 88 -503 101 -493 q 63 -514 74 -514 l -139 -514 q -167 -503 -157 -514 q -178 -476 -178 -492 q -162 -442 -178 -460 q -128 -389 -147 -424 q -103 -331 -126 -387 q -43 -181 -81 -274 q 42 28 -6 -89 q 140 268 90 146 q 238 508 190 390 q 323 717 286 625 q 383 867 360 810 q 406 926 406 925 q 405 961 406 946 q 404 990 404 976 q 418 1016 404 1006 q 443 1026 432 1026 l 644 1026 q 673 1016 663 1026 q 683 990 683 1006 q 668 955 683 972 q 633 901 653 938 z "},"~":{"ha":794,"x_min":140,"x_max":715,"o":"m 665 608 q 694 601 683 608 q 710 585 706 594 q 715 566 715 576 q 714 547 715 556 q 681 449 703 494 q 631 369 660 403 q 564 317 601 336 q 482 297 526 297 q 435 314 454 297 q 403 355 417 331 q 382 408 390 379 q 366 462 374 438 q 350 503 358 486 q 331 519 342 519 q 304 507 317 519 q 282 475 292 494 q 265 433 272 456 q 254 389 258 410 q 255 369 251 374 q 265 364 258 364 q 289 374 276 364 q 296 372 293 374 q 300 358 301 369 q 266 318 296 339 q 188 297 236 297 q 161 304 171 297 q 147 320 151 311 q 141 340 142 329 q 143 360 140 351 q 174 458 154 413 q 224 536 194 503 q 290 589 253 569 q 372 608 328 608 q 415 592 399 608 q 444 551 432 575 q 463 497 456 526 q 478 444 471 468 q 497 403 486 419 q 522 386 507 386 q 549 399 536 386 q 571 432 561 413 q 588 474 581 451 q 599 518 594 497 q 599 538 603 533 q 589 542 596 542 q 565 533 576 542 q 558 535 561 533 q 553 549 551 538 q 587 588 557 568 q 665 608 617 608 z "},"":{"ha":353,"x_min":-2357,"x_max":243,"o":"m -2049 -247 q -2135 -274 -2101 -247 q -2168 -339 -2168 -301 q -2158 -374 -2168 -360 q -2128 -387 -2147 -387 q -2098 -374 -2108 -387 q -2087 -343 -2087 -361 q -2090 -330 -2087 -336 q -2094 -321 -2092 -324 q -2100 -314 -2097 -317 q -2094 -304 -2099 -310 q -2085 -297 -2092 -300 q -2068 -293 -2079 -293 q -2022 -308 -2042 -293 q -2001 -356 -2001 -322 q -2015 -413 -2001 -385 q -2053 -463 -2028 -442 q -2113 -498 -2078 -485 q -2192 -511 -2149 -511 q -2255 -499 -2225 -511 q -2308 -465 -2285 -486 q -2344 -413 -2331 -443 q -2357 -347 -2357 -383 q -2329 -228 -2357 -286 q -2248 -126 -2301 -171 q -2117 -55 -2194 -82 q -1940 -28 -2039 -28 q -1811 -35 -1900 -28 q -1604 -56 -1722 -43 q -1345 -86 -1486 -69 q -1059 -119 -1204 -103 q -772 -153 -914 -136 q -508 -183 -629 -169 q -294 -203 -386 -196 q -156 -211 -201 -211 q -13 -165 -64 -211 q 49 -49 38 -119 q 47 33 54 -14 q 28 132 39 79 q 6 240 17 185 q -4 346 -4 294 q 0 399 -4 374 q 19 470 6 435 q 52 533 32 506 q 98 578 72 561 q 154 594 124 594 q 189 576 178 594 q 194 531 200 558 q 173 458 189 497 q 125 375 157 419 q 161 278 140 329 q 200 174 182 226 q 231 69 218 122 q 243 -33 243 17 q 201 -194 243 -129 q 92 -298 158 -258 q -55 -354 25 -337 q -210 -371 -135 -371 q -341 -365 -251 -371 q -551 -351 -431 -360 q -814 -332 -671 -343 q -1106 -309 -957 -321 q -1401 -286 -1256 -297 q -1674 -267 -1547 -275 q -1898 -253 -1800 -258 q -2049 -247 -1996 -247 z "},"b":{"ha":701,"x_min":-81,"x_max":757,"o":"m 701 396 l 757 356 q 726 299 744 333 q 687 226 708 265 q 638 146 665 186 q 581 73 611 106 q 517 20 551 40 q 444 0 482 0 q 369 19 400 0 q 318 68 338 39 q 199 18 261 36 q 72 0 136 0 q -38 37 4 0 q -81 126 -81 74 q -60 232 -81 165 q -8 377 -39 299 q 60 538 24 456 q 127 694 96 621 q 179 824 158 768 q 200 904 200 879 q 199 934 200 915 q 199 964 199 953 q 206 984 199 976 q 224 996 214 992 q 249 1004 235 1001 q 328 1017 292 1011 q 389 1025 360 1021 q 429 1029 418 1029 q 483 993 483 1029 q 415 918 443 976 q 347 757 388 860 q 335 728 343 747 q 317 683 328 710 q 404 707 357 707 q 474 692 442 707 q 528 649 506 676 q 565 583 551 621 q 578 499 578 544 q 529 289 578 390 q 520 267 524 279 q 517 244 517 254 q 524 226 518 233 q 544 219 531 219 q 587 237 565 219 q 628 281 608 254 q 667 338 649 307 q 701 396 686 368 m 158 275 q 172 235 161 253 q 211 218 183 218 q 244 222 229 218 q 275 233 260 226 q 307 330 281 300 q 376 368 333 360 q 385 406 383 388 q 388 440 388 424 q 371 503 388 479 q 331 526 354 526 q 257 493 288 526 q 210 417 226 460 q 179 335 193 372 q 158 275 165 299 z "},"c":{"ha":590,"x_min":-40,"x_max":647,"o":"m 328 417 q 351 443 346 426 q 356 474 356 460 q 344 506 356 488 q 304 525 333 525 q 253 506 278 525 q 210 457 229 486 q 181 393 192 428 q 169 328 169 358 q 173 295 169 314 q 188 259 176 276 q 223 230 200 242 q 283 218 246 218 q 395 232 347 218 q 479 270 443 246 q 542 326 515 294 q 590 396 569 358 l 647 356 q 588 256 625 317 q 492 139 550 196 q 353 41 433 82 q 164 0 272 0 q 81 16 118 0 q 16 60 43 32 q -26 126 -11 88 q -40 211 -40 165 q 4 406 -40 315 q 116 564 49 497 q 263 669 183 631 q 413 707 343 707 q 517 670 479 707 q 556 583 556 633 q 539 510 556 546 q 496 448 522 475 q 438 404 469 421 q 375 388 406 388 q 344 392 354 388 q 331 401 335 396 q 328 417 325 407 z "},"a":{"ha":690,"x_min":-42,"x_max":746,"o":"m 690 396 l 746 356 q 672 229 708 293 q 595 115 636 165 q 507 32 554 64 q 401 0 460 0 q 326 22 357 0 q 283 81 296 44 q 217 22 254 44 q 132 0 179 0 q 67 15 99 0 q 12 56 36 29 q -27 121 -12 83 q -42 204 -42 158 q -21 341 -42 276 q 35 462 0 406 q 115 563 69 518 q 209 640 160 608 q 308 688 258 671 q 400 706 357 706 q 463 694 433 706 q 501 664 493 682 q 562 689 521 672 q 654 706 603 706 q 710 669 710 706 q 656 619 678 657 q 606 515 633 581 q 537 343 564 411 q 510 247 510 275 q 514 228 510 238 q 529 218 518 218 q 572 233 551 218 q 612 274 592 249 q 651 331 632 299 q 690 396 671 363 m 228 218 q 283 243 263 218 q 319 300 304 268 q 353 388 335 344 q 389 469 372 432 q 375 508 386 490 q 338 525 364 525 q 265 502 297 525 q 212 445 233 479 q 179 372 190 411 q 168 303 168 333 q 185 241 168 264 q 228 218 203 218 z "}}}
